<svg width="50" height="31" viewBox="0 0 50 31" fill="none" xmlns="http://www.w3.org/2000/svg">
<path fill-rule="evenodd" clip-rule="evenodd" d="M1.86988 0H45.2613C47.86 0 50 2.07879 50 4.67766V25.0369C50 25.3763 49.6992 25.6148 49.3596 25.6148H45.4656C45.249 28.4107 42.9171 30.569 40.1128 30.569C37.3084 30.569 34.9765 28.4107 34.7599 25.6148H15.1377C14.9211 28.4107 12.5892 30.569 9.78489 30.569C6.98057 30.569 4.64865 28.4107 4.43207 25.6148H0.640369C0.30082 25.6148 0 25.3757 0 25.0363V1.80881C0 0.791906 0.852971 0 1.86988 0ZM5.02049 6.35246H1.22951V11.0656H5.02049V6.35246ZM9.78484 29.3387C7.49778 29.3387 5.64375 27.4847 5.64375 25.1976C5.64375 22.9106 7.49778 21.0566 9.78484 21.0566C12.0719 21.0566 13.9259 22.9106 13.9259 25.1976C13.9233 27.4836 12.0708 29.3361 9.78484 29.3387ZM35.9716 25.1976C35.9716 27.4847 37.8256 29.3387 40.1127 29.3387C42.3987 29.3361 44.2512 27.4836 44.2538 25.1976C44.2538 22.9106 42.3998 21.0566 40.1127 21.0566C37.8256 21.0566 35.9716 22.9106 35.9716 25.1976ZM48.7705 21.7213H46.9262V19.6721H48.7705V21.7213ZM40.0835 12.0902H48.7705V6.35246H43.5749C42.5058 6.35889 41.5664 7.06335 41.2609 8.08791L40.0835 12.0902ZM48.7705 5.12295H43.5749C41.9611 5.13142 40.5427 6.19411 40.081 7.74047L38.6719 12.5287C38.6171 12.7148 38.6531 12.916 38.7691 13.0716C38.885 13.2272 39.0675 13.3191 39.2616 13.3197H48.7705V16.291H36.0656C35.7261 16.291 35.4508 16.5662 35.4508 16.9057C35.4508 17.2453 35.7261 17.5205 36.0656 17.5205H48.7705V18.4426H46.2705C45.9309 18.4426 45.6967 18.7179 45.6967 19.0574V22.3361C45.6967 22.6755 45.9306 22.9508 46.2705 22.9508H48.7705V24.3852H45.4218C45.0203 21.7634 42.7651 19.8272 40.1127 19.8272C37.4603 19.8272 35.2051 21.7634 34.8036 24.3852H15.094C14.6925 21.7634 12.4372 19.8272 9.78484 19.8272C7.13244 19.8272 4.8772 21.7634 4.47572 24.3852H1.22951V17.5205H31.9672C32.3067 17.5205 32.582 17.2453 32.582 16.9057C32.582 16.5662 32.3067 16.291 31.9672 16.291H1.22951V12.2951H34.307C34.5726 12.295 34.8082 12.1243 34.891 11.8718L36.8377 5.93852C36.8993 5.75025 36.8676 5.54389 36.7522 5.38283C36.6369 5.22177 36.4518 5.12526 36.2537 5.12295H1.22951V1.80881C1.22951 1.46977 1.53084 1.22951 1.86988 1.22951H45.2613C47.1824 1.22951 48.7705 2.75676 48.7705 4.67766V5.12295ZM6.25 6.35246V11.0656H11.168V6.35246H6.25ZM12.3975 11.0656V6.35246H17.3156V11.0656H12.3975ZM18.5451 6.35246V11.0656H23.4631V6.35246H18.5451ZM24.6926 11.0656V6.35246H29.6107V11.0656H24.6926ZM30.8402 6.35246V11.0656H33.8617L35.405 6.35246H30.8402Z" fill="black"/>
<path fill-rule="evenodd" clip-rule="evenodd" d="M37.3837 2.45898H25.7554C25.4159 2.45898 25.1406 2.73422 25.1406 3.07374C25.1406 3.41326 25.4159 3.68849 25.7554 3.68849H37.3837C37.7232 3.68849 37.9984 3.41326 37.9984 3.07374C37.9984 2.73422 37.7232 2.45898 37.3837 2.45898Z" fill="black"/>
<path fill-rule="evenodd" clip-rule="evenodd" d="M43.8115 2.45898H39.6499C39.3104 2.45898 39.0352 2.73422 39.0352 3.07374C39.0352 3.41326 39.3104 3.68849 39.6499 3.68849H43.8115C44.151 3.68849 44.4262 3.41326 44.4262 3.07374C44.4262 2.73422 44.151 2.45898 43.8115 2.45898Z" fill="black"/>
<path fill-rule="evenodd" clip-rule="evenodd" d="M46.6802 2.45898H46.105C45.7655 2.45898 45.4902 2.73422 45.4902 3.07374C45.4902 3.41326 45.7655 3.68849 46.105 3.68849H46.6802C47.0197 3.68849 47.2949 3.41326 47.2949 3.07374C47.2949 2.73422 47.0197 2.45898 46.6802 2.45898Z" fill="black"/>
<path fill-rule="evenodd" clip-rule="evenodd" d="M6.87207 25.1977C6.87207 23.589 8.17618 22.2849 9.78488 22.2849C11.3928 22.2867 12.6959 23.5898 12.6977 25.1977C12.6977 26.8064 11.3936 28.1105 9.78488 28.1105C8.17618 28.1105 6.87207 26.8064 6.87207 25.1977ZM8.10158 25.1977C8.10158 26.1274 8.85522 26.881 9.78488 26.881C10.7141 26.8799 11.4671 26.1269 11.4682 25.1977C11.4682 24.2681 10.7145 23.5144 9.78488 23.5144C8.85522 23.5144 8.10158 24.2681 8.10158 25.1977Z" fill="black"/>
<path fill-rule="evenodd" clip-rule="evenodd" d="M37.2002 25.1977C37.2002 23.589 38.5043 22.2849 40.113 22.2849C41.721 22.2867 43.024 23.5898 43.0258 25.1977C43.0258 26.8064 41.7217 28.1105 40.113 28.1105C38.5043 28.1105 37.2002 26.8064 37.2002 25.1977ZM38.4297 25.1977C38.4297 26.1274 39.1833 26.881 40.113 26.881C41.0422 26.8799 41.7952 26.1269 41.7963 25.1977C41.7963 24.2681 41.0427 23.5144 40.113 23.5144C39.1833 23.5144 38.4297 24.2681 38.4297 25.1977Z" fill="black"/>
</svg>
