<svg width="1408" height="224" viewBox="0 0 1408 224" fill="none" xmlns="http://www.w3.org/2000/svg">
<g opacity="0.904041">
<g style="mix-blend-mode:soft-light">
<path fill-rule="evenodd" clip-rule="evenodd" d="M616.888 133.921L522.832 120.852C522.832 120.852 478.985 105.073 473.551 97.3469C468.117 89.6207 215.625 31.6234 205.608 30.3691C195.592 29.1148 125 -12 125 -12C125 -12 315.089 41.4819 321.324 41.5823C327.56 41.6826 358.31 62.102 362.843 59.3427C367.375 56.5833 476.431 61.8512 483.542 61.0986C490.654 60.3461 686.177 120.25 734.106 123.812C782.035 127.374 806 135 806 135L616.888 133.921Z" fill="#196B97"/>
</g>
<g style="mix-blend-mode:soft-light">
<path fill-rule="evenodd" clip-rule="evenodd" d="M987.493 196.521C997.314 199.506 1015.78 218.203 1029.16 220.201C1042.54 222.199 1131.88 219.338 1131.88 219.338L1249 224C1249 224 1004.53 185.693 998.091 176.64C978.474 149.013 885 157.104 885 157.104L987.493 196.521Z" fill="#196B97"/>
</g>
<g style="mix-blend-mode:soft-light">
<path fill-rule="evenodd" clip-rule="evenodd" d="M572.27 158.867C572.27 158.867 486.413 151.637 479.762 150.608C473.111 149.579 457.752 136.324 457.752 136.324C457.752 136.324 456.873 139.613 419.353 131.304C381.833 122.994 364.968 110.644 364.968 110.644L315 100C315 100 505.512 126.057 507.846 130.124C510.18 134.191 497.807 137.303 497.807 137.303C497.807 137.303 552.895 150.056 555.053 151.035C557.211 152.014 618.097 161.804 618.097 161.804C618.097 161.804 653.233 159.67 657.825 162.231C662.418 164.791 703 173 703 173L572.27 158.867Z" fill="#196B97"/>
</g>
<g style="mix-blend-mode:soft-light">
<path fill-rule="evenodd" clip-rule="evenodd" d="M950.403 124.483C950.403 124.483 805.789 99.11 791.192 93.3742C776.595 87.6384 785.147 81.026 762.575 78.1205C740.002 75.2151 632.933 42.0527 632.933 42.0527L506 14C506 14 614.95 32.0589 623.001 29.2787C631.052 26.4985 699.146 4.70753 727.863 19.9362C756.58 35.1648 809.25 72.7354 820.661 74.2132C832.073 75.691 860.389 64.0441 892.267 83.5307C924.144 103.017 1136 147 1136 147L934.126 115.866L950.403 124.483Z" fill="#196B97"/>
</g>
<g style="mix-blend-mode:soft-light">
<path fill-rule="evenodd" clip-rule="evenodd" d="M97.4927 0.0875397C97.4927 0.0875397 47.5515 -9.5043 41.821 -11.7508C36.0905 -13.9973 39.4584 -16.5972 30.561 -17.7836C21.6636 -18.9699 -20.2599 -31.9946 -20.2599 -31.9946L-70 -43C-70 -43 -27.2723 -35.8818 -24.1305 -36.9925C-20.9888 -38.1031 5.72863 -46.6853 16.9132 -40.6525C28.0979 -34.6198 48.8334 -19.8534 53.2821 -19.2728C57.7308 -18.6923 68.84 -23.261 81.3819 -15.5875C93.9237 -7.91407 127 4 127 4L97.8697 -2.84049L97.4927 0.0875397Z" fill="#196B97"/>
</g>
<g style="mix-blend-mode:soft-light">
<path fill-rule="evenodd" clip-rule="evenodd" d="M302 -152C302 -152 826.979 -5.2506 843.313 -14.4224C874.529 -31.9642 922.931 3.11934 922.931 3.11934C922.931 3.11934 956.226 -18.3819 1087.55 28.5048C1105.44 34.895 1252.9 28.8807 1252.9 28.8807L1455 58L719.829 -148.817L302 -152Z" fill="#196B97"/>
</g>
</g>
</svg>
