<svg width="52" height="33" viewBox="0 0 52 33" fill="none" xmlns="http://www.w3.org/2000/svg">
<path fill-rule="evenodd" clip-rule="evenodd" d="M48.2055 27.2707H46.7851V25.7707H48.2047C49.4798 25.7695 50.5131 24.7262 50.5143 23.439V16.764C50.5062 15.3601 49.4798 14.1745 48.103 13.9785L39.8914 12.834L30.9029 2.34371C30.6856 2.08515 30.3658 1.93734 30.03 1.94021H9.89857C9.53959 1.93651 9.20084 2.10765 8.98857 2.39996L1.48571 12.609V23.439C1.48694 24.7259 2.51979 25.7691 3.79451 25.7707H5.22971V27.2707H3.79451C1.69976 27.2678 0.00245523 25.5539 0 23.439V12.114L7.79183 1.51346C8.28373 0.835824 9.06718 0.436847 9.89931 0.440207H30.0307C30.7983 0.438644 31.5282 0.776251 32.0283 1.36421L40.6454 11.4255L48.305 12.4957C50.4163 12.7962 51.9895 14.6151 52 16.7677V23.4427C51.9955 25.5561 50.2988 27.2678 48.2055 27.2707Z" fill="black"/>
<path fill-rule="evenodd" clip-rule="evenodd" d="M15.9736 25.7708H36.0263V27.2708H15.9736V25.7708Z" fill="black"/>
<path fill-rule="evenodd" clip-rule="evenodd" d="M35.2793 26.3665C35.2778 29.7847 38.0207 32.5572 41.4064 32.5597C44.7931 32.5581 47.5387 29.7877 47.5424 26.3685C47.542 22.9502 44.7975 20.1793 41.4118 20.1787C38.0261 20.1782 35.2808 22.9482 35.2793 26.3665ZM36.765 26.3715C36.7634 23.7816 38.8411 21.6804 41.4064 21.678V21.675C43.9737 21.6758 46.055 23.7764 46.0567 26.3685C46.0567 28.9584 43.9776 31.0581 41.4123 31.059C38.8471 31.0598 36.7667 28.9614 36.765 26.3715Z" fill="black"/>
<path fill-rule="evenodd" clip-rule="evenodd" d="M38.4105 27.6223C38.9129 28.845 40.0954 29.6417 41.4065 29.6408C43.1946 29.6371 44.6429 28.1738 44.6454 26.3685C44.6454 25.0448 43.8554 23.8515 42.6441 23.3452C41.4327 22.8388 40.0385 23.1192 39.1117 24.0555C38.1849 24.9918 37.9082 26.3996 38.4105 27.6223ZM39.7832 25.6878C40.0557 25.0258 40.6964 24.5946 41.4065 24.5955V24.5963C42.3746 24.5988 43.1584 25.3911 43.1596 26.3685C43.1593 27.0855 42.7312 27.7316 42.075 28.0056C41.4188 28.2795 40.6637 28.1273 40.162 27.6199C39.6603 27.1125 39.5108 26.3499 39.7832 25.6878Z" fill="black"/>
<path fill-rule="evenodd" clip-rule="evenodd" d="M7.3584 26.3679C7.35812 28.1751 8.80884 29.6403 10.5987 29.6407C12.388 29.6386 13.8381 28.1749 13.8406 26.3684C13.8406 24.5613 12.3896 23.0963 10.5997 23.0962C8.80983 23.0961 7.35867 24.5608 7.3584 26.3679ZM8.84411 26.3682C8.84384 25.3895 9.62937 24.5959 10.5987 24.5954V24.5962C11.5677 24.597 12.3532 25.3894 12.3549 26.3677C12.3549 27.3464 11.5691 28.1398 10.5997 28.1399C9.63036 28.1401 8.84439 27.3469 8.84411 26.3682Z" fill="black"/>
<path fill-rule="evenodd" clip-rule="evenodd" d="M4.46875 26.3687C4.46848 29.7875 7.21329 32.5593 10.5995 32.5597C13.9845 32.556 16.7277 29.7867 16.7318 26.3692C16.7318 22.9504 13.9868 20.1788 10.6005 20.1787C7.21428 20.1786 4.46902 22.9499 4.46875 26.3687ZM5.95446 26.369C5.95419 23.7786 8.03383 21.6784 10.5996 21.678V21.675C13.1655 21.6779 15.2445 23.7779 15.2461 26.3685C15.2461 28.9589 13.1663 31.0588 10.6005 31.059C8.03482 31.0591 5.95474 28.9594 5.95446 26.369Z" fill="black"/>
<path fill-rule="evenodd" clip-rule="evenodd" d="M19.9593 18.4996C20.9365 19.4814 22.2615 20.0287 23.6401 20.0198H23.6372C26.6791 19.997 29.1585 17.5495 29.2495 14.4796C29.293 13.0443 28.7476 11.6546 27.7422 10.6388C27.1405 10.0313 25.8739 9.79059 23.86 9.46434L23.8497 9.46266C23.009 9.32668 22.1398 9.1861 21.4829 9.00609C20.0204 8.60343 18.6441 7.93168 17.4232 7.02459C17.179 6.8264 16.8379 6.8042 16.5705 6.96909C16.3031 7.13398 16.167 7.45051 16.2301 7.76034C16.4144 8.65959 18.0791 16.6006 19.9593 18.4996ZM18.0776 9.22587C18.0771 9.22386 18.0766 9.22185 18.0761 9.21984V9.22509C18.0766 9.22535 18.0771 9.22561 18.0776 9.22587ZM21.0097 17.4368C20.026 16.443 18.8302 12.4102 18.0776 9.22587C19.0328 9.7532 20.0454 10.1667 21.0951 10.4581C21.8277 10.6583 22.7373 10.8057 23.6181 10.9484L23.6283 10.9501C24.6616 11.1136 26.3902 11.3926 26.6948 11.7001C27.4113 12.4264 27.7991 13.419 27.7667 14.4436C27.7393 15.5152 27.3016 16.5343 26.5455 17.2868C25.0559 18.8672 22.5811 18.9343 21.0097 17.4368Z" fill="black"/>
<path fill-rule="evenodd" clip-rule="evenodd" d="M30.2897 19.8668C30.2348 19.8669 30.1799 19.8609 30.1263 19.8488C25.7739 18.8641 21.3873 13.6591 21.2031 13.4378C20.945 13.1206 20.9874 12.6529 21.2982 12.3883C21.6091 12.1237 22.0729 12.1606 22.3389 12.4711C22.3813 12.5213 26.5888 17.5118 30.4509 18.3856C30.8206 18.4689 31.0691 18.8197 31.0275 19.1998C30.986 19.58 30.6678 19.8677 30.289 19.8676L30.2897 19.8668Z" fill="black"/>
</svg>
