<svg width="93" height="38" viewBox="0 0 93 38" fill="none" xmlns="http://www.w3.org/2000/svg">
<path fill-rule="evenodd" clip-rule="evenodd" d="M16.6744 14.25C16.9484 14.25 17.2032 14.3925 17.3489 14.6252C17.493 14.858 17.5057 15.1509 17.382 15.3947L6.29872 37.5614C6.16253 37.8352 5.88703 37.9999 5.59097 37.9999C5.53086 37.9999 5.47066 37.9936 5.40891 37.9794C5.05111 37.8955 4.79936 37.5756 4.79936 37.2083V22.1666H0.841047C0.609856 22.1666 0.391356 22.0669 0.239356 21.8911C0.0889141 21.7154 0.0224141 21.4842 0.0588555 21.2546L3.22555 0.671309C3.28418 0.285 3.61668 0 4.00774 0H16.6744C16.9294 0 17.1684 0.121941 17.3157 0.329383C17.4661 0.535191 17.5057 0.801191 17.4249 1.04344L13.0217 14.25H16.6744ZM6.38274 21.375V33.8548L15.3934 15.8332H11.9244C11.6694 15.8332 11.4304 15.7114 11.2831 15.5039C11.1327 15.2981 11.0931 15.0321 11.1739 14.7899L15.5771 1.58331H4.68691L1.76411 20.5833H5.59105C6.02805 20.5833 6.38274 20.938 6.38274 21.375Z" fill="black"/>
<path d="M40.624 12.904V16.76H44.912V17.88H40.624V21.816H45.392V23H39.168V11.72H45.392V12.904H40.624ZM48.9177 11.16V23H47.4617V11.16H48.9177ZM59.5386 18.12C59.5386 18.4293 59.5173 18.696 59.4746 18.92H52.4506C52.4826 19.9227 52.7653 20.6747 53.2986 21.176C53.8426 21.6773 54.504 21.928 55.2826 21.928C55.9866 21.928 56.5733 21.752 57.0426 21.4C57.5226 21.0373 57.816 20.5573 57.9226 19.96H59.4746C59.368 20.568 59.128 21.112 58.7546 21.592C58.392 22.072 57.9173 22.4453 57.3306 22.712C56.744 22.9787 56.0826 23.112 55.3466 23.112C54.504 23.112 53.7573 22.9307 53.1066 22.568C52.456 22.2053 51.944 21.688 51.5706 21.016C51.208 20.3333 51.0266 19.5333 51.0266 18.616C51.0266 17.6987 51.208 16.8987 51.5706 16.216C51.944 15.5333 52.456 15.0107 53.1066 14.648C53.7573 14.2853 54.504 14.104 55.3466 14.104C56.2 14.104 56.9413 14.2853 57.5706 14.648C58.2106 15.0107 58.696 15.496 59.0266 16.104C59.368 16.712 59.5386 17.384 59.5386 18.12ZM58.0666 18.216C58.0986 17.5653 57.992 17.0213 57.7466 16.584C57.5013 16.1467 57.1653 15.8213 56.7386 15.608C56.312 15.3947 55.848 15.288 55.3466 15.288C54.5466 15.288 53.8746 15.5387 53.3306 16.04C52.7866 16.5307 52.4933 17.256 52.4506 18.216H58.0666ZM66.459 23L63.099 19.048V23H61.643V11.16H63.099V18.04L66.411 14.216H68.187L64.251 18.584L68.283 23H66.459ZM73.9569 21.72V23H72.8689C71.9729 23 71.3009 22.7867 70.8529 22.36C70.4155 21.9333 70.1969 21.2187 70.1969 20.216V15.48H68.8849V14.216H70.1969V12.024H71.6689V14.216H73.9409V15.48H71.6689V20.248C71.6689 20.8133 71.7702 21.2027 71.9729 21.416C72.1862 21.6187 72.5489 21.72 73.0609 21.72H73.9569ZM77.3896 15.992C77.6776 15.384 78.099 14.9147 78.6536 14.584C79.2083 14.2427 79.8696 14.072 80.6376 14.072V15.656H80.1896C79.3683 15.656 78.6963 15.8693 78.1736 16.296C77.651 16.712 77.3896 17.4053 77.3896 18.376V23H75.9336V14.216H77.3896V15.992ZM85.8743 14.104C86.7276 14.104 87.4476 14.3173 88.0343 14.744C88.6316 15.1707 89.0476 15.7413 89.2823 16.456V14.216H90.7383V23H89.2823V20.76C89.0476 21.4747 88.6316 22.0453 88.0343 22.472C87.4476 22.8987 86.7276 23.112 85.8743 23.112C85.0956 23.112 84.4023 22.9307 83.7943 22.568C83.1863 22.2053 82.7063 21.688 82.3543 21.016C82.0129 20.3333 81.8423 19.5333 81.8423 18.616C81.8423 17.6987 82.0129 16.8987 82.3543 16.216C82.7063 15.5333 83.1863 15.0107 83.7943 14.648C84.4023 14.2853 85.0956 14.104 85.8743 14.104ZM86.2903 15.4C85.3943 15.4 84.6743 15.688 84.1303 16.264C83.5969 16.8293 83.3303 17.6133 83.3303 18.616C83.3303 19.6187 83.5969 20.408 84.1303 20.984C84.6743 21.5493 85.3943 21.832 86.2903 21.832C86.8663 21.832 87.3783 21.6987 87.8263 21.432C88.2849 21.1653 88.6423 20.792 88.8983 20.312C89.1543 19.8213 89.2823 19.256 89.2823 18.616C89.2823 17.976 89.1543 17.4107 88.8983 16.92C88.6423 16.4293 88.2849 16.056 87.8263 15.8C87.3783 15.5333 86.8663 15.4 86.2903 15.4Z" fill="black"/>
</svg>
