<svg width="18" height="38" viewBox="0 0 18 38" fill="none" xmlns="http://www.w3.org/2000/svg">
<path fill-rule="evenodd" clip-rule="evenodd" d="M16.6742 14.25C16.9481 14.25 17.203 14.3925 17.3487 14.6252C17.4927 14.858 17.5054 15.1509 17.3818 15.3947L6.29848 37.5614C6.16229 37.8352 5.88679 37.9999 5.59073 37.9999C5.53061 37.9999 5.47042 37.9936 5.40867 37.9794C5.05086 37.8955 4.79911 37.5756 4.79911 37.2083V22.1666H0.840803C0.609611 22.1666 0.391111 22.0669 0.239111 21.8911C0.08867 21.7154 0.02217 21.4842 0.0586114 21.2546L3.2253 0.671309C3.28394 0.285 3.61644 0 4.00749 0H16.6742C16.9291 0 17.1682 0.121941 17.3154 0.329383C17.4659 0.535191 17.5054 0.801191 17.4247 1.04344L13.0214 14.25H16.6742ZM6.38249 21.375V33.8548L15.3932 15.8332H11.9241C11.6692 15.8332 11.4301 15.7114 11.2829 15.5039C11.1324 15.2981 11.0929 15.0321 11.1736 14.7899L15.5769 1.58331H4.68667L1.76386 20.5833H5.5908C6.0278 20.5833 6.38249 20.938 6.38249 21.375Z" fill="black"/>
</svg>
