<svg width="130" height="43" viewBox="0 0 130 43" fill="none" xmlns="http://www.w3.org/2000/svg">
<path fill-rule="evenodd" clip-rule="evenodd" d="M18.8663 3.04564V6.9375C20.7731 7.66597 22.034 9.49402 22.0375 11.5353V37.804C22.0346 40.5239 19.8304 42.7281 17.1104 42.7311H5.10628C2.38636 42.7281 0.182162 40.5239 0.179199 37.804V11.5353C0.182738 9.49402 1.44361 7.66597 3.35045 6.9375V3.04564C3.35223 1.51263 4.59453 0.270332 6.12753 0.268555H16.0892C17.6222 0.270332 18.8645 1.51263 18.8663 3.04564ZM6.12753 1.52272C5.28686 1.52371 4.6056 2.20496 4.60462 3.04564V6.63363C4.76945 6.61715 4.93679 6.60819 5.10628 6.60819H8.86878V4.61908C8.54406 4.57209 8.3108 4.28223 8.33435 3.95497C8.3579 3.62772 8.63026 3.37424 8.95837 3.37423H13.2584C13.5865 3.37424 13.8588 3.62772 13.8824 3.95497C13.9059 4.28223 13.6727 4.57209 13.3479 4.61908V6.60819H17.1104C17.2799 6.60819 17.4473 6.61715 17.6121 6.63363V3.04564C17.6111 2.20496 16.9299 1.52371 16.0892 1.52272H6.12753ZM10.1229 4.62947H12.0938V6.60819H10.1229V4.62947ZM17.1104 7.86235H5.10628C3.07877 7.86472 1.43574 9.50776 1.43337 11.5353V21.894H6.24041C7.23513 20.1425 9.09411 19.0604 11.1084 19.0604C13.1226 19.0604 14.9816 20.1425 15.9763 21.894H20.7834V11.5353C20.781 9.50776 19.138 7.86472 17.1104 7.86235ZM20.7834 26.194H16.5016C16.7893 25.1991 16.7893 24.143 16.5016 23.1481H20.7834V26.194ZM5.71437 23.1481H1.43337V26.194H5.71437C5.42669 25.1991 5.42669 24.143 5.71437 23.1481ZM6.75318 24.6696C6.75318 22.2643 8.70306 20.3144 11.1084 20.3144C13.5137 20.3144 15.4635 22.2643 15.4635 24.6696C15.4635 27.0749 13.5137 29.0248 11.1084 29.0248C8.70421 29.022 6.75595 27.0738 6.75318 24.6696ZM5.10628 41.4755H17.109L17.1104 41.4769C19.138 41.4747 20.7812 39.8316 20.7834 37.804V27.4481H15.9745C14.9795 29.1981 13.1214 30.2789 11.1084 30.2789C9.09531 30.2789 7.23727 29.1981 6.2422 27.4481H1.43337V37.804C1.43633 39.831 3.07925 41.4733 5.10628 41.4755Z" fill="black"/>
<path fill-rule="evenodd" clip-rule="evenodd" d="M19.2604 17.409C19.6066 17.4088 19.8873 17.1281 19.8875 16.7819V14.0944C19.8875 13.748 19.6067 13.4673 19.2604 13.4673C18.9141 13.4673 18.6333 13.748 18.6333 14.0944V16.7819C18.6335 17.1281 18.9141 17.4088 19.2604 17.409Z" fill="black"/>
<path fill-rule="evenodd" clip-rule="evenodd" d="M13.8855 25.5245C13.8838 27.0575 12.6415 28.2998 11.1085 28.3015C9.57476 28.3007 8.33137 27.0582 8.32959 25.5245C8.32959 23.6751 10.419 21.4731 10.657 21.228C10.9073 20.9845 11.306 20.9845 11.5564 21.228C11.7961 21.4731 13.8855 23.6751 13.8855 25.5245ZM12.6314 25.5245C12.6314 24.629 11.7513 23.3762 11.1085 22.6062C10.4656 23.3762 9.58555 24.629 9.58555 25.5245C9.58555 26.3655 10.2674 27.0474 11.1085 27.0474C11.9495 27.0474 12.6314 26.3655 12.6314 25.5245Z" fill="black"/>
<path d="M45.904 13.72L49.344 23.384L52.832 13.72H54.416L50.272 25H48.432L44.304 13.72H45.904ZM59.6867 16.104C60.5401 16.104 61.2601 16.3173 61.8468 16.744C62.4441 17.1707 62.8601 17.7413 63.0948 18.456V16.216H64.5508V25H63.0948V22.76C62.8601 23.4747 62.4441 24.0453 61.8468 24.472C61.2601 24.8987 60.5401 25.112 59.6867 25.112C58.9081 25.112 58.2147 24.9307 57.6068 24.568C56.9987 24.2053 56.5187 23.688 56.1667 23.016C55.8254 22.3333 55.6547 21.5333 55.6547 20.616C55.6547 19.6987 55.8254 18.8987 56.1667 18.216C56.5187 17.5333 56.9987 17.0107 57.6068 16.648C58.2147 16.2853 58.9081 16.104 59.6867 16.104ZM60.1027 17.4C59.2067 17.4 58.4867 17.688 57.9427 18.264C57.4094 18.8293 57.1428 19.6133 57.1428 20.616C57.1428 21.6187 57.4094 22.408 57.9427 22.984C58.4867 23.5493 59.2067 23.832 60.1027 23.832C60.6788 23.832 61.1908 23.6987 61.6388 23.432C62.0974 23.1653 62.4548 22.792 62.7108 22.312C62.9668 21.8213 63.0948 21.256 63.0948 20.616C63.0948 19.976 62.9668 19.4107 62.7108 18.92C62.4548 18.4293 62.0974 18.056 61.6388 17.8C61.1908 17.5333 60.6788 17.4 60.1027 17.4ZM71.692 16.072C72.716 16.072 73.5427 16.4027 74.172 17.064C74.8013 17.7147 75.116 18.6587 75.116 19.896V25H73.66V20.024C73.66 19.1493 73.436 18.4773 72.988 18.008C72.54 17.5387 71.932 17.304 71.164 17.304C70.364 17.304 69.724 17.5653 69.244 18.088C68.764 18.6 68.524 19.352 68.524 20.344V25H67.068V16.216H68.524V18.296C68.748 17.5813 69.1427 17.032 69.708 16.648C70.284 16.264 70.9453 16.072 71.692 16.072ZM81.1492 16.104C82.0026 16.104 82.7226 16.3173 83.3092 16.744C83.9066 17.1707 84.3226 17.7413 84.5572 18.456V13.16H86.0132V25H84.5572V22.76C84.3226 23.4747 83.9066 24.0453 83.3092 24.472C82.7226 24.8987 82.0026 25.112 81.1492 25.112C80.3706 25.112 79.6772 24.9307 79.0692 24.568C78.4612 24.2053 77.9812 23.688 77.6292 23.016C77.2879 22.3333 77.1172 21.5333 77.1172 20.616C77.1172 19.6987 77.2879 18.8987 77.6292 18.216C77.9812 17.5333 78.4612 17.0107 79.0692 16.648C79.6772 16.2853 80.3706 16.104 81.1492 16.104ZM81.5652 17.4C80.6692 17.4 79.9492 17.688 79.4052 18.264C78.8719 18.8293 78.6052 19.6133 78.6052 20.616C78.6052 21.6187 78.8719 22.408 79.4052 22.984C79.9492 23.5493 80.6692 23.832 81.5652 23.832C82.1412 23.832 82.6532 23.6987 83.1012 23.432C83.5599 23.1653 83.9172 22.792 84.1732 22.312C84.4292 21.8213 84.5572 21.256 84.5572 20.616C84.5572 19.976 84.4292 19.4107 84.1732 18.92C83.9172 18.4293 83.5599 18.056 83.1012 17.8C82.6532 17.5333 82.1412 17.4 81.5652 17.4ZM96.6105 20.12C96.6105 20.4293 96.5892 20.696 96.5465 20.92H89.5225C89.5545 21.9227 89.8372 22.6747 90.3705 23.176C90.9145 23.6773 91.5758 23.928 92.3545 23.928C93.0585 23.928 93.6452 23.752 94.1145 23.4C94.5945 23.0373 94.8878 22.5573 94.9945 21.96H96.5465C96.4398 22.568 96.1998 23.112 95.8265 23.592C95.4638 24.072 94.9892 24.4453 94.4025 24.712C93.8158 24.9787 93.1545 25.112 92.4185 25.112C91.5758 25.112 90.8292 24.9307 90.1785 24.568C89.5278 24.2053 89.0158 23.688 88.6425 23.016C88.2798 22.3333 88.0985 21.5333 88.0985 20.616C88.0985 19.6987 88.2798 18.8987 88.6425 18.216C89.0158 17.5333 89.5278 17.0107 90.1785 16.648C90.8292 16.2853 91.5758 16.104 92.4185 16.104C93.2718 16.104 94.0132 16.2853 94.6425 16.648C95.2825 17.0107 95.7678 17.496 96.0985 18.104C96.4398 18.712 96.6105 19.384 96.6105 20.12ZM95.1385 20.216C95.1705 19.5653 95.0638 19.0213 94.8185 18.584C94.5732 18.1467 94.2372 17.8213 93.8105 17.608C93.3838 17.3947 92.9198 17.288 92.4185 17.288C91.6185 17.288 90.9465 17.5387 90.4025 18.04C89.8585 18.5307 89.5652 19.256 89.5225 20.216H95.1385ZM103.339 16.072C104.363 16.072 105.19 16.4027 105.819 17.064C106.448 17.7147 106.763 18.6587 106.763 19.896V25H105.307V20.024C105.307 19.1493 105.083 18.4773 104.635 18.008C104.187 17.5387 103.579 17.304 102.811 17.304C102.011 17.304 101.371 17.5653 100.891 18.088C100.411 18.6 100.171 19.352 100.171 20.344V25H98.7149V16.216H100.171V18.296C100.395 17.5813 100.79 17.032 101.355 16.648C101.931 16.264 102.592 16.072 103.339 16.072ZM108.94 13.64C108.94 13.3733 109.031 13.16 109.212 13C109.393 12.8293 109.633 12.744 109.932 12.744C110.231 12.744 110.471 12.8293 110.652 13C110.833 13.16 110.924 13.3733 110.924 13.64C110.924 13.9067 110.833 14.1253 110.652 14.296C110.471 14.456 110.231 14.536 109.932 14.536C109.633 14.536 109.393 14.456 109.212 14.296C109.031 14.1253 108.94 13.9067 108.94 13.64ZM110.652 16.216V25H109.196V16.216H110.652ZM114.649 13.16V25H113.193V13.16H114.649ZM116.934 13.64C116.934 13.3733 117.025 13.16 117.206 13C117.387 12.8293 117.627 12.744 117.926 12.744C118.225 12.744 118.465 12.8293 118.646 13C118.827 13.16 118.918 13.3733 118.918 13.64C118.918 13.9067 118.827 14.1253 118.646 14.296C118.465 14.456 118.225 14.536 117.926 14.536C117.627 14.536 117.387 14.456 117.206 14.296C117.025 14.1253 116.934 13.9067 116.934 13.64ZM118.646 16.216V25H117.19V16.216H118.646ZM123.939 16.104C124.931 16.104 125.725 16.3653 126.323 16.888C126.931 17.4 127.299 18.0933 127.427 18.968H126.035C125.971 18.4453 125.752 18.0187 125.379 17.688C125.016 17.3467 124.525 17.176 123.907 17.176C123.384 17.176 122.973 17.304 122.675 17.56C122.387 17.8053 122.243 18.1413 122.243 18.568C122.243 18.888 122.339 19.1493 122.531 19.352C122.733 19.544 122.979 19.6933 123.267 19.8C123.565 19.896 123.971 20.0027 124.483 20.12C125.133 20.2693 125.656 20.424 126.051 20.584C126.456 20.7333 126.797 20.9787 127.075 21.32C127.363 21.6613 127.507 22.12 127.507 22.696C127.507 23.4107 127.235 23.992 126.691 24.44C126.157 24.888 125.443 25.112 124.547 25.112C123.501 25.112 122.648 24.8613 121.987 24.36C121.325 23.8587 120.936 23.16 120.819 22.264H122.227C122.28 22.7973 122.509 23.2293 122.915 23.56C123.331 23.8907 123.875 24.056 124.547 24.056C125.048 24.056 125.437 23.928 125.715 23.672C126.003 23.416 126.147 23.08 126.147 22.664C126.147 22.3227 126.045 22.0507 125.843 21.848C125.64 21.6453 125.389 21.4907 125.091 21.384C124.792 21.2773 124.381 21.1653 123.859 21.048C123.208 20.8987 122.685 20.7493 122.291 20.6C121.907 20.4507 121.576 20.216 121.299 19.896C121.032 19.5653 120.899 19.1227 120.899 18.568C120.899 17.832 121.171 17.24 121.715 16.792C122.259 16.3333 123 16.104 123.939 16.104Z" fill="black"/>
</svg>
