<svg width="23" height="43" viewBox="0 0 23 43" fill="none" xmlns="http://www.w3.org/2000/svg">
<path fill-rule="evenodd" clip-rule="evenodd" d="M18.8663 3.04564V6.9375C20.7731 7.66597 22.034 9.49402 22.0375 11.5353V37.804C22.0346 40.5239 19.8304 42.7281 17.1104 42.7311H5.10628C2.38636 42.7281 0.182162 40.5239 0.179199 37.804V11.5353C0.182738 9.49402 1.44361 7.66597 3.35045 6.9375V3.04564C3.35223 1.51263 4.59453 0.270332 6.12753 0.268555H16.0892C17.6222 0.270332 18.8645 1.51263 18.8663 3.04564ZM6.12753 1.52272C5.28686 1.52371 4.6056 2.20496 4.60462 3.04564V6.63363C4.76945 6.61715 4.93679 6.60819 5.10628 6.60819H8.86878V4.61908C8.54406 4.57209 8.3108 4.28223 8.33435 3.95497C8.3579 3.62772 8.63026 3.37424 8.95837 3.37423H13.2584C13.5865 3.37424 13.8588 3.62772 13.8824 3.95497C13.9059 4.28223 13.6727 4.57209 13.3479 4.61908V6.60819H17.1104C17.2799 6.60819 17.4473 6.61715 17.6121 6.63363V3.04564C17.6111 2.20496 16.9299 1.52371 16.0892 1.52272H6.12753ZM10.1229 4.62947H12.0938V6.60819H10.1229V4.62947ZM17.1104 7.86235H5.10628C3.07877 7.86472 1.43574 9.50776 1.43337 11.5353V21.894H6.24041C7.23513 20.1425 9.09411 19.0604 11.1084 19.0604C13.1226 19.0604 14.9816 20.1425 15.9763 21.894H20.7834V11.5353C20.781 9.50776 19.138 7.86472 17.1104 7.86235ZM20.7834 26.194H16.5016C16.7893 25.1991 16.7893 24.143 16.5016 23.1481H20.7834V26.194ZM5.71437 23.1481H1.43337V26.194H5.71437C5.42669 25.1991 5.42669 24.143 5.71437 23.1481ZM6.75318 24.6696C6.75318 22.2643 8.70306 20.3144 11.1084 20.3144C13.5137 20.3144 15.4635 22.2643 15.4635 24.6696C15.4635 27.0749 13.5137 29.0248 11.1084 29.0248C8.70421 29.022 6.75595 27.0738 6.75318 24.6696ZM5.10628 41.4755H17.109L17.1104 41.4769C19.138 41.4747 20.7812 39.8316 20.7834 37.804V27.4481H15.9745C14.9795 29.1981 13.1214 30.2789 11.1084 30.2789C9.09531 30.2789 7.23727 29.1981 6.2422 27.4481H1.43337V37.804C1.43633 39.831 3.07925 41.4733 5.10628 41.4755Z" fill="black"/>
<path fill-rule="evenodd" clip-rule="evenodd" d="M19.2604 17.409C19.6066 17.4088 19.8873 17.1281 19.8875 16.7819V14.0944C19.8875 13.748 19.6067 13.4673 19.2604 13.4673C18.9141 13.4673 18.6333 13.748 18.6333 14.0944V16.7819C18.6335 17.1281 18.9141 17.4088 19.2604 17.409Z" fill="black"/>
<path fill-rule="evenodd" clip-rule="evenodd" d="M13.8855 25.5245C13.8838 27.0575 12.6415 28.2998 11.1085 28.3015C9.57476 28.3007 8.33137 27.0582 8.32959 25.5245C8.32959 23.6751 10.419 21.4731 10.657 21.228C10.9073 20.9845 11.306 20.9845 11.5564 21.228C11.7961 21.4731 13.8855 23.6751 13.8855 25.5245ZM12.6314 25.5245C12.6314 24.629 11.7513 23.3762 11.1085 22.6062C10.4656 23.3762 9.58555 24.629 9.58555 25.5245C9.58555 26.3655 10.2674 27.0474 11.1085 27.0474C11.9495 27.0474 12.6314 26.3655 12.6314 25.5245Z" fill="black"/>
</svg>
