<svg width="699" height="404" viewBox="0 0 699 404" fill="none" xmlns="http://www.w3.org/2000/svg">
<path fill-rule="evenodd" clip-rule="evenodd" d="M488 37V118H10.1996L9.38208 112.564L8.22391 104.962L4 76.9248L329.036 50.1053L348.702 48.4812L367.006 46.9699L423.143 42.3459L488 37Z" fill="url(#paint0_linear_0_1005)"/>
<g style="mix-blend-mode:screen">
<path fill-rule="evenodd" clip-rule="evenodd" d="M176.883 63L77 71.32L107.261 119H201L176.883 63Z" fill="url(#paint1_linear_0_1005)"/>
</g>
<path fill-rule="evenodd" clip-rule="evenodd" d="M407.091 86.1834C408.254 85.441 494 84 494 84L493.613 91.8166L407 94L407.091 86.1834Z" fill="url(#paint2_linear_0_1005)"/>
<path fill-rule="evenodd" clip-rule="evenodd" d="M426 41C420.92 60.1793 413.916 79.4044 397.61 89.818C387.385 95.9382 375.743 99.3735 363.792 99.7967C352.18 100.293 340.546 99.8799 329 98.5608C335.903 77.6593 349.342 59.4546 367.387 46.5615L368.663 45.6918L426 41Z" fill="url(#paint3_linear_0_1005)"/>
<path fill-rule="evenodd" clip-rule="evenodd" d="M442.557 41.8501L416 84L431.925 83.2421L463 40L442.557 41.8501Z" fill="url(#paint4_linear_0_1005)"/>
<path fill-rule="evenodd" clip-rule="evenodd" d="M351 50C340.591 63.1327 318.005 90.8624 309.795 95.5984C298.978 101.822 268.115 104.544 268.115 104.544L12.1565 115L11 107.29L280.451 95.5984C280.451 95.5984 304.398 88.1855 311.337 77.295C317.535 68.3776 324.22 59.8152 331.362 51.6473L351 50Z" fill="url(#paint5_linear_0_1005)"/>
<g style="mix-blend-mode:multiply">
<path fill-rule="evenodd" clip-rule="evenodd" d="M57.5878 118.338L52.8468 73.3168L52.846 73.3152L57.5871 118.337L57.5878 118.338Z" fill="#E0A7A6"/>
<path fill-rule="evenodd" clip-rule="evenodd" d="M118.06 118.346L114.111 68.3009L114.11 68.2997L118.059 118.345L118.06 118.346Z" fill="#E0A7A6"/>
<path fill-rule="evenodd" clip-rule="evenodd" d="M178.439 118.351L175.275 63.2875L175.275 63.2866L178.439 118.35L178.439 118.351Z" fill="#E0A7A6"/>
<path fill-rule="evenodd" clip-rule="evenodd" d="M238.86 118.356L236.487 58.25L236.486 58.2494L238.859 118.356L238.86 118.356Z" fill="#E0A7A6"/>
<path fill-rule="evenodd" clip-rule="evenodd" d="M300.842 117.921L299.503 52.7695L299.503 52.7691L300.842 117.921L300.842 117.921Z" fill="#E0A7A6"/>
<path fill-rule="evenodd" clip-rule="evenodd" d="M359.714 118.348L358.921 48.2006L358.921 48.2004L359.713 118.348L359.714 118.348Z" fill="#E0A7A6"/>
<rect width="1.13912" height="75.174" transform="matrix(-1 0 0 1 420.75 43.1729)" fill="#E0A7A6"/>
</g>
<g style="mix-blend-mode:screen">
<path fill-rule="evenodd" clip-rule="evenodd" d="M59.6494 118.276L54.8154 73.2634L54.8147 73.2618L59.6487 118.274L59.6494 118.276Z" fill="#755554"/>
<path fill-rule="evenodd" clip-rule="evenodd" d="M120.109 118.29L116.082 68.2502L116.082 68.249L120.108 118.289L120.109 118.29Z" fill="#755554"/>
<path fill-rule="evenodd" clip-rule="evenodd" d="M180.504 118.3L177.277 63.2398L177.277 63.239L180.503 118.299L180.504 118.3Z" fill="#755554"/>
<path fill-rule="evenodd" clip-rule="evenodd" d="M240.966 118.284L238.546 58.1798L238.546 58.1792L240.966 118.284L240.966 118.284Z" fill="#755554"/>
<path fill-rule="evenodd" clip-rule="evenodd" d="M301.438 118.271L299.83 53.1384L299.829 53.138L301.438 118.271L301.438 118.271Z" fill="#755554"/>
<path fill-rule="evenodd" clip-rule="evenodd" d="M361.844 118.302L361.036 48.1548L361.035 48.1546L361.844 118.302L361.844 118.302Z" fill="#755554"/>
<rect width="1.13958" height="75.174" transform="matrix(-1 0 0 1 422.883 43.1052)" fill="#755554"/>
</g>
<path fill-rule="evenodd" clip-rule="evenodd" d="M488 37V118H752.794L759 79.9925L488 37Z" fill="url(#paint6_linear_0_1005)"/>
<path fill-rule="evenodd" clip-rule="evenodd" d="M417 24.0059C411.435 47.1999 405.689 73.8317 385.917 86.8038C375.945 92.9325 364.59 96.3726 352.934 96.7965C341.608 97.2936 330.261 96.8797 319 95.5588C332.66 52.5279 372.386 23.5228 417 24.0059Z" fill="url(#paint7_linear_0_1005)"/>
<path fill-rule="evenodd" clip-rule="evenodd" d="M501 78.1061L499.269 84.8491L399.661 88.8724C406.494 77.3869 414.353 65.7665 419.318 53.3369C424.202 41.2907 427.783 28.7692 430.001 15.9809C430.206 14.8795 430.388 13.7332 430.548 12.6993C400.572 15.6437 367.134 18.768 344.288 39.851C333.605 49.7182 325.223 61.7657 315.315 72.4196C305.406 83.0735 293.288 92.6485 278.87 95.2108L0.797241 108L0 103.033L276.433 90.693C292.149 86.445 304.723 75.2291 315.155 62.8221C325.587 50.415 334.653 36.7492 347.044 26.41C360.574 15.1717 377.43 8.42872 394.673 4.72008C411.916 1.01145 429.728 0.292196 447.381 0C442.185 29.3724 430.522 57.2622 413.214 81.7024L421.277 81.4102L501 78.1061Z" fill="#FFC14D"/>
<path fill-rule="evenodd" clip-rule="evenodd" d="M430 13C429.84 14.1187 429.658 15.283 429.452 16.3332C428.014 16.3332 381.958 19.324 357.492 35.1911C325.54 55.9667 320.382 80.2809 299.225 92.1299C292.828 95.9109 285.395 97.558 278 96.8329C292.424 94.1846 304.566 84.4817 314.517 73.683C324.467 62.8842 332.775 50.6244 343.547 40.6019C366.461 19.1642 399.965 15.9908 430 13Z" fill="#CF5F1F"/>
<path fill-rule="evenodd" clip-rule="evenodd" d="M467 8.32572C464.692 20.1785 460.092 31.4816 453.452 41.6171L441.348 42.6198C435.824 57.2558 428.303 71.08 418.994 83.7103L411 84C428.158 59.7699 439.72 32.1198 444.871 3L467 8.32572Z" fill="#CF5F1F"/>
<path fill-rule="evenodd" clip-rule="evenodd" d="M420 25.6258C420 25.6258 412.71 66.9573 399.259 81.3833C385.808 95.8093 352 97 352 97L352.248 96.7252C363.877 96.3017 375.205 92.8647 385.154 86.7415C404.901 73.7811 410.611 47.1731 416.163 24L420 25.6258Z" fill="#ED9B74"/>
<path fill-rule="evenodd" clip-rule="evenodd" d="M414 83.9711C421.237 83.3028 428.474 82.783 435.733 82.3128C442.992 81.8425 450.229 81.496 457.466 81.0752C464.703 80.6544 471.962 80.4812 479.222 80.2832C486.481 80.0852 493.741 79.9614 501 80.0109C493.763 80.7287 486.526 81.2237 479.289 81.7187C472.053 82.2138 464.793 82.5355 457.534 82.9315C450.274 83.3276 443.038 83.5503 435.778 83.7236C428.519 83.8968 421.259 84.0701 414 83.9711Z" fill="#FEF4DA"/>
<path fill-rule="evenodd" clip-rule="evenodd" d="M0 105L69.009 101.427L138.041 98.1068L207.05 94.7862L241.566 93.1373L276.195 91.6259H276.036C284.103 89.2772 291.611 85.3037 298.106 79.9464C304.622 74.5736 310.542 68.5078 315.762 61.8547C326.365 48.7096 336.012 34.3737 349.755 23.8622C363.605 13.8085 379.535 7.03666 396.352 4.05289C413.077 1.15566 430.031 -0.193498 447 0.0223291C430.055 0.0508313 413.147 1.63759 396.489 4.76281C379.97 8.26665 363.816 14.3812 350.392 24.7324C336.968 35.0836 327.366 49.4195 316.763 62.7021C311.509 69.4395 305.543 75.5824 298.971 81.0228C292.357 86.5529 284.693 90.6673 276.446 93.1144H276.264L241.748 94.7633L207.232 96.2519L138.2 99.229L69.1683 102.229L0 105Z" fill="#FEF4DA"/>
<path fill-rule="evenodd" clip-rule="evenodd" d="M398 90C400.983 83.9639 404.248 78.0897 407.318 72.1462C410.484 66.2611 413.291 60.1663 415.722 53.8992C418.161 47.6318 420.229 41.2026 422.123 34.7271C424.017 28.2516 425.607 21.6605 427 15C426.248 21.7856 425.026 28.5029 423.342 35.0971C421.641 41.6948 419.599 48.1878 417.224 54.5467C414.723 60.8566 411.775 66.9564 408.407 72.7937C405.098 78.6448 401.549 84.334 398 90Z" fill="#FEF4DA"/>
<path fill-rule="evenodd" clip-rule="evenodd" d="M498 85.9375L760.837 106L762 100.914L499.756 79L498 85.9375Z" fill="#CF5F1F"/>
<path fill-rule="evenodd" clip-rule="evenodd" d="M124 402L127.5 387H676.5L680 402H124Z" fill="url(#paint8_linear_0_1005)"/>
<path fill-rule="evenodd" clip-rule="evenodd" d="M677.58 387H615.11L612 402H680L677.58 387Z" fill="#ED9B74"/>
<path fill-rule="evenodd" clip-rule="evenodd" d="M682 118L680.283 128H633.175L632 118H682Z" fill="url(#paint9_linear_0_1005)"/>
<path fill-rule="evenodd" clip-rule="evenodd" d="M674 130L663.81 388H637L639.537 164.217L639.93 130H674Z" fill="url(#paint10_linear_0_1005)"/>
<g style="mix-blend-mode:multiply">
<path fill-rule="evenodd" clip-rule="evenodd" d="M682 118L680.283 128.842H674.318L663.789 389H654.933L658.299 171.391L638.71 163.345L639.117 128.842H633.175L632 118H682Z" fill="#EDDDDD"/>
</g>
<g style="mix-blend-mode:screen">
<path fill-rule="evenodd" clip-rule="evenodd" d="M641 171L642.213 382H653.604L654 175.635L641 171Z" fill="url(#paint11_linear_0_1005)"/>
</g>
<g style="mix-blend-mode:multiply">
<path fill-rule="evenodd" clip-rule="evenodd" d="M640.045 128.03H675L674.91 130.97L640 130.31L640.045 128.03Z" fill="#EDDDDD"/>
</g>
<path fill-rule="evenodd" clip-rule="evenodd" d="M460 118L458.554 128H411.446L410 118H460Z" fill="url(#paint12_linear_0_1005)"/>
<path fill-rule="evenodd" clip-rule="evenodd" d="M451 130L447.271 388H419.729L416.494 164.217L416 130H451Z" fill="url(#paint13_linear_0_1005)"/>
<g style="mix-blend-mode:multiply">
<path fill-rule="evenodd" clip-rule="evenodd" d="M460 118L458.554 128.842H452.589L448.839 389H439.982L437.677 171.391L417.885 163.345L417.388 128.842H411.446L410 118H460Z" fill="#EDDDDD"/>
</g>
<g style="mix-blend-mode:screen">
<path fill-rule="evenodd" clip-rule="evenodd" d="M417 171L423.221 382H433L428.292 175.635L417 171Z" fill="url(#paint14_linear_0_1005)"/>
</g>
<g style="mix-blend-mode:multiply">
<path fill-rule="evenodd" clip-rule="evenodd" d="M416 128.03H451L450.978 130.97L416 130.31V128.03Z" fill="#EDDDDD"/>
</g>
<path fill-rule="evenodd" clip-rule="evenodd" d="M230 118L228.826 128H181.716L180 118H230Z" fill="url(#paint15_linear_0_1005)"/>
<path fill-rule="evenodd" clip-rule="evenodd" d="M222.213 130L225 388H198.073L189.339 164.203L188 130H222.213Z" fill="url(#paint16_linear_0_1005)"/>
<g style="mix-blend-mode:multiply">
<path fill-rule="evenodd" clip-rule="evenodd" d="M230 118L228.826 128.845H222.864L225.732 389H216.879L209.042 171.382L189.033 163.333L187.656 128.845H181.716L180 118H230Z" fill="#EDDDDD"/>
</g>
<g style="mix-blend-mode:screen">
<path fill-rule="evenodd" clip-rule="evenodd" d="M188 171L200.315 382H211L200.478 175.636L188 171Z" fill="url(#paint17_linear_0_1005)"/>
</g>
<g style="mix-blend-mode:multiply">
<path fill-rule="evenodd" clip-rule="evenodd" d="M186 128.045H220.978L221 130.955L186.045 130.325L186 128.045Z" fill="#EDDDDD"/>
</g>
<path fill-rule="evenodd" clip-rule="evenodd" d="M218.703 389.611L218.703 389.611L217.121 403.716L217.121 403.716L218.703 389.611Z" fill="#E0A7A6"/>
<g style="mix-blend-mode:screen">
<path fill-rule="evenodd" clip-rule="evenodd" d="M220.06 389.604L220.059 389.604L218.477 403.709L218.477 403.709L220.06 389.604Z" fill="#FFFDE8"/>
</g>
<path fill-rule="evenodd" clip-rule="evenodd" d="M323.346 389.611L323.345 389.61L321.763 403.715L321.764 403.716L323.346 389.611Z" fill="#E0A7A6"/>
<g style="mix-blend-mode:screen">
<path fill-rule="evenodd" clip-rule="evenodd" d="M324.702 389.603L324.702 389.603L323.119 403.708L323.12 403.708L324.702 389.603Z" fill="#FFFDE8"/>
</g>
<path fill-rule="evenodd" clip-rule="evenodd" d="M427.988 389.612L427.988 389.612L426.405 403.717L426.406 403.717L427.988 389.612Z" fill="#E0A7A6"/>
<g style="mix-blend-mode:screen">
<path fill-rule="evenodd" clip-rule="evenodd" d="M429.322 389.602L429.321 389.602L427.739 403.707L427.74 403.707L429.322 389.602Z" fill="#FFFDE8"/>
</g>
<path fill-rule="evenodd" clip-rule="evenodd" d="M532.631 389.588L532.63 389.588L531.048 403.693L531.048 403.693L532.631 389.588Z" fill="#E0A7A6"/>
<g style="mix-blend-mode:screen">
<path fill-rule="evenodd" clip-rule="evenodd" d="M533.987 389.604L533.986 389.604L532.404 403.709L532.405 403.709L533.987 389.604Z" fill="#FFFDE8"/>
</g>
<path fill-rule="evenodd" clip-rule="evenodd" d="M121 402L124.671 387.145L124.694 387.073H124.763L198.554 386.548L272.322 386.358L419.881 386L567.441 386.405L641.232 386.62L715 387.192L641.232 387.741L567.441 387.955L419.881 388.361L272.322 388.003L198.554 387.812L124.763 387.288L124.877 387.216L121 402Z" fill="#FFFDE8"/>
<path fill-rule="evenodd" clip-rule="evenodd" d="M354.964 374L357 219.615L279.043 219L276 374H354.964ZM287.054 229.759H348.184L347.02 286.493H287.054V229.759Z" fill="url(#paint18_linear_0_1005)"/>
<g style="mix-blend-mode:screen">
<path fill-rule="evenodd" clip-rule="evenodd" d="M284 221L315.54 221.549L315.889 231.176H285.311V231.634L284 221ZM303.09 376H321L317.898 288.209H292.278L303.09 376Z" fill="url(#paint19_linear_0_1005)"/>
</g>
<path fill-rule="evenodd" clip-rule="evenodd" d="M373.48 221.16L354.102 221L352 376H379L373.48 221.16Z" fill="#4D9FA1"/>
<path fill-rule="evenodd" clip-rule="evenodd" d="M313 269.631H288.616L289.48 287H286V231H313V269.631Z" fill="#4D9FA1"/>
<path fill-rule="evenodd" clip-rule="evenodd" d="M347 271L346.64 287H289.854L289 271H347Z" fill="#435669"/>
<path fill-rule="evenodd" clip-rule="evenodd" d="M295 275L295.407 280.914L311 281V275.129L295 275Z" fill="#32414F"/>
<path fill-rule="evenodd" clip-rule="evenodd" d="M292.332 280.923L292 277L308 277.115V281L292.332 280.923Z" fill="#8CC63F"/>
<path fill-rule="evenodd" clip-rule="evenodd" d="M313 275L313.693 280.914L340 281V275.129L313 275Z" fill="#32414F"/>
<path fill-rule="evenodd" clip-rule="evenodd" d="M342.581 302L342 349H345.24L346 302H342.581Z" fill="#1C818A"/>
<path fill-rule="evenodd" clip-rule="evenodd" d="M284.192 302L284 349H303.943L305 302H284.192Z" fill="#FFC14D"/>
<path fill-rule="evenodd" clip-rule="evenodd" d="M303.996 302L303 349H326L325.842 302H303.996Z" fill="url(#paint20_linear_0_1005)"/>
<path fill-rule="evenodd" clip-rule="evenodd" d="M342 302H326L326.142 349H341.474L342 302Z" fill="url(#paint21_linear_0_1005)"/>
<path fill-rule="evenodd" clip-rule="evenodd" d="M349.393 390H279.63L279 375H350L349.393 390Z" fill="url(#paint22_linear_0_1005)"/>
<path fill-rule="evenodd" clip-rule="evenodd" d="M351 390L351.591 375H376L374.708 390H351Z" fill="url(#paint23_linear_0_1005)"/>
<path fill-rule="evenodd" clip-rule="evenodd" d="M348.431 221H284.569L284 198H349L348.431 221Z" fill="url(#paint24_linear_0_1005)"/>
<path fill-rule="evenodd" clip-rule="evenodd" d="M347 221L347.557 198H370L368.798 221H347Z" fill="url(#paint25_linear_0_1005)"/>
<path fill-rule="evenodd" clip-rule="evenodd" d="M317.735 277L318.695 287H319.265V277H317.735Z" fill="#435669"/>
<path fill-rule="evenodd" clip-rule="evenodd" d="M323.75 277L324.71 287H325.25V277H323.75Z" fill="#435669"/>
<path fill-rule="evenodd" clip-rule="evenodd" d="M329.75 277L330.71 287H331.25V277H329.75Z" fill="#435669"/>
<path fill-rule="evenodd" clip-rule="evenodd" d="M333.75 277L334.71 287H335.25V277H333.75Z" fill="#435669"/>
<path fill-rule="evenodd" clip-rule="evenodd" d="M279.225 379.143L350 382V373H279L279.225 379.143Z" fill="url(#paint26_linear_0_1005)"/>
<path fill-rule="evenodd" clip-rule="evenodd" d="M318.128 221.017L327.852 221.108L337.575 220.904L357 220.473L337.575 219.748L327.874 219.385L318.15 219.317L279.301 219.023L278.475 219L278.453 219.839L276.937 296.908L276.178 335.443L276 345.076L276.067 354.733L276.268 374L277.227 354.755L277.673 345.122L277.851 335.488L278.609 296.953L280.126 220.723L318.128 221.017Z" fill="#F5FCF7"/>
<path fill-rule="evenodd" clip-rule="evenodd" d="M344.276 261.504C343.886 270.326 343.725 279.148 343.45 287.971H329.164C324.019 287.971 318.898 287.971 313.776 288.125L298.388 288.434C293.243 288.61 288.122 288.721 283 288.985C288.122 289.25 293.243 289.36 298.388 289.537L313.776 289.846C318.898 289.978 324.019 289.846 329.164 290H344.552H345.677V288.919C345.677 279.766 346.022 270.613 345.999 261.46C345.976 252.306 345.999 243.153 345.746 234C345.08 243.219 344.667 252.439 344.276 261.504Z" fill="#F5FCF7"/>
<path fill-rule="evenodd" clip-rule="evenodd" d="M289 350.464H347.925L348.703 301H352V357H291.404L289 350.464Z" fill="#4D9FA1"/>
<g style="mix-blend-mode:screen">
<path fill-rule="evenodd" clip-rule="evenodd" d="M297 198L302.645 220.854L320 221V198H297Z" fill="url(#paint27_linear_0_1005)"/>
</g>
<path fill-rule="evenodd" clip-rule="evenodd" d="M323.974 302L326 349H324.605L322 302H323.974Z" fill="url(#paint28_linear_0_1005)"/>
<path fill-rule="evenodd" clip-rule="evenodd" d="M300.195 302L302 349H300.124L298 302.537L300.195 302Z" fill="#CF5F1F"/>
<path fill-rule="evenodd" clip-rule="evenodd" d="M330.397 301H283.05V301.565V326.271C283.05 330.385 282.938 334.522 283.05 338.636L283.5 351L284.039 338.636C284.197 334.522 284.039 330.408 284.152 326.271V302.13H330.397C335.591 302.13 340.807 301.746 346 301.565C340.807 301.429 335.591 301.113 330.397 301Z" fill="#ECECEC"/>
<path fill-rule="evenodd" clip-rule="evenodd" d="M299.075 302L300.605 349L301.925 302H299.075Z" fill="#ECECEC"/>
<path fill-rule="evenodd" clip-rule="evenodd" d="M325.46 302L325.67 349L323.33 302H325.46Z" fill="#ECECEC"/>
<rect width="9" height="23" transform="matrix(1 0 0 -1 287 337)" fill="#32414F"/>
<path fill-rule="evenodd" clip-rule="evenodd" d="M288 318L289.719 334H292L290.911 318H288Z" fill="url(#paint29_linear_0_1005)"/>
<path fill-rule="evenodd" clip-rule="evenodd" d="M293.759 231.023C293.154 243.555 289.554 255.715 283.3 266.347C277.36 276.738 270.387 286.533 265.825 297.635C261.263 308.737 259.067 321.697 263.156 333.028C265.308 339.153 272.561 349.979 279.598 344.497C281.936 342.42 283.6 339.611 284.355 336.469C285.431 332.845 285.301 329.587 288.099 327.156C288.099 326.284 288.53 324.862 286.916 324.082C285.301 323.302 283.515 328.486 283.365 329.45C283.195 332.442 282.265 335.328 280.674 337.799C279.481 339.858 277.403 341.146 275.134 341.234C272.866 341.322 270.705 340.197 269.376 338.235C266.707 334.598 265.051 330.234 264.598 325.642C263.135 314.357 266.75 302.956 271.958 292.956C277.167 282.955 283.687 273.848 288.723 263.801C293.759 253.754 297.332 242.263 295.524 231L293.759 231.023Z" fill="#84AFBD"/>
<path fill-rule="evenodd" clip-rule="evenodd" d="M296.77 231.023C296.157 243.557 292.55 255.717 286.291 266.347C280.352 276.738 273.38 286.533 268.819 297.635C264.257 308.737 262.062 321.697 266.172 333.028C268.324 339.153 275.554 349.979 282.59 344.497C284.933 342.426 286.599 339.615 287.345 336.469C288.442 332.845 288.313 329.587 291.111 327.156C291.111 326.284 291.519 324.862 289.906 324.082C288.292 323.302 286.506 328.486 286.377 329.45C286.2 332.444 285.263 335.33 283.666 337.799C282.336 339.847 280.189 341.119 277.856 341.24C275.718 341.104 273.734 340.013 272.391 338.235C269.714 334.603 268.057 330.237 267.614 325.642C266.129 314.357 269.765 302.956 274.951 292.956C280.137 282.955 286.678 273.848 291.735 263.801C296.791 253.754 300.342 242.263 298.513 231L296.77 231.023Z" fill="#32414F"/>
<path fill-rule="evenodd" clip-rule="evenodd" d="M289 318H293V334H290.718L289 318Z" fill="url(#paint30_linear_0_1005)"/>
<path fill-rule="evenodd" clip-rule="evenodd" d="M301.239 238H292.761L292 234H302L301.239 238Z" fill="#32414F"/>
<rect width="9" height="23" transform="matrix(1 0 0 -1 309 337)" fill="#32414F"/>
<path fill-rule="evenodd" clip-rule="evenodd" d="M309 318L310.719 334H313L311.911 318H309Z" fill="url(#paint31_linear_0_1005)"/>
<path fill-rule="evenodd" clip-rule="evenodd" d="M314.759 231.023C314.146 243.557 310.54 255.717 304.283 266.347C298.368 276.738 291.377 286.533 286.817 297.635C282.257 308.737 280.063 321.697 284.171 333.028C286.322 339.153 293.571 349.979 300.584 344.497C302.933 342.433 304.6 339.619 305.337 336.469C306.434 332.845 306.305 329.587 309.101 327.156C309.101 326.284 309.51 324.862 307.918 324.082C306.327 323.302 304.52 328.486 304.369 329.45C304.2 332.442 303.271 335.328 301.681 337.799C300.488 339.858 298.411 341.146 296.143 341.234C293.876 341.322 291.717 340.197 290.388 338.235C287.72 334.598 286.065 330.234 285.613 325.642C284.128 314.357 287.764 302.956 292.969 292.956C298.174 282.955 304.67 273.848 309.725 263.801C314.78 253.754 318.329 242.263 316.522 231L314.759 231.023Z" fill="#84AFBD"/>
<path fill-rule="evenodd" clip-rule="evenodd" d="M316.759 231.023C316.163 243.557 312.562 255.719 306.3 266.347C300.36 276.738 293.387 286.533 288.825 297.635C284.263 308.737 282.067 321.697 286.156 333.028C288.308 339.153 295.561 349.979 302.598 344.497C304.936 342.42 306.6 339.611 307.355 336.469C308.431 332.845 308.323 329.587 311.121 327.156C311.013 326.284 311.53 324.862 309.916 324.082C308.301 323.302 306.515 328.486 306.386 329.45C306.209 332.444 305.272 335.33 303.674 337.799C302.341 339.842 300.195 341.112 297.864 341.24C295.72 341.102 293.729 340.012 292.376 338.235C289.716 334.593 288.061 330.232 287.598 325.642C286.135 314.357 289.75 302.956 294.958 292.956C300.167 282.955 306.687 273.848 311.723 263.801C316.759 253.754 320.332 242.263 318.524 231L316.759 231.023Z" fill="#32414F"/>
<path fill-rule="evenodd" clip-rule="evenodd" d="M311 318H315V334H312.718L311 318Z" fill="url(#paint32_linear_0_1005)"/>
<path fill-rule="evenodd" clip-rule="evenodd" d="M322.239 238H313.761L313 234H323L322.239 238Z" fill="#32414F"/>
<rect width="9" height="23" transform="matrix(1 0 0 -1 330 337)" fill="#32414F"/>
<path fill-rule="evenodd" clip-rule="evenodd" d="M328 318L329.729 334H332L330.915 318H328Z" fill="url(#paint33_linear_0_1005)"/>
<path fill-rule="evenodd" clip-rule="evenodd" d="M336.77 231.023C336.157 243.557 332.55 255.717 326.291 266.347C320.374 276.738 313.38 286.533 308.819 297.635C304.257 308.737 302.062 321.697 306.172 333.028C308.324 339.153 315.554 349.979 322.59 344.497C324.94 342.433 326.607 339.619 327.345 336.469C328.442 332.845 328.313 329.587 331.111 327.156C331.111 326.284 331.519 324.862 329.906 324.082C328.292 323.302 326.506 328.486 326.377 329.45C326.198 332.44 325.269 335.323 323.687 337.799C322.494 339.858 320.417 341.146 318.148 341.234C315.88 341.322 313.72 340.197 312.391 338.235C309.714 334.603 308.057 330.237 307.614 325.642C306.129 314.357 309.765 302.956 314.973 292.956C320.18 282.955 326.678 273.848 331.735 263.801C336.791 253.754 340.342 242.263 338.513 231L336.77 231.023Z" fill="#84AFBD"/>
<path fill-rule="evenodd" clip-rule="evenodd" d="M336.759 231.023C336.144 243.553 332.544 255.71 326.3 266.347C320.36 276.738 313.387 286.533 308.825 297.635C304.263 308.737 302.067 321.697 306.156 333.028C308.308 339.153 315.561 349.979 322.598 344.497C324.936 342.42 326.6 339.611 327.355 336.469C328.431 332.845 328.301 329.587 331.099 327.156C331.099 326.284 331.53 324.862 329.916 324.082C328.301 323.302 326.515 328.486 326.365 329.45C326.195 332.442 325.265 335.328 323.674 337.799C322.481 339.858 320.403 341.146 318.134 341.234C315.866 341.322 313.705 340.197 312.376 338.235C309.707 334.598 308.051 330.234 307.598 325.642C306.135 314.357 309.75 302.956 314.958 292.956C320.167 282.955 326.687 273.848 331.723 263.801C336.759 253.754 340.332 242.263 338.524 231L336.759 231.023Z" fill="#32414F"/>
<path fill-rule="evenodd" clip-rule="evenodd" d="M332 318H336V334H333.718L332 318Z" fill="url(#paint34_linear_0_1005)"/>
<path fill-rule="evenodd" clip-rule="evenodd" d="M341.241 238H332.759L332 234H342L341.241 238Z" fill="#32414F"/>
<path fill-rule="evenodd" clip-rule="evenodd" d="M579.007 376L581 221.501L502.888 221L500 376H579.007ZM511.015 231.645H572.179L571.015 288.379H511.015V231.645Z" fill="url(#paint35_linear_0_1005)"/>
<g style="mix-blend-mode:screen">
<path fill-rule="evenodd" clip-rule="evenodd" d="M507 221L538.494 221.549L538.776 231.176H508.306V231.634L507 221ZM526.153 376H544L540.844 288.209H515.271L526.153 376Z" fill="url(#paint36_linear_0_1005)"/>
</g>
<path fill-rule="evenodd" clip-rule="evenodd" d="M599.48 221.16L580.102 221L578 376H605L599.48 221.16Z" fill="#4D9FA1"/>
<path fill-rule="evenodd" clip-rule="evenodd" d="M537 269.631H512.616L513.48 287H510V231H537V269.631Z" fill="#4D9FA1"/>
<path fill-rule="evenodd" clip-rule="evenodd" d="M569 271L568.64 287H511.854L511 271H569Z" fill="#435669"/>
<path fill-rule="evenodd" clip-rule="evenodd" d="M518 275L518.407 280.914L534 281V275.129L518 275Z" fill="#32414F"/>
<path fill-rule="evenodd" clip-rule="evenodd" d="M516.332 280.923L516 277L532 277.115V281L516.332 280.923Z" fill="#8CC63F"/>
<path fill-rule="evenodd" clip-rule="evenodd" d="M536 275L536.693 280.914L563 281V275.129L536 275Z" fill="#32414F"/>
<path fill-rule="evenodd" clip-rule="evenodd" d="M566.581 302L566 349H569.24L570 302H566.581Z" fill="#1C818A"/>
<path fill-rule="evenodd" clip-rule="evenodd" d="M507.192 302L507 349H526.943L528 302H507.192Z" fill="#FFC14D"/>
<path fill-rule="evenodd" clip-rule="evenodd" d="M526.996 302L526 349H549L548.842 302H526.996Z" fill="url(#paint37_linear_0_1005)"/>
<path fill-rule="evenodd" clip-rule="evenodd" d="M566 302H550L550.142 349H565.474L566 302Z" fill="url(#paint38_linear_0_1005)"/>
<path fill-rule="evenodd" clip-rule="evenodd" d="M573.37 390H503.63L503 375H574L573.37 390Z" fill="url(#paint39_linear_0_1005)"/>
<path fill-rule="evenodd" clip-rule="evenodd" d="M574 390L574.613 375H599L597.708 390H574Z" fill="url(#paint40_linear_0_1005)"/>
<path fill-rule="evenodd" clip-rule="evenodd" d="M571.431 221H507.592L507 198H572L571.431 221Z" fill="url(#paint41_linear_0_1005)"/>
<path fill-rule="evenodd" clip-rule="evenodd" d="M570 221L570.557 198H593L591.798 221H570Z" fill="url(#paint42_linear_0_1005)"/>
<path fill-rule="evenodd" clip-rule="evenodd" d="M541.75 277L542.68 287H543.25V277H541.75Z" fill="#435669"/>
<path fill-rule="evenodd" clip-rule="evenodd" d="M547.735 277L548.695 287H549.265V277H547.735Z" fill="#435669"/>
<path fill-rule="evenodd" clip-rule="evenodd" d="M553.735 277L554.695 287H555.265V277H553.735Z" fill="#435669"/>
<path fill-rule="evenodd" clip-rule="evenodd" d="M560.735 277L561.695 287H562.265V277H560.735Z" fill="#435669"/>
<path fill-rule="evenodd" clip-rule="evenodd" d="M503.225 379.143L574 382V373H503L503.225 379.143Z" fill="url(#paint43_linear_0_1005)"/>
<path fill-rule="evenodd" clip-rule="evenodd" d="M542.15 221.017L551.852 221.108L561.575 220.904L581 220.473L561.575 219.748L551.874 219.385L542.15 219.317L503.301 219.023L502.475 219L502.453 219.839L500.937 296.908L500.178 335.443L500 345.076L500.067 354.733L500.268 374L501.227 354.755L501.673 345.122L501.851 335.488L502.609 296.953L504.126 220.723L542.15 221.017Z" fill="#F5FCF7"/>
<path fill-rule="evenodd" clip-rule="evenodd" d="M568.343 261.416C567.953 270.238 567.792 279.06 567.516 287.883H553.215C548.087 287.883 542.937 287.883 537.81 288.037L522.405 288.346C517.278 288.522 512.127 288.633 507 288.897C512.127 289.162 517.278 289.272 522.405 289.449L537.741 289.846C542.868 289.978 548.018 289.846 553.146 290H568.55H569.677V288.919C569.677 279.766 570.022 270.613 569.999 261.46C569.976 252.306 569.999 243.153 569.746 234C569.148 243.131 568.734 252.351 568.343 261.416Z" fill="#F5FCF7"/>
<path fill-rule="evenodd" clip-rule="evenodd" d="M512 350.464H570.904L571.682 301H575V357H514.403L512 350.464Z" fill="#4D9FA1"/>
<g style="mix-blend-mode:screen">
<path fill-rule="evenodd" clip-rule="evenodd" d="M520 198L525.662 220.854L543 221V198H520Z" fill="url(#paint44_linear_0_1005)"/>
</g>
<path fill-rule="evenodd" clip-rule="evenodd" d="M548.974 302L551 349H549.632L547 302H548.974Z" fill="url(#paint45_linear_0_1005)"/>
<path fill-rule="evenodd" clip-rule="evenodd" d="M524.195 302L526 349H524.159L522 302.537L524.195 302Z" fill="#CF5F1F"/>
<path fill-rule="evenodd" clip-rule="evenodd" d="M554.385 301H507V301.565V326.271C507 330.385 507 334.522 507 338.636L507.45 351L507.99 338.636C508.148 334.522 507.99 330.408 507.99 326.271V302.13H554.385C559.583 302.13 564.802 301.746 570 301.565C564.802 301.429 559.583 301.113 554.385 301Z" fill="#ECECEC"/>
<path fill-rule="evenodd" clip-rule="evenodd" d="M526.075 302L527.605 349L528.925 302H526.075Z" fill="#ECECEC"/>
<path fill-rule="evenodd" clip-rule="evenodd" d="M549.46 302L549.67 349L547.33 302H549.46Z" fill="#ECECEC"/>
<rect width="9" height="23" transform="matrix(1 0 0 -1 514 337)" fill="#32414F"/>
<path fill-rule="evenodd" clip-rule="evenodd" d="M512 318L513.719 334H516L514.911 318H512Z" fill="url(#paint46_linear_0_1005)"/>
<path fill-rule="evenodd" clip-rule="evenodd" d="M517.719 231C517.124 243.537 513.527 255.701 507.273 266.332C501.34 276.725 494.376 286.521 489.819 297.625C485.262 308.729 483.07 321.692 487.154 333.026C489.303 339.151 496.547 349.98 503.576 344.497C505.91 342.419 507.572 339.61 508.326 336.467C509.401 332.842 509.293 329.584 512.087 327.152C512.087 326.28 512.496 324.858 510.884 324.078C509.272 323.298 507.488 328.483 507.359 329.447C507.182 332.441 506.246 335.328 504.65 337.798C503.313 339.847 501.162 341.118 498.825 341.239C496.698 341.109 494.719 340.036 493.366 338.279C490.72 334.625 489.083 330.255 488.637 325.661C487.175 314.373 490.786 302.971 495.988 292.968C501.19 282.965 507.703 273.857 512.732 263.808C517.762 253.759 521.33 242.265 519.525 231H517.719Z" fill="#84AFBD"/>
<path fill-rule="evenodd" clip-rule="evenodd" d="M519.77 231.023C519.157 243.557 515.55 255.717 509.291 266.347C503.374 276.738 496.38 286.533 491.819 297.635C487.257 308.737 485.062 321.697 489.172 333.028C491.324 339.153 498.554 349.979 505.59 344.497C507.94 342.433 509.607 339.619 510.345 336.469C511.442 332.845 511.313 329.587 514.111 327.156C514.111 326.284 514.519 324.862 512.906 324.082C511.292 323.302 509.506 328.486 509.377 329.45C509.198 332.44 508.269 335.323 506.687 337.799C505.494 339.858 503.417 341.146 501.148 341.234C498.88 341.322 496.72 340.197 495.391 338.235C492.714 334.603 491.057 330.237 490.614 325.642C489.129 314.357 492.765 302.956 497.973 292.956C503.18 282.955 509.678 273.848 514.735 263.801C519.791 253.754 523.342 242.263 521.513 231L519.77 231.023Z" fill="#32414F"/>
<path fill-rule="evenodd" clip-rule="evenodd" d="M513 318H517V334H514.718L513 318Z" fill="url(#paint47_linear_0_1005)"/>
<path fill-rule="evenodd" clip-rule="evenodd" d="M525.219 238H516.759L516 234H526L525.219 238Z" fill="#32414F"/>
<rect width="9" height="23" transform="matrix(1 0 0 -1 532 337)" fill="#32414F"/>
<path fill-rule="evenodd" clip-rule="evenodd" d="M532 318L533.719 334H536L534.911 318H532Z" fill="url(#paint48_linear_0_1005)"/>
<path fill-rule="evenodd" clip-rule="evenodd" d="M538.717 231C538.103 243.533 534.508 255.692 528.272 266.332C522.339 276.725 515.375 286.521 510.819 297.625C506.262 308.729 504.07 321.692 508.154 333.026C510.303 339.151 517.546 349.98 524.553 344.497C526.9 342.427 528.571 339.615 529.325 336.467C530.399 332.842 530.27 329.584 533.065 327.152C533.065 326.28 533.494 324.858 531.882 324.078C530.27 323.298 528.486 328.483 528.336 329.447C528.167 332.439 527.238 335.326 525.649 337.798C524.458 339.857 522.382 341.146 520.116 341.233C517.85 341.321 515.693 340.195 514.365 338.234C511.718 334.597 510.08 330.241 509.637 325.661C508.175 314.373 511.786 302.971 516.987 292.968C522.189 282.965 528.68 273.857 533.731 263.808C538.782 253.759 542.328 242.265 540.523 231H538.717Z" fill="#84AFBD"/>
<path fill-rule="evenodd" clip-rule="evenodd" d="M539.759 231.023C539.163 243.557 535.562 255.719 529.3 266.347C523.36 276.738 516.387 286.533 511.825 297.635C507.263 308.737 505.067 321.697 509.156 333.028C511.308 339.153 518.561 349.979 525.598 344.497C527.936 342.42 529.6 339.611 530.355 336.469C531.431 332.845 531.323 329.587 534.121 327.156C534.121 326.284 534.53 324.862 532.916 324.082C531.301 323.302 529.515 328.486 529.386 329.45C529.209 332.444 528.272 335.33 526.674 337.799C525.345 339.847 523.197 341.119 520.864 341.24C518.72 341.102 516.729 340.012 515.376 338.235C512.713 334.596 511.065 330.232 510.62 325.642C509.135 314.357 512.772 302.956 517.958 292.956C523.145 282.955 529.687 273.848 534.723 263.801C539.759 253.754 543.332 242.263 541.524 231L539.759 231.023Z" fill="#32414F"/>
<path fill-rule="evenodd" clip-rule="evenodd" d="M534 318H538V334H535.718L534 318Z" fill="url(#paint49_linear_0_1005)"/>
<path fill-rule="evenodd" clip-rule="evenodd" d="M546.239 238H537.761L537 234H547L546.239 238Z" fill="#32414F"/>
<rect width="9" height="23" transform="matrix(1 0 0 -1 554 337)" fill="#32414F"/>
<path fill-rule="evenodd" clip-rule="evenodd" d="M553 318L554.719 334H557L555.911 318H553Z" fill="url(#paint50_linear_0_1005)"/>
<path fill-rule="evenodd" clip-rule="evenodd" d="M558.729 231C558.118 243.537 554.515 255.699 548.263 266.332C542.353 276.725 535.369 286.521 530.813 297.625C526.257 308.729 524.065 321.692 528.169 333.026C530.319 339.151 537.539 349.98 544.567 344.497C546.915 342.432 548.579 339.617 549.316 336.467C550.412 332.842 550.284 329.584 553.077 327.152C553.077 326.28 553.486 324.858 551.895 324.078C550.305 323.298 548.478 328.483 548.349 329.447C548.171 332.437 547.243 335.321 545.663 337.798C544.472 339.857 542.396 341.146 540.131 341.233C537.865 341.321 535.708 340.195 534.38 338.234C531.726 334.602 530.087 330.244 529.652 325.661C528.169 314.373 531.801 302.971 537.002 292.968C542.203 282.965 548.693 273.857 553.744 263.808C558.794 253.759 562.34 242.265 560.513 231H558.729Z" fill="#84AFBD"/>
<path fill-rule="evenodd" clip-rule="evenodd" d="M561.673 231.023C561.094 243.547 557.523 255.706 551.3 266.347C545.36 276.738 538.387 286.533 533.825 297.635C529.263 308.737 527.067 321.697 531.156 333.028C533.308 339.153 540.561 349.979 547.598 344.497C549.936 342.42 551.6 339.611 552.355 336.469C553.431 332.845 553.301 329.587 556.099 327.156C556.099 326.284 556.53 324.862 554.916 324.082C553.301 323.302 551.515 328.486 551.365 329.45C551.195 332.442 550.265 335.328 548.674 337.799C547.481 339.858 545.403 341.146 543.134 341.234C540.866 341.322 538.705 340.197 537.376 338.235C534.707 334.598 533.051 330.234 532.598 325.642C531.135 314.357 534.75 302.956 539.958 292.956C545.167 282.955 551.687 273.848 556.723 263.801C561.759 253.754 565.332 242.263 563.524 231L561.673 231.023Z" fill="#32414F"/>
<path fill-rule="evenodd" clip-rule="evenodd" d="M556 318H560V334H557.718L556 318Z" fill="url(#paint51_linear_0_1005)"/>
<path fill-rule="evenodd" clip-rule="evenodd" d="M566.241 238H557.781L557 234H567L566.241 238Z" fill="#32414F"/>
<defs>
<linearGradient id="paint0_linear_0_1005" x1="1186.25" y1="-60.6779" x2="1192.65" y2="283.571" gradientUnits="userSpaceOnUse">
<stop stop-color="#FF8652"/>
<stop offset="1" stop-color="#C71E53"/>
</linearGradient>
<linearGradient id="paint1_linear_0_1005" x1="237.156" y1="-5.50747" x2="245.361" y2="113.361" gradientUnits="userSpaceOnUse">
<stop stop-color="#4E6952"/>
<stop offset="0.16" stop-color="#49624D"/>
<stop offset="0.39" stop-color="#3B503E"/>
<stop offset="0.66" stop-color="#253127"/>
<stop offset="0.95" stop-color="#060706"/>
<stop offset="1"/>
</linearGradient>
<linearGradient id="paint2_linear_0_1005" x1="92.571" y1="149.566" x2="92.139" y2="62.0705" gradientUnits="userSpaceOnUse">
<stop stop-color="#DB324F"/>
<stop offset="1" stop-color="#B3155C"/>
</linearGradient>
<linearGradient id="paint3_linear_0_1005" x1="239.659" y1="148.372" x2="258.806" y2="5.66569" gradientUnits="userSpaceOnUse">
<stop stop-color="#DB324F"/>
<stop offset="1" stop-color="#B3155C"/>
</linearGradient>
<linearGradient id="paint4_linear_0_1005" x1="249.258" y1="108.626" x2="279.626" y2="14.0016" gradientUnits="userSpaceOnUse">
<stop stop-color="#DB324F"/>
<stop offset="1" stop-color="#B3155C"/>
</linearGradient>
<linearGradient id="paint5_linear_0_1005" x1="-102.693" y1="245.668" x2="-99.5758" y2="5.22116" gradientUnits="userSpaceOnUse">
<stop stop-color="#DB324F"/>
<stop offset="1" stop-color="#B3155C"/>
</linearGradient>
<linearGradient id="paint6_linear_0_1005" x1="335.052" y1="6.54785" x2="337.421" y2="132.167" gradientUnits="userSpaceOnUse">
<stop stop-color="#DB324F"/>
<stop offset="1" stop-color="#B3155C"/>
</linearGradient>
<linearGradient id="paint7_linear_0_1005" x1="305.371" y1="183.606" x2="275.463" y2="30.9698" gradientUnits="userSpaceOnUse">
<stop stop-color="#FA8C6E"/>
<stop offset="0.35" stop-color="#F2C785"/>
<stop offset="0.4" stop-color="#F3CB8C"/>
<stop offset="0.8" stop-color="#FBE8C4"/>
<stop offset="1" stop-color="#FEF4DA"/>
</linearGradient>
<linearGradient id="paint8_linear_0_1005" x1="124" y1="386.988" x2="680.021" y2="386.988" gradientUnits="userSpaceOnUse">
<stop stop-color="#FEF4DA"/>
<stop offset="0.3" stop-color="#FBE8C4"/>
<stop offset="0.93" stop-color="#F3CB8C"/>
<stop offset="1" stop-color="#F2C785"/>
</linearGradient>
<linearGradient id="paint9_linear_0_1005" x1="626.257" y1="115.299" x2="689.977" y2="138.927" gradientUnits="userSpaceOnUse">
<stop stop-color="#FFF3D6"/>
<stop offset="0.18" stop-color="#F8F1D9"/>
<stop offset="0.44" stop-color="#E5EDE2"/>
<stop offset="0.75" stop-color="#C7E5F1"/>
<stop offset="1" stop-color="#A8DDFF"/>
</linearGradient>
<linearGradient id="paint10_linear_0_1005" x1="156.066" y1="426.426" x2="108.044" y2="426.426" gradientUnits="userSpaceOnUse">
<stop stop-color="#FFF3D6"/>
<stop offset="0.18" stop-color="#F8F1D9"/>
<stop offset="0.44" stop-color="#E5EDE2"/>
<stop offset="0.75" stop-color="#C7E5F1"/>
<stop offset="1" stop-color="#A8DDFF"/>
</linearGradient>
<linearGradient id="paint11_linear_0_1005" x1="652.828" y1="164.448" x2="720.21" y2="185.612" gradientUnits="userSpaceOnUse">
<stop stop-color="#D2E3B6"/>
<stop offset="0.1" stop-color="#CCDCB1"/>
<stop offset="0.23" stop-color="#BBCAA2"/>
<stop offset="0.39" stop-color="#9EAB89"/>
<stop offset="0.57" stop-color="#778167"/>
<stop offset="0.77" stop-color="#454A3C"/>
<stop offset="0.97" stop-color="#080907"/>
<stop offset="1"/>
</linearGradient>
<linearGradient id="paint12_linear_0_1005" x1="404.856" y1="115.295" x2="468.613" y2="138.926" gradientUnits="userSpaceOnUse">
<stop stop-color="#FFF3D6"/>
<stop offset="0.18" stop-color="#F8F1D9"/>
<stop offset="0.44" stop-color="#E5EDE2"/>
<stop offset="0.75" stop-color="#C7E5F1"/>
<stop offset="1" stop-color="#A8DDFF"/>
</linearGradient>
<linearGradient id="paint13_linear_0_1005" x1="409.8" y1="77.1746" x2="459.132" y2="77.1746" gradientUnits="userSpaceOnUse">
<stop stop-color="#FFF3D6"/>
<stop offset="0.18" stop-color="#F8F1D9"/>
<stop offset="0.44" stop-color="#E5EDE2"/>
<stop offset="0.75" stop-color="#C7E5F1"/>
<stop offset="1" stop-color="#A8DDFF"/>
</linearGradient>
<linearGradient id="paint14_linear_0_1005" x1="430.825" y1="129.251" x2="472.593" y2="135.507" gradientUnits="userSpaceOnUse">
<stop stop-color="#D2E3B6"/>
<stop offset="0.1" stop-color="#CCDCB1"/>
<stop offset="0.23" stop-color="#BBCAA2"/>
<stop offset="0.39" stop-color="#9EAB89"/>
<stop offset="0.57" stop-color="#778167"/>
<stop offset="0.77" stop-color="#454A3C"/>
<stop offset="0.97" stop-color="#080907"/>
<stop offset="1"/>
</linearGradient>
<linearGradient id="paint15_linear_0_1005" x1="175.47" y1="115.295" x2="239.23" y2="138.926" gradientUnits="userSpaceOnUse">
<stop stop-color="#FFF3D6"/>
<stop offset="0.18" stop-color="#F8F1D9"/>
<stop offset="0.44" stop-color="#E5EDE2"/>
<stop offset="0.75" stop-color="#C7E5F1"/>
<stop offset="1" stop-color="#A8DDFF"/>
</linearGradient>
<linearGradient id="paint16_linear_0_1005" x1="186.215" y1="91.035" x2="234.407" y2="91.035" gradientUnits="userSpaceOnUse">
<stop stop-color="#FFF3D6"/>
<stop offset="0.18" stop-color="#F8F1D9"/>
<stop offset="0.44" stop-color="#E5EDE2"/>
<stop offset="0.75" stop-color="#C7E5F1"/>
<stop offset="1" stop-color="#A8DDFF"/>
</linearGradient>
<linearGradient id="paint17_linear_0_1005" x1="207.292" y1="111.241" x2="259.538" y2="119.8" gradientUnits="userSpaceOnUse">
<stop stop-color="#D2E3B6"/>
<stop offset="0.1" stop-color="#CCDCB1"/>
<stop offset="0.23" stop-color="#BBCAA2"/>
<stop offset="0.39" stop-color="#9EAB89"/>
<stop offset="0.57" stop-color="#778167"/>
<stop offset="0.77" stop-color="#454A3C"/>
<stop offset="0.97" stop-color="#080907"/>
<stop offset="1"/>
</linearGradient>
<linearGradient id="paint18_linear_0_1005" x1="358.067" y1="206.296" x2="364.369" y2="368.8" gradientUnits="userSpaceOnUse">
<stop stop-color="#CEE8D8"/>
<stop offset="0.66" stop-color="#6FB0B5"/>
<stop offset="0.73" stop-color="#73B2B6"/>
<stop offset="0.8" stop-color="#7FB9BB"/>
<stop offset="0.87" stop-color="#93C5C2"/>
<stop offset="0.94" stop-color="#AFD6CD"/>
<stop offset="1" stop-color="#CEE8D8"/>
</linearGradient>
<linearGradient id="paint19_linear_0_1005" x1="319.095" y1="121.247" x2="419.597" y2="152.485" gradientUnits="userSpaceOnUse">
<stop stop-color="#4E6952"/>
<stop offset="0.16" stop-color="#49624D"/>
<stop offset="0.39" stop-color="#3B503E"/>
<stop offset="0.66" stop-color="#253127"/>
<stop offset="0.95" stop-color="#060706"/>
<stop offset="1"/>
</linearGradient>
<linearGradient id="paint20_linear_0_1005" x1="335.201" y1="299.786" x2="319.648" y2="373.789" gradientUnits="userSpaceOnUse">
<stop stop-color="#FF8652"/>
<stop offset="1" stop-color="#C71E53"/>
</linearGradient>
<linearGradient id="paint21_linear_0_1005" x1="343.363" y1="294.285" x2="345.629" y2="349.628" gradientUnits="userSpaceOnUse">
<stop offset="0.01" stop-color="#92CE66"/>
<stop offset="0.19" stop-color="#8ECD69"/>
<stop offset="0.38" stop-color="#81CC73"/>
<stop offset="0.58" stop-color="#6BC984"/>
<stop offset="0.79" stop-color="#4CC49B"/>
<stop offset="1" stop-color="#26BFB8"/>
</linearGradient>
<linearGradient id="paint22_linear_0_1005" x1="318.523" y1="385.904" x2="329.304" y2="341.938" gradientUnits="userSpaceOnUse">
<stop stop-color="#FA8C6E"/>
<stop offset="0.35" stop-color="#F2C785"/>
<stop offset="0.4" stop-color="#F3CB8C"/>
<stop offset="0.8" stop-color="#FBE8C4"/>
<stop offset="1" stop-color="#FEF4DA"/>
</linearGradient>
<linearGradient id="paint23_linear_0_1005" x1="361.591" y1="428.795" x2="305.849" y2="353.496" gradientUnits="userSpaceOnUse">
<stop stop-color="#FA8C6E"/>
<stop offset="1" stop-color="#F2C785"/>
</linearGradient>
<linearGradient id="paint24_linear_0_1005" x1="425.477" y1="179.643" x2="435.23" y2="273.145" gradientUnits="userSpaceOnUse">
<stop stop-color="#FF8652"/>
<stop offset="1" stop-color="#C71E53"/>
</linearGradient>
<linearGradient id="paint25_linear_0_1005" x1="414.241" y1="221.012" x2="391.241" y2="221.012" gradientUnits="userSpaceOnUse">
<stop stop-color="#DB324F"/>
<stop offset="1" stop-color="#B3155C"/>
</linearGradient>
<linearGradient id="paint26_linear_0_1005" x1="150.166" y1="414.757" x2="151.812" y2="356.613" gradientUnits="userSpaceOnUse">
<stop stop-color="#FA8C6E"/>
<stop offset="1" stop-color="#F2C785"/>
</linearGradient>
<linearGradient id="paint27_linear_0_1005" x1="325.804" y1="180.59" x2="330.184" y2="218.664" gradientUnits="userSpaceOnUse">
<stop stop-color="#4E6952"/>
<stop offset="0.16" stop-color="#49624D"/>
<stop offset="0.39" stop-color="#3B503E"/>
<stop offset="0.66" stop-color="#253127"/>
<stop offset="0.95" stop-color="#060706"/>
<stop offset="1"/>
</linearGradient>
<linearGradient id="paint28_linear_0_1005" x1="456.987" y1="352.324" x2="447.588" y2="350.125" gradientUnits="userSpaceOnUse">
<stop stop-color="#DB324F"/>
<stop offset="1" stop-color="#B3155C"/>
</linearGradient>
<linearGradient id="paint29_linear_0_1005" x1="292.321" y1="304.796" x2="307.484" y2="317.108" gradientUnits="userSpaceOnUse">
<stop stop-color="#FEF4DA"/>
<stop offset="0.38" stop-color="#F9E0B4"/>
<stop offset="0.78" stop-color="#F4CE92"/>
<stop offset="1" stop-color="#F2C785"/>
</linearGradient>
<linearGradient id="paint30_linear_0_1005" x1="494.172" y1="333.208" x2="508.051" y2="326.557" gradientUnits="userSpaceOnUse">
<stop stop-color="#FA8C6E"/>
<stop offset="1" stop-color="#F2C785"/>
</linearGradient>
<linearGradient id="paint31_linear_0_1005" x1="422.257" y1="313.477" x2="407.09" y2="325.889" gradientUnits="userSpaceOnUse">
<stop stop-color="#FEF4DA"/>
<stop offset="0.38" stop-color="#F9E0B4"/>
<stop offset="0.78" stop-color="#F4CE92"/>
<stop offset="1" stop-color="#F2C785"/>
</linearGradient>
<linearGradient id="paint32_linear_0_1005" x1="467.85" y1="333.208" x2="481.729" y2="326.557" gradientUnits="userSpaceOnUse">
<stop stop-color="#FA8C6E"/>
<stop offset="1" stop-color="#F2C785"/>
</linearGradient>
<linearGradient id="paint33_linear_0_1005" x1="410.318" y1="313.492" x2="395.152" y2="325.858" gradientUnits="userSpaceOnUse">
<stop stop-color="#FEF4DA"/>
<stop offset="0.38" stop-color="#F9E0B4"/>
<stop offset="0.78" stop-color="#F4CE92"/>
<stop offset="1" stop-color="#F2C785"/>
</linearGradient>
<linearGradient id="paint34_linear_0_1005" x1="440.528" y1="333.208" x2="454.407" y2="326.557" gradientUnits="userSpaceOnUse">
<stop stop-color="#FA8C6E"/>
<stop offset="1" stop-color="#F2C785"/>
</linearGradient>
<linearGradient id="paint35_linear_0_1005" x1="275.104" y1="211.48" x2="268.799" y2="373.984" gradientUnits="userSpaceOnUse">
<stop stop-color="#CEE8D8"/>
<stop offset="0.66" stop-color="#6FB0B5"/>
<stop offset="0.73" stop-color="#73B2B6"/>
<stop offset="0.8" stop-color="#7FB9BB"/>
<stop offset="0.87" stop-color="#93C5C2"/>
<stop offset="0.94" stop-color="#AFD6CD"/>
<stop offset="1" stop-color="#CEE8D8"/>
</linearGradient>
<linearGradient id="paint36_linear_0_1005" x1="542.13" y1="121.504" x2="642.657" y2="152.844" gradientUnits="userSpaceOnUse">
<stop stop-color="#4E6952"/>
<stop offset="0.16" stop-color="#49624D"/>
<stop offset="0.39" stop-color="#3B503E"/>
<stop offset="0.66" stop-color="#253127"/>
<stop offset="0.95" stop-color="#060706"/>
<stop offset="1"/>
</linearGradient>
<linearGradient id="paint37_linear_0_1005" x1="558.201" y1="299.786" x2="542.648" y2="373.789" gradientUnits="userSpaceOnUse">
<stop stop-color="#FF8652"/>
<stop offset="1" stop-color="#C71E53"/>
</linearGradient>
<linearGradient id="paint38_linear_0_1005" x1="253.755" y1="295.058" x2="251.489" y2="350.4" gradientUnits="userSpaceOnUse">
<stop offset="0.01" stop-color="#92CE66"/>
<stop offset="0.19" stop-color="#8ECD69"/>
<stop offset="0.38" stop-color="#81CC73"/>
<stop offset="0.58" stop-color="#6BC984"/>
<stop offset="0.79" stop-color="#4CC49B"/>
<stop offset="1" stop-color="#26BFB8"/>
</linearGradient>
<linearGradient id="paint39_linear_0_1005" x1="100.218" y1="385.908" x2="110.993" y2="341.956" gradientUnits="userSpaceOnUse">
<stop stop-color="#FA8C6E"/>
<stop offset="0.35" stop-color="#F2C785"/>
<stop offset="0.4" stop-color="#F3CB8C"/>
<stop offset="0.8" stop-color="#FBE8C4"/>
<stop offset="1" stop-color="#FEF4DA"/>
</linearGradient>
<linearGradient id="paint40_linear_0_1005" x1="117.69" y1="371.777" x2="173.432" y2="296.478" gradientUnits="userSpaceOnUse">
<stop stop-color="#FA8C6E"/>
<stop offset="1" stop-color="#F2C785"/>
</linearGradient>
<linearGradient id="paint41_linear_0_1005" x1="648.477" y1="179.643" x2="658.23" y2="273.145" gradientUnits="userSpaceOnUse">
<stop stop-color="#FF8652"/>
<stop offset="1" stop-color="#C71E53"/>
</linearGradient>
<linearGradient id="paint42_linear_0_1005" x1="199.239" y1="221.012" x2="176.239" y2="221.012" gradientUnits="userSpaceOnUse">
<stop stop-color="#DB324F"/>
<stop offset="1" stop-color="#B3155C"/>
</linearGradient>
<linearGradient id="paint43_linear_0_1005" x1="-68.1394" y1="414.759" x2="-66.4948" y2="356.617" gradientUnits="userSpaceOnUse">
<stop stop-color="#FA8C6E"/>
<stop offset="1" stop-color="#F2C785"/>
</linearGradient>
<linearGradient id="paint44_linear_0_1005" x1="548.794" y1="180.592" x2="553.169" y2="218.666" gradientUnits="userSpaceOnUse">
<stop stop-color="#4E6952"/>
<stop offset="0.16" stop-color="#49624D"/>
<stop offset="0.39" stop-color="#3B503E"/>
<stop offset="0.66" stop-color="#253127"/>
<stop offset="0.95" stop-color="#060706"/>
<stop offset="1"/>
</linearGradient>
<linearGradient id="paint45_linear_0_1005" x1="164.303" y1="352.479" x2="155.042" y2="350.36" gradientUnits="userSpaceOnUse">
<stop stop-color="#DB324F"/>
<stop offset="1" stop-color="#B3155C"/>
</linearGradient>
<linearGradient id="paint46_linear_0_1005" x1="321.053" y1="313.511" x2="305.889" y2="325.823" gradientUnits="userSpaceOnUse">
<stop stop-color="#FEF4DA"/>
<stop offset="0.38" stop-color="#F9E0B4"/>
<stop offset="0.78" stop-color="#F4CE92"/>
<stop offset="1" stop-color="#F2C785"/>
</linearGradient>
<linearGradient id="paint47_linear_0_1005" x1="190.038" y1="333.154" x2="203.896" y2="326.561" gradientUnits="userSpaceOnUse">
<stop stop-color="#FA8C6E"/>
<stop offset="1" stop-color="#F2C785"/>
</linearGradient>
<linearGradient id="paint48_linear_0_1005" x1="310.415" y1="313.477" x2="295.248" y2="325.889" gradientUnits="userSpaceOnUse">
<stop stop-color="#FEF4DA"/>
<stop offset="0.38" stop-color="#F9E0B4"/>
<stop offset="0.78" stop-color="#F4CE92"/>
<stop offset="1" stop-color="#F2C785"/>
</linearGradient>
<linearGradient id="paint49_linear_0_1005" x1="162.742" y1="333.208" x2="176.621" y2="326.557" gradientUnits="userSpaceOnUse">
<stop stop-color="#FA8C6E"/>
<stop offset="1" stop-color="#F2C785"/>
</linearGradient>
<linearGradient id="paint50_linear_0_1005" x1="300.776" y1="313.477" x2="285.609" y2="325.889" gradientUnits="userSpaceOnUse">
<stop stop-color="#FEF4DA"/>
<stop offset="0.38" stop-color="#F9E0B4"/>
<stop offset="0.78" stop-color="#F4CE92"/>
<stop offset="1" stop-color="#F2C785"/>
</linearGradient>
<linearGradient id="paint51_linear_0_1005" x1="136.42" y1="333.208" x2="150.299" y2="326.557" gradientUnits="userSpaceOnUse">
<stop stop-color="#FA8C6E"/>
<stop offset="1" stop-color="#F2C785"/>
</linearGradient>
</defs>
</svg>
