<svg width="100" height="21" viewBox="0 0 100 21" fill="none" xmlns="http://www.w3.org/2000/svg">
<path fill-rule="evenodd" clip-rule="evenodd" d="M0.973228 19.9028H6.79565C7.33162 19.8947 7.76298 19.4594 7.76699 18.9227V1.47115C7.7665 1.20889 7.66185 0.957587 7.47612 0.772665C7.2904 0.587743 7.03885 0.484385 6.77694 0.485381H0.973228C0.714831 0.483371 0.466407 0.58514 0.283512 0.76793C0.100616 0.950721 -0.00149364 1.19928 1.65155e-05 1.45803V18.9339C0.00207998 19.4704 0.4375 19.9039 0.973228 19.9028Z" fill="#00529C"/>
<path fill-rule="evenodd" clip-rule="evenodd" d="M11.7373 1.91305L15.9207 17.1131C16.1776 18.0015 16.7539 18.7684 17.5429 19.2714C18.2433 19.7155 18.9418 19.9028 20.0735 19.9028H24.7054C26.6712 19.9028 28.1598 18.7113 28.6961 16.6728L32.4634 1.94678C32.5019 1.80177 32.5218 1.6526 32.5226 1.50275C32.538 1.23643 32.4401 0.975795 32.2524 0.782967C32.0646 0.590138 31.8038 0.482393 31.5321 0.485413H28.0968C27.6331 0.480309 27.2279 0.791714 27.1216 1.23483L24.1577 13.988C24.068 14.4246 23.8409 14.5201 23.6042 14.5201C23.3685 14.5133 23.1719 14.3409 23.1386 14.1117L19.98 1.45966C19.8922 0.824525 19.4743 0.492908 18.9743 0.492908H12.6762C12.385 0.489397 12.1064 0.609045 11.9113 0.821337C11.7162 1.03363 11.6236 1.31804 11.6571 1.60205C11.6571 1.68823 11.7106 1.77441 11.7373 1.91305Z" fill="#00529C"/>
<path fill-rule="evenodd" clip-rule="evenodd" d="M43.8083 7.9617V6.27404C43.7996 6.01026 43.8992 5.75417 44.0845 5.56388C44.2698 5.37359 44.5251 5.26521 44.7924 5.26332H51.8064C52.3447 5.26026 52.7807 4.83082 52.7848 4.29948V1.4661C52.7828 1.204 52.6754 0.953432 52.4862 0.76951C52.297 0.585588 52.0416 0.483383 51.776 0.48538H39.8359C37.9019 0.48538 35.9224 1.96302 35.9224 4.65014V15.9987C35.9224 18.4495 38.0121 19.9028 39.8226 19.9028H51.909C52.1908 19.9046 52.4602 19.7885 52.6506 19.5835C52.841 19.3784 52.9346 19.1034 52.9083 18.8265V16.0137C52.9088 15.7543 52.8047 15.5053 52.6191 15.3217C52.4334 15.138 52.1813 15.0349 51.9185 15.0349H44.9045C44.2529 15.0349 43.8083 14.6598 43.8083 14.0448V12.4321H49.9731C50.24 12.4272 50.4938 12.317 50.6777 12.1259C50.8616 11.9349 50.9602 11.6791 50.9515 11.4158V8.92554C50.9432 8.38566 50.4935 7.9544 49.9465 7.9617H43.8083Z" fill="#00529C"/>
<path fill-rule="evenodd" clip-rule="evenodd" d="M66.4944 5.22606C67.479 5.16534 68.4729 5.15205 69.4893 5.15205C70.238 5.15205 70.9774 5.17483 71.7149 5.22416C71.9722 5.22467 72.2191 5.12127 72.401 4.93682C72.583 4.75238 72.685 4.50207 72.6845 4.24122V4.22225L72.7032 1.07987C72.7043 0.570739 72.3217 0.145022 71.8216 0.0988282C70.6199 0.0134376 69.4032 0.00015459 68.1884 0.00015459C66.5079 -0.00437562 64.8285 0.0906649 63.1589 0.28479H63.2619C59.7239 0.57055 56.8083 3.21347 56.1341 6.74601C55.9414 7.86544 55.8381 8.9988 55.8252 10.1351C55.8234 11.2048 55.9022 12.2731 56.0611 13.3306C56.5957 16.7821 59.2773 19.483 62.6853 20.0024L62.5805 19.9835C64.2005 20.2193 65.8333 20.3524 67.4696 20.3819C68.961 20.4089 70.4527 20.3506 71.9376 20.2074C72.433 20.1588 72.812 19.7385 72.8155 19.2339V19.306V16.1504C72.8176 15.6104 72.3897 15.1699 71.8571 15.1636H71.8272C70.8595 15.2111 69.8824 15.2092 68.8922 15.1921C68.0593 15.1769 67.2338 15.1579 66.4158 15.1029C65.1551 14.9494 64.1635 13.9379 64.0199 12.6588C63.9155 11.708 63.863 10.7521 63.8627 9.79541C63.8627 9.19198 63.887 8.59235 63.9282 7.99651C63.9357 6.53411 65.0552 5.32546 66.4944 5.22606Z" fill="#00529C"/>
<path fill-rule="evenodd" clip-rule="evenodd" d="M76.8097 5.93885C77.667 2.9638 80.2503 0.642534 83.4241 0.248748C85.0107 0.0625534 86.6081 -0.0192726 88.2058 0.00380971C89.7043 0.000825818 91.2017 0.0851301 92.6903 0.256285C95.7248 0.607605 98.2849 2.65284 99.2703 5.51304C99.7773 7.09284 100.023 8.74323 99.9981 10.4005C99.9927 11.6017 99.8521 12.7986 99.5789 13.9691C98.9103 17.0779 96.4242 19.5273 92.9113 20.1509C91.1434 20.3864 89.6479 20.3883 87.8152 20.3883C86.3828 20.3897 84.9513 20.3149 83.527 20.1641C80.4592 19.8154 77.8801 17.7265 76.9297 14.8207C76.4537 13.3182 76.2122 11.7527 76.2134 10.1782C76.2092 8.74248 76.4099 7.31338 76.8097 5.9332V5.93885ZM91.9549 12.9761C91.7453 14.2414 90.6839 15.1983 89.3907 15.288C88.8783 15.3106 88.3639 15.3238 87.8457 15.3238C87.6038 15.3238 87.3942 15.3238 87.1542 15.3238C85.7758 15.319 84.6076 14.319 84.4052 12.9705C84.2684 11.9921 84.199 11.0057 84.1975 10.018C84.1975 9.1755 84.2478 8.33371 84.348 7.49704C84.4998 6.17159 85.5859 5.14179 86.9313 5.04766C87.3809 5.0307 87.8229 5.02316 88.2648 5.02316C88.5506 5.02316 88.8363 5.02316 89.1221 5.03258C90.5657 5.02881 91.7754 6.11173 91.9149 7.53284C92.0392 8.4611 92.1028 9.39631 92.1054 10.3327C92.1105 11.2211 92.0596 12.109 91.953 12.9912L91.9549 12.9761Z" fill="#00529C"/>
</svg>
