<svg width="40" height="44" viewBox="0 0 40 44" fill="none" xmlns="http://www.w3.org/2000/svg">
<path fill-rule="evenodd" clip-rule="evenodd" d="M37.8309 0.582831C37.7733 0.371092 37.6299 0.19294 37.4353 0.0915268C37.0511 -0.111734 36.5749 0.0348963 36.3716 0.419027L36.3701 0.421962C36.3701 0.443701 32.3831 8.17848 20.144 9.52631C18.5474 9.69664 16.9869 10.1132 15.5179 10.7611C12.8884 11.9042 10.7168 13.8938 9.34832 16.4133C8.07071 18.7799 7.54158 21.4786 7.83092 24.1524C8.04408 26.1015 8.69505 27.9773 9.73527 29.6394C7.56136 31.2002 0.665706 36.5959 0.043967 42.3872C-0.00168516 42.8194 0.311793 43.2067 0.743967 43.2524C1.17625 43.298 1.56353 42.9846 1.60918 42.5524C2.17875 37.3828 8.64831 32.3698 10.6657 30.9176C13.0874 33.8915 16.7135 35.5698 20.6048 35.8437C23.2239 36.0127 25.846 35.5661 28.2614 34.5394C30.8833 33.4392 33.199 31.7189 35.0092 29.5263C39.6744 23.8741 41.8961 14.3741 37.8309 0.582831ZM11.1179 28.8611C10.8179 28.3886 10.5534 27.8945 10.3266 27.3828C9.84918 26.3032 9.54125 25.1564 9.41353 23.9828C9.14723 21.6279 9.60201 19.2476 10.7179 17.1567C11.924 14.94 13.8371 13.1907 16.1527 12.1872C17.4765 11.6108 18.8815 11.2427 20.3179 11.0959C28.3961 10.2263 33.1483 6.63066 35.6005 4.02196C34.1597 8.76533 31.6792 13.1277 28.3396 16.7915L27.8614 11.9741C27.837 11.5402 27.4655 11.2082 27.0316 11.2325C26.5977 11.2569 26.2656 11.6284 26.2899 12.0623C26.2911 12.0837 26.2932 12.1051 26.2961 12.1263L26.9092 18.3176C23.2527 22.0263 18.1701 25.7524 11.1179 28.8611ZM33.7918 28.522V28.5176C37.7961 23.6741 39.8527 15.7002 37.1657 4.23935C36.1918 7.71761 33.857 13.3698 28.3701 19.0828C28.3388 19.1223 28.3039 19.1587 28.2657 19.1915C26.1856 21.3164 23.9039 23.2341 21.4527 24.9176L26.7614 25.922C27.1717 26.0076 27.4429 26.4 27.378 26.8141C27.3107 27.2435 26.9081 27.5371 26.4787 27.4698L19.5701 26.1654C17.1672 27.6723 14.6594 29.0047 12.0657 30.1524C14.279 32.6199 17.3856 34.1021 20.6961 34.2698C23.0742 34.4315 25.4571 34.0324 27.6527 33.1046C30.0402 32.0972 32.147 30.5245 33.7918 28.522Z" fill="black"/>
</svg>
