<svg width="28" height="28" viewBox="0 0 28 28" fill="none" xmlns="http://www.w3.org/2000/svg">
<path fill-rule="evenodd" clip-rule="evenodd" d="M1.99375 0H26C27.1 0 28 0.90625 28 2.01875V25.9813C28 27.0938 27.1 28 26 28H1.99375C0.89375 28 0 27.0938 0 25.9813V2.01875C0 0.90625 0.89375 0 1.99375 0ZM8.4625 24H8.46875V10.6375H4.3125V24H8.4625ZM6.3875 8.8125C5.05625 8.8125 3.98125 7.73125 3.98125 6.40625C3.98125 5.08125 5.05625 4 6.3875 4C7.7125 4 8.79375 5.08125 8.79375 6.40625C8.79375 7.7375 7.71875 8.8125 6.3875 8.8125ZM19.8688 24H24.0187V16.675C24.0187 13.075 23.2375 10.3062 19.0375 10.3062C17.0188 10.3062 15.6625 11.4125 15.1063 12.4625H15.05V10.6375H11.0688V24H15.2188V17.3875C15.2188 15.6438 15.55 13.9562 17.7125 13.9562C19.8375 13.9562 19.8688 15.95 19.8688 17.5V24Z" fill="white"/>
</svg>
