<?xml version="1.0" encoding="utf-8"?>
<!-- Generator: Adobe Illustrator 23.0.2, SVG Export Plug-In . SVG Version: 6.00 Build 0)  -->
<svg version="1.1"
	 id="Layer_1" xmlns:dc="http://purl.org/dc/elements/1.1/" xmlns:mapsvg="http://mapsvg.com" xmlns:rdf="http://www.w3.org/1999/02/22-rdf-syntax-ns#" xmlns:svg="http://www.w3.org/2000/svg"
	 xmlns="http://www.w3.org/2000/svg" xmlns:xlink="http://www.w3.org/1999/xlink" x="0px" y="0px" viewBox="0 0 786.8 595.5"
	 style="enable-background:new 0 0 786.8 595.5;" xml:space="preserve">
<style type="text/css">
	.st0{fill:#25ACAB;stroke:#25ACAB;stroke-miterlimit:10;}
</style>
<path id="LT-KL" class="st0" d="M24.8,200.5l-1-11.5l0.8-4.9l-4.5-9.6l-1.1-1.2l2,21.7l-0.7,19.2l-1.4,10l-2.8,13.9l-3.3,10.7
	l-7.7,19.9l-4.7,8.9l0.6,0.2l3.3,0.5l0.4-1.3l2.3-1.2l-1-2l2.4-1.1L8,271.5l1-1.7l5.6-3.6l-0.9-2.1l1.3-3.2l-0.7-3.8l2.7-3.5
	l-0.3-2.3l2.5-2.8l-0.9-1.5l3.2-2.4l-0.4-2.3l-2.4-2.5l2.5-9.2l1.4-2.1l-0.6-3.4l2-12.1L24.8,200.5z M45.1,276l-0.7,1l1,1
	C45.4,278,45.1,276.3,45.1,276z M44.8,278.1l-1.4-1l1,1.8l1-0.5L44.8,278.1z M43.2,277.2l-0.8,0.4l1.3,0.9L43.2,277.2z M42.2,278.2
	l0.3,1.9H44c0,0,0.6-0.8,0.6-0.9L42.2,278.2z M42.4,280.5l0.4,1.1l0.7-0.3L42.4,280.5z"/>
<polygon class="st0" points="604.3,507.8 608,507.3 605.9,509.5 604,509 "/>
<polygon class="st0" points="645.9,519.2 645.8,519.2 647.1,518.3 "/>
<polygon class="st0" points="786.8,273.3 786.2,277.8 782,278.9 779.1,282.3 774.4,284.1 774,283.3 773.9,283.4 774.3,284.2 
	772.2,287.2 772.5,292.7 769.2,296.3 767.8,295.1 765.5,296.7 767,301.6 769.2,302.8 768,304.5 765.9,303.7 765.1,306.5 
	762.4,305.5 758.1,308.7 753.1,307.2 747.4,309.6 743.9,305.7 739.1,308.5 738.8,311.1 736.7,312.9 732.2,310.6 730.7,311.3 
	730.3,310.3 728.2,312 727.4,309.9 722.7,308.2 721,309.4 718.4,309.4 718.8,311.6 715.4,312.1 716.6,313.1 715.3,314.1 710.2,315 
	705.7,318 705.4,319 710.9,325.3 709.7,325.8 710,327.1 708,326.7 707.3,327.6 706.6,333.7 704.8,338.3 702.9,339.9 702.5,343.5 
	699.5,345.6 696.4,344.9 693.2,346.9 691.1,346.1 689.6,349.9 685.5,350.4 684.9,351.8 685.9,353.8 682.3,355.1 683.5,356.6 
	674.8,355.1 672.7,352.9 672.1,353.9 667.9,355.1 665.6,357.8 664.7,357.5 662.6,359 659.9,357.9 658.8,359.5 656.3,359.6 
	655.2,367 650.5,371 650.7,372.3 648.8,374.6 645.7,376.6 646.3,380 645,383.9 642,383.9 641,385.7 639.8,389.4 641.5,397.3 
	641,407 639.5,411.8 640.3,415.9 639.3,415.8 639.1,416.7 640.8,426.2 640,427.9 641.9,431 642.9,440.9 641.5,443.8 632.2,450.4 
	629,456.8 626.4,465.4 624.2,465.8 622,467.8 622.2,468.5 625,468.4 623.9,470.3 625.3,476.3 622,482 620.5,481.9 620.2,480.9 
	619.2,483.2 620,487.1 616.3,489.6 615.2,494.5 612.7,494.8 612.5,496.9 614.5,497.2 614.8,501.1 619.6,499.3 619.8,500.8 
	621,501.3 623.7,502.1 625.5,500.4 626.9,501.8 629.6,499.4 632.5,499.4 635.9,504.8 635,506 635.6,507.8 634.8,509.3 636.2,510.7 
	637.5,509.8 641.3,511 643.3,517.5 645.8,519.2 640.6,522.8 641.6,522.5 644.4,526.5 645.2,528.7 644,530.8 645,534.4 646.2,535.3 
	647.2,534.9 647.2,536.7 645.9,537.2 645.4,535.9 643.2,535.9 641.8,533.7 641.7,536.2 640.2,536.2 639.4,537.3 639.2,536 
	635.1,534.3 634.9,536.9 633.3,537.6 632.6,536.9 632.4,540.6 629.6,540.6 627.7,543.2 626.6,543.3 624.3,541 624.7,539.8 
	621.5,540.4 620.9,539.3 616.6,538.1 614.9,539 612.3,537.1 611.9,535.2 609.1,532.7 609.7,530.3 616,527.7 616,523.8 613.7,522.5 
	613.5,520.2 614,519.8 614.9,521 616.2,519.9 617.9,521.2 619.6,520.8 616.9,516.3 617.3,514.3 615.1,511.9 616,510.3 610.1,507.9 
	609.8,502.7 607.6,501.8 607.2,503.8 605.1,503.9 605.3,505.4 603.3,506.5 601.3,506.5 601.6,505 598.2,505.5 597.3,504.9 
	595.5,508.5 593.3,510.2 591.9,509.7 589.2,510.8 587.9,512.6 585.5,511.9 583.7,513.1 581.8,511.7 581.2,513.1 576.5,510.5 
	574.3,515.4 571.8,512.8 570.3,513.7 567.6,518.7 567.8,522.5 556.4,534.2 550.6,542.1 547.4,541 542.9,541.8 539.9,540.3 
	537.5,536.6 538,535.3 535.2,533.7 523.4,539.4 518.3,539.1 518.2,538.6 516.6,539.1 518.4,542.1 513.4,546 510.9,545.4 
	510.6,546.7 511.6,549.4 514.5,551.4 517,556 517.3,561.9 520,564.5 522.9,563.5 524,565 523.1,566.1 519.3,565.9 519.8,570.7 
	518,570.3 517.9,572.6 516.4,573.5 513.6,572.7 510.3,573.9 505.7,578.2 506.1,579.9 499.5,580.6 501.7,570.3 500.8,568.1 498,568 
	495.3,570.9 490.5,570.1 487.7,574.1 483.6,575.6 476.8,581.5 474.7,585 470.7,588.3 468.3,593.1 465.3,594.6 465.2,593.2 
	464,593.2 464.1,595.2 463,594.5 463.5,593.4 458.5,595 455.1,594.7 453.7,592.2 453,594 451.6,594.7 449.3,594.1 442,586.1 
	442.1,584.4 441.1,583.4 438.4,585.2 435.5,584.1 436,582.3 434.3,579.6 433.2,580.6 428.3,581.2 426.4,583.3 422.6,582.6 
	420.8,586.6 406.1,589.5 403.5,589.2 403.7,586.4 402.7,583.7 396.3,579.9 395.4,580.7 395.3,583.5 392.8,585.7 390.9,585.6 
	387.9,583.1 385.2,583.7 380.5,587.9 380.7,589.4 383,591.4 383,593.4 380.6,595.4 377.7,595.5 378.3,592.8 376.5,591.5 376.3,590 
	371.7,588.5 370.3,587 368.5,586.4 367.7,587.6 363.9,587.5 362.9,588.3 360.3,587.5 355,589.5 353.6,587.2 352,587 351.3,585.8 
	349.7,585.3 348.5,586.3 346.6,585.2 345.2,585.6 344.1,582.9 342.4,582.9 339.9,580.1 337.9,573.3 339.9,571.3 340.7,571.6 
	342.5,566.9 343.6,566.2 344.1,558.4 342.7,552.8 340.6,547.7 339.4,546.8 339.7,543.4 338.5,538.7 336.9,537.7 337,536.3 
	335.1,535.3 334.8,533.6 330.2,533.1 324.3,521.4 321.7,520.9 319.6,517.2 316.5,515.7 316.6,515.3 311.2,513.6 306.8,514.4 
	304.9,513.4 300.7,507 294.2,505.1 294.9,502.2 292.9,500.9 286.3,504.7 280.3,501.4 279.2,500.6 279.7,498.3 282,494.9 
	280.1,493.2 272.8,490.3 274.9,485.4 271.6,485 271.4,483.8 258.7,481.5 258.5,479.3 254.3,479.1 251.6,480.1 248.3,488.2 
	246.2,489.4 236.9,475.2 234.1,468.8 233.7,457 231.5,453.4 231.2,450.9 234.9,444 233.7,441.2 231.7,439.8 231.7,438.4 
	236.4,433.8 237.4,430.1 239.7,429.2 240.6,426.9 239.5,425.2 241.3,423.8 238.2,420.2 237.9,419.2 239.2,418.8 239.2,417.9 
	237.1,415.1 237.8,412.8 240.4,410.4 239.1,406.2 239.7,404.7 240.7,404.9 242.8,403.1 243.7,400.1 244.7,400.6 245.8,399.5 
	247.8,399.3 248.9,396.7 250.7,397 251.6,395.9 253,396.5 253.7,394.7 255,394.1 253.7,392.3 254.1,391.6 257.6,391 256.7,389.9 
	257,387.6 258.6,385.6 256.6,384.1 257.8,383.1 257.3,380.8 255.1,379.9 256.6,376.7 252.7,374.1 253,371.2 254.5,368.9 
	253.6,366.4 252.1,366 249.9,362.9 246.5,365 245.8,361.3 244.5,359.7 243,360.2 242.2,361.8 241.3,361.4 240.7,359.8 242.8,357.4 
	239.7,356.6 237.6,351.1 235,349 232.6,349.3 231.1,345.7 228.4,347.2 229.4,350.1 228.8,351.2 226.3,349.3 226.4,346.6 
	225.3,346.2 223.9,341.7 220.3,337.6 219.3,327.9 218.9,327.6 213.6,328.3 206,332.5 202.6,333.4 197.6,331.4 192.2,331.2 
	186.6,329.3 177,328.8 176.8,327.9 170.1,328.5 165.8,330.1 161.3,329.8 158.5,331.8 156.2,336.7 150.7,337 147.8,335.7 
	145.4,333.3 144.6,329.4 145.8,325.1 144.9,323.3 139.3,322.9 135.6,325.6 129.6,324.3 124.2,321.3 120.1,320.3 115.8,315.2 
	111.1,315.2 103.4,311.9 102.1,308.2 93.6,300.8 86.3,299.1 82.5,296.6 79.3,296.9 75.6,299.6 73.5,299 72,296 67.1,291.4 
	64.6,284.6 58,274.3 56.6,276 51.9,278.4 46.7,284 43.3,285.5 43.1,284.6 44.2,284.5 43.2,282 45.7,278.4 45.4,274.9 46.2,275.2 
	46.7,272.3 45.9,272.5 44.1,267.4 40.4,265.2 39.2,263 40.2,262.7 40.8,260.7 40.5,258.5 42.5,258.4 40,257.2 38,260.6 35.7,260.3 
	35.2,261.6 31.4,263.3 36.9,252.8 39.7,245.1 39.9,235.9 40.7,234.6 39.9,234.3 39.9,229.1 38.1,222.3 36.6,220 37.2,218.9 
	39.4,218.2 37.4,218.4 35.5,220 33.6,209.4 34.6,208.9 32.8,208.2 30.1,203.3 28.3,195.1 26.5,193 27.1,191.4 26.2,190.9 
	26.1,187.7 27,190.3 28.1,191.9 28.5,191.3 27.6,188.9 26.7,188.7 25,181.4 22.4,175.6 17.4,171.7 13.2,126.6 15.3,119.4 
	16.6,107.4 16.3,98 15,91 24.7,88.7 27.6,87.1 30.5,89.7 33.3,89.3 36.2,82.9 36,81.6 37.9,80 38.3,76.4 37.2,74.6 36.7,70.3 
	37.4,68.8 43.2,66.5 44.5,63.4 50.5,55.5 57.4,53.1 62.2,50 64.2,50.2 67,48.3 68.7,43.2 72.4,37.8 74,37.5 75.6,38.5 77.9,37.7 
	80.7,35.4 81.7,32.2 83.8,32.6 84,31.3 86,30.4 91.3,30.4 96.5,33.3 103,32.8 105.7,28.7 111.1,25.2 114.2,21.2 116.3,20.8 
	118,18.9 120.9,19.5 122.7,21.5 129.3,19.6 129.5,18.7 132.8,17.9 134.2,16.4 135,16.9 136.5,17.3 135.9,19.6 136.5,22.3 
	135.1,23.3 131.3,23.1 130.7,31.1 131.3,31.2 131.9,23.5 135.7,23.7 137.1,22.7 136.5,19.9 137.1,17.6 140,8.7 142.5,8.4 142.8,6.3 
	145.4,6.2 147,7.9 147.7,7 149.7,7.1 150.3,6 151.4,6.6 152,5 153.5,5.5 157.3,4.3 162.2,7 167.8,6 168.9,8.9 171.3,9.5 172.7,11.2 
	182.1,9.7 183.1,11.4 184.9,11.4 187.1,13.1 189.2,11.2 192.5,11.5 195.4,9.4 204.1,10.5 208.5,13.4 210.9,13.2 214.6,14.7 
	217.9,14 218.9,15.5 222.4,15.8 226.3,20.3 226.2,20.7 228,21 230.9,23.7 233.2,23.2 237.2,18.9 254.5,20 256.4,18.2 260.2,18 
	263.7,16.1 263.3,15.3 264.8,14.6 264.7,13.5 263.3,13.3 262.8,12.2 264.9,11.1 264.9,9.2 266.9,8.2 269.3,8.4 270.8,10.4 
	273.8,10.5 275.9,18.3 274.1,19.2 277,28.6 279.5,30.9 283.2,30.1 286,34.5 288.6,33.7 289.2,31.9 297.9,26.5 296.6,22.6 
	297.5,21.4 296.4,19.4 311,18.5 315.2,15.6 325.1,16.7 329.3,18.8 332.1,23.2 338.2,24.2 341.7,26.9 346.3,27.8 358,20.8 
	375.6,17.8 377.4,19.2 377.5,20.8 375.1,27.2 375.6,30 377.7,30.6 380,26 382.6,25.5 384.1,26.2 395.5,26 397.6,28.3 409.2,28.3 
	410.2,33 413.7,36 413.7,40.2 420.3,40.9 420.4,42.6 422.9,44.7 422.6,47.6 427.9,46.6 427.7,48.5 424.2,49.5 423.4,52.1 
	424.3,54.1 424.7,54.2 424,52.5 424.8,49.9 428.3,48.9 428.5,47 431.5,47.3 435.2,43.5 446,39 445.7,35.9 452.5,36.5 455.1,42.3 
	459.8,41 463.8,45 468,45.8 469.5,43.4 477.2,39.8 484.8,38.6 485.4,34.4 484.5,30.6 485.9,28.2 488.7,27.1 491.3,24.2 491.7,17.6 
	499.9,17.8 502.3,14.8 501.9,11.6 509.4,11 511.5,12 514.9,8.8 515.1,6.7 517.5,7.6 518,9.4 522.4,8.4 523.2,7.4 522.3,3.4 
	524.7,0.2 526.9,0.9 528.7,0.8 530.4,2.4 528.8,6.5 529.4,8.9 533.7,18 534.7,17.8 537.4,20.7 536.9,29.4 538.1,33.2 543.1,38 
	544,41.7 545.7,42.8 546.8,42.4 547,43.9 548.6,44.3 548.8,47.4 549.6,47.9 548.8,49.4 550.3,50.5 549.6,53.4 551.1,55.4 
	551.5,61.2 553.2,60.7 554,62.7 558,63.6 561.7,66 568.1,66 572.5,61.9 577.6,67.2 578.8,70 583.6,73.3 586.4,71.1 595.4,70.1 
	595.4,72.4 597.6,73.1 599.5,70.9 602.1,71.1 602.2,72.4 605.1,73.5 608.7,73.4 609.8,69.6 612.7,68.2 615.5,69.4 617,74.4 
	621.1,75.8 628.3,75.7 631.5,72.2 632.9,73.4 632.2,76.8 634.9,79.3 634,83 635,83.9 633.2,85.7 633.5,87.4 639.8,89.9 643.2,92.9 
	651,94.8 652.7,100.1 655.7,102.1 656.1,104.4 655.3,106 656.2,107.7 661.1,107.4 662.1,108.6 667.2,110.5 667.5,111.9 668.8,111.4 
	671.6,112.5 674.7,116.3 676.6,115.8 680.8,118.4 674.1,119.6 669.9,124.1 669.6,127 672.3,130.7 670.4,133.9 670.6,136.7 
	661.2,138.6 662.2,145.7 661.7,147.5 660.5,148.4 656.3,148.6 656.5,148.7 660.7,148.5 661.9,147.6 662.4,145.8 661.4,138.7 
	670.8,136.8 670.6,134 672.5,130.8 669.8,127.1 670.1,124.2 674.3,119.7 681,118.5 682,122.3 687.6,132 691.4,136.7 695.2,137.2 
	698.1,139.8 700.3,139.6 705.6,146.2 706.5,150.4 706,152.4 711.1,163.2 716.8,168.6 721.8,169.1 723.9,171.7 726.3,177.9 
	731.5,176.7 737.1,177.8 740.3,180.2 740.9,182.1 743.8,182.2 744.6,183.8 746.3,184.5 751.5,184 752.2,185 755.2,185.2 
	759.3,183.8 759.3,189.6 761.2,189.9 762.1,196.3 759.8,200.2 761,202 761.1,208.8 758.1,211.3 756.8,210.8 752.8,217.4 
	747.7,219.8 745.4,224.2 747.5,230 749.3,230.4 750.7,232.9 747.6,237.5 749.5,240.2 747.3,239.9 749.6,246.8 748.2,248 749,252.3 
	745.9,252.4 742,256.7 740,256.1 738.5,256.7 737.8,259.9 734.2,261.7 735.6,263.2 738.7,263.1 744,265.9 747.7,266 750.2,268.4 
	753,266.8 753.3,268.3 754.4,267.7 756.1,268.5 757.6,266.9 757.1,265.5 759,264.8 758.7,267 759.6,267.8 761.4,264.8 763.3,265.9 
	764.1,263.6 766.1,265.4 769.7,266.1 771.3,267.7 777.2,267.5 783.9,269.2 783.9,270.7 785.9,271.1 "/>
</svg>
