<svg width="52" height="33" viewBox="0 0 48 28" fill="none" xmlns="http://www.w3.org/2000/svg">
<path fill-rule="evenodd" clip-rule="evenodd" d="M8 21.6C8 20.2745 9.07452 19.2 10.4 19.2C11.7255 19.2 12.8 20.2745 12.8 21.6C12.8 22.9254 11.7255 24 10.4 24C9.07452 24 8 22.9254 8 21.6ZM9.6 21.6C9.6 22.0418 9.95817 22.4 10.4 22.4C10.8418 22.4 11.2 22.0418 11.2 21.6C11.2 21.1581 10.8418 20.8 10.4 20.8C9.95817 20.8 9.6 21.1581 9.6 21.6Z" fill="black"/>
<path fill-rule="evenodd" clip-rule="evenodd" d="M33.7824 20.6815C34.1538 19.7847 35.029 19.2 35.9997 19.2C37.3252 19.2 38.3997 20.2745 38.3997 21.6C38.3997 22.5707 37.8149 23.4458 36.9181 23.8173C36.0213 24.1887 34.989 23.9834 34.3026 23.297C33.6162 22.6106 33.4109 21.5783 33.7824 20.6815ZM35.1997 21.6C35.1997 22.0418 35.5579 22.4 35.9997 22.4C36.4415 22.4 36.7997 22.0418 36.7997 21.6C36.7997 21.1581 36.4415 20.8 35.9997 20.8C35.5579 20.8 35.1997 21.1581 35.1997 21.6Z" fill="black"/>
<path fill-rule="evenodd" clip-rule="evenodd" d="M30.4004 3.19995C31.2337 3.23231 32.017 3.60645 32.566 4.23435L37.366 9.03435C37.516 9.18435 37.6003 9.3878 37.6004 9.59995V11.2C37.6004 11.6418 37.2422 12 36.8004 12H16.8004C16.5882 11.9999 16.3848 11.9156 16.2348 11.7656L14.0692 9.59995H6.40036C6.16515 9.59988 5.94189 9.49631 5.78994 9.31678C5.63799 9.13724 5.57275 8.89993 5.61156 8.66795L6.41156 3.86795C6.47604 3.48251 6.80956 3.20007 7.20036 3.19995H30.4004ZM7.34516 7.99995H13.6004V4.79995H7.87796L7.34516 7.99995ZM23.2004 10.4H17.1316L15.2004 8.46875V4.79995H23.2004V10.4ZM24.8004 4.79995V10.4H36.0004V9.93115L31.4348 5.36555C31.1805 5.04504 30.8074 4.84103 30.4004 4.79995H24.8004Z" fill="black"/>
<path fill-rule="evenodd" clip-rule="evenodd" d="M40.432 7.30083L45.1808 8.88003C46.8651 9.44542 47.9999 11.0234 48 12.8V21.6C48 22.0419 47.6419 22.4 47.2 22.4H41.536C41.1406 25.1535 38.7817 27.1978 36 27.1978C33.2183 27.1978 30.8595 25.1535 30.464 22.4H15.936C15.5406 25.1535 13.1817 27.1978 10.4 27.1978C7.61835 27.1978 5.25947 25.1535 4.86403 22.4H2.40003C1.07455 22.4 3.03607e-05 21.3255 3.03607e-05 20V19.2C-0.00321871 18.5597 0.254432 17.9456 0.71363 17.4992C0.96159 17.2453 1.26498 17.0523 1.60003 16.9352V11.2C1.59975 11.1668 1.60189 11.1337 1.60643 11.1008L2.40643 4.70083C2.86643 1.70483 4.90403 2.64655e-05 8.00003 2.64655e-05H30.4C32.1494 -0.00494323 33.828 0.690177 35.0616 1.93043L40.432 7.30083ZM44.672 10.4L43.0072 9.84003L42.576 12H46.272C46.0191 11.2453 45.4267 10.653 44.672 10.4ZM3.20003 12H4.00003C4.44186 12 4.80003 12.3582 4.80003 12.8C4.80003 13.2419 4.44186 13.6 4.00003 13.6H3.20003V12ZM6.40003 21.6C6.40003 23.8092 8.19089 25.6 10.4 25.6C12.6081 25.5974 14.3974 23.8081 14.4 21.6C14.4 19.3909 12.6092 17.6 10.4 17.6C8.19089 17.6 6.40003 19.3909 6.40003 21.6ZM36 25.6C33.7909 25.6 32 23.8092 32 21.6C32 19.3909 33.7909 17.6 36 17.6C38.2092 17.6 40 19.3909 40 21.6C39.9974 23.8081 38.2081 25.5974 36 25.6ZM42.4 17.6H46.4V13.6H41.6C41.3598 13.6001 41.1322 13.4921 40.9802 13.3061C40.8283 13.12 40.768 12.8754 40.816 12.64L41.4776 9.33443L39.7472 8.75923C39.6293 8.71987 39.5222 8.65358 39.4344 8.56563L33.9304 3.06163C32.996 2.12251 31.7248 1.59621 30.4 1.60003H8.00003C5.10803 1.60003 4.22323 3.40643 3.99043 4.92163L3.30643 10.4H4.00003C5.32551 10.4 6.40003 11.4745 6.40003 12.8C6.40003 14.1255 5.32551 15.2 4.00003 15.2H3.20003V16.8H4.80003V18.4H2.40003C2.19129 18.3979 1.99075 18.4811 1.84483 18.6304C1.68796 18.7783 1.59933 18.9845 1.60003 19.2V20C1.60003 20.4419 1.9582 20.8 2.40003 20.8H4.86403C5.25947 18.0466 7.61835 16.0023 10.4 16.0023C13.1817 16.0023 15.5406 18.0466 15.936 20.8H30.464C30.8595 18.0466 33.2184 16.0023 36 16.0023C38.7817 16.0023 41.1406 18.0466 41.536 20.8H46.4V19.2H42.4V17.6Z" fill="black"/>
<path fill-rule="evenodd" clip-rule="evenodd" d="M16.7998 17.6001H29.5998V19.2001H16.7998V17.6001Z" fill="black"/>
<path fill-rule="evenodd" clip-rule="evenodd" d="M20 13.6001H23.2V15.2001H20V13.6001Z" fill="black"/>
<path fill-rule="evenodd" clip-rule="evenodd" d="M24.7998 13.6001H27.9998V15.2001H24.7998V13.6001Z" fill="black"/>
</svg>
