<svg width="48" height="36" viewBox="0 0 48 36" fill="none" xmlns="http://www.w3.org/2000/svg">
<path fill-rule="evenodd" clip-rule="evenodd" d="M6.96777 30.6382C6.96777 29.3691 8.00763 28.3403 9.29035 28.3403C10.5725 28.3418 11.6115 29.3697 11.6129 30.6382C11.6129 31.9073 10.5731 32.9361 9.29035 32.9361C8.00763 32.9361 6.96777 31.9073 6.96777 30.6382ZM8.51616 30.6382C8.51616 31.0612 8.86278 31.4042 9.29035 31.4042C9.71773 31.4037 10.0641 31.061 10.0645 30.6382C10.0645 30.2152 9.71793 29.8722 9.29035 29.8722C8.86278 29.8722 8.51616 30.2152 8.51616 30.6382Z" fill="black"/>
<path fill-rule="evenodd" clip-rule="evenodd" d="M36.3867 30.6382C36.3867 29.3691 37.4266 28.3403 38.7093 28.3403C39.9914 28.3418 41.0304 29.3697 41.0319 30.6382C41.0319 31.9073 39.992 32.9361 38.7093 32.9361C37.4266 32.9361 36.3867 31.9073 36.3867 30.6382ZM37.9351 30.6382C37.9351 31.0612 38.2817 31.4042 38.7093 31.4042C39.1367 31.4037 39.483 31.061 39.4835 30.6382C39.4835 30.2152 39.1369 29.8722 38.7093 29.8722C38.2817 29.8722 37.9351 30.2152 37.9351 30.6382Z" fill="black"/>
<path fill-rule="evenodd" clip-rule="evenodd" d="M40.9094 7.245L47.8771 17.9684C47.9573 18.0921 48 18.236 48 18.383V30.6383C48 31.0613 47.6534 31.4043 47.2258 31.4043H44.0729C43.6882 34.042 41.4034 35.9997 38.7097 35.9997C36.0159 35.9997 33.7312 34.042 33.3465 31.4043H14.6535C14.2688 34.042 11.9841 35.9997 9.29032 35.9997C6.59657 35.9997 4.31181 34.042 3.9271 31.4043H0.774194C0.346618 31.4043 0 31.0613 0 30.6383V2.68085C0.00165335 1.20094 1.21385 0.00163576 2.70968 0H28.2581C29.7539 0.00163576 30.9661 1.20094 30.9677 2.68085V6.89362H40.2581C40.5214 6.89352 40.7668 7.02589 40.9094 7.245ZM5.41935 30.6383C5.41935 32.7534 7.15245 34.4681 9.29032 34.4681C11.4273 34.466 13.1592 32.7526 13.1613 30.6383C13.1613 28.5232 11.4282 26.8085 9.29032 26.8085C7.15245 26.8085 5.41935 28.5232 5.41935 30.6383ZM29.4194 29.8723H14.6535C14.2688 27.2346 11.9841 25.2769 9.29032 25.2769C6.59657 25.2769 4.31181 27.2346 3.9271 29.8723H1.54839V22.2128H29.4194V29.8723ZM1.54839 20.6809H29.4194V2.68085C29.4188 2.04653 28.8992 1.53244 28.2581 1.53191H2.70968C2.06854 1.53244 1.54892 2.04653 1.54839 2.68085V20.6809ZM41.3284 10.7234L45.8081 17.617H34.8387V10.7234H41.3284ZM34.8387 30.6383C34.8387 32.7534 36.5718 34.4681 38.7097 34.4681C40.8467 34.466 42.5785 32.7526 42.5806 30.6383C42.5806 28.5232 40.8476 26.8085 38.7097 26.8085C36.5718 26.8085 34.8387 28.5232 34.8387 30.6383ZM46.4516 23.7447H44.9032C44.4757 23.7447 44.129 23.4018 44.129 22.9787C44.129 22.5557 44.4757 22.2128 44.9032 22.2128H46.4516V23.7447ZM44.9032 20.6809H46.4516V19.1489H34.0645C33.6369 19.1489 33.2903 18.806 33.2903 18.383V9.95745C33.2903 9.53442 33.6369 9.19149 34.0645 9.19149H40.3335L39.8352 8.42553H30.9677V29.8723H33.3465C33.7312 27.2346 36.0159 25.2769 38.7097 25.2769C41.4034 25.2769 43.6882 27.2346 44.0729 29.8723H46.4516V25.2766H44.9032C43.6205 25.2766 42.5806 24.2478 42.5806 22.9787C42.5806 21.7096 43.6205 20.6809 44.9032 20.6809Z" fill="black"/>
<path fill-rule="evenodd" clip-rule="evenodd" d="M36.3868 20.6809H34.0642C33.6367 20.6809 33.29 21.0238 33.29 21.4469C33.29 21.8699 33.6367 22.2128 34.0642 22.2128H36.3868C36.8144 22.2128 37.161 21.8699 37.161 21.4469C37.161 21.0238 36.8144 20.6809 36.3868 20.6809Z" fill="black"/>
<path fill-rule="evenodd" clip-rule="evenodd" d="M20.1287 25.2765H26.3222C26.7498 25.2765 27.0964 24.9336 27.0964 24.5106C27.0964 24.0876 26.7498 23.7446 26.3222 23.7446H20.1287C19.7011 23.7446 19.3545 24.0876 19.3545 24.5106C19.3545 24.9336 19.7011 25.2765 20.1287 25.2765Z" fill="black"/>
<path fill-rule="evenodd" clip-rule="evenodd" d="M26.3224 26.0425H23.9998C23.5722 26.0425 23.2256 26.3854 23.2256 26.8084C23.2256 27.2315 23.5722 27.5744 23.9998 27.5744H26.3224C26.7499 27.5744 27.0966 27.2315 27.0966 26.8084C27.0966 26.3854 26.7499 26.0425 26.3224 26.0425Z" fill="black"/>
</svg>
