<svg width="57" height="31" viewBox="0 0 57 31" fill="none" xmlns="http://www.w3.org/2000/svg">
<path fill-rule="evenodd" clip-rule="evenodd" d="M10.6899 24.9375H10.6803C10.1897 24.9375 9.79688 25.3363 9.79688 25.8281C9.79688 26.32 10.1993 26.7188 10.6899 26.7188C11.1804 26.7188 11.5781 26.32 11.5781 25.8281C11.5781 25.3363 11.1804 24.9375 10.6899 24.9375Z" fill="black"/>
<path fill-rule="evenodd" clip-rule="evenodd" d="M17.8149 24.9375H17.8054C17.3148 24.9375 16.9219 25.3363 16.9219 25.8281C16.9219 26.32 17.3243 26.7188 17.8149 26.7188C18.3054 26.7188 18.7031 26.32 18.7031 25.8281C18.7031 25.3363 18.3054 24.9375 17.8149 24.9375Z" fill="black"/>
<path fill-rule="evenodd" clip-rule="evenodd" d="M47.2055 24.9375H47.196C46.7055 24.9375 46.3125 25.3363 46.3125 25.8281C46.3125 26.32 46.7149 26.7188 47.2055 26.7188C47.696 26.7188 48.0938 26.32 48.0938 25.8281C48.0938 25.3363 47.696 24.9375 47.2055 24.9375Z" fill="black"/>
<path fill-rule="evenodd" clip-rule="evenodd" d="M55.1101 13.7947L56.2327 14.9194C56.7276 15.4151 57.0001 16.0741 57 16.7751V24.0811C57 25.0354 56.2252 25.8116 55.2726 25.8116H51.644C51.6442 25.8307 51.6454 25.8495 51.6454 25.8687C51.6454 28.3017 49.6696 30.2812 47.2408 30.2812C45.0977 30.2812 43.3081 28.7395 42.9166 26.7052H22.1152C21.7238 28.7395 19.9341 30.2812 17.7909 30.2812C16.3234 30.2812 15.0221 29.5579 14.2212 28.4491C13.4204 29.5579 12.1191 30.2812 10.6516 30.2812C8.50838 30.2812 6.71878 28.7395 6.32735 26.7052H4.40459C3.45207 26.7052 2.67722 25.9289 2.67722 24.9747V23.1296H1.72737C0.774845 23.1296 0 22.3533 0 21.3991V1.73048C0 0.776354 0.774845 0 1.72737 0H42.7789C43.7314 0 44.5063 0.776242 44.5063 1.73048V5.36388H52.5955C53.0566 5.36388 53.4305 5.73839 53.4305 6.20035C53.4305 6.57386 53.1859 6.89004 52.8485 6.99744L55.1101 13.7947ZM4.40459 25.0324H6.32735C6.46372 24.3233 6.77021 23.6746 7.20216 23.1297H4.34715V24.9748C4.34715 25.0066 4.37287 25.0324 4.40459 25.0324ZM10.6516 28.6085C9.14362 28.6085 7.91689 27.3795 7.91689 25.8689C7.91689 24.3641 9.13449 23.139 10.6345 23.1297H10.6688C12.1689 23.1389 13.3865 24.364 13.3865 25.8689C13.3863 27.3795 12.1595 28.6085 10.6516 28.6085ZM15.0563 25.8689C15.0563 27.3795 16.2831 28.6085 17.791 28.6085C19.299 28.6085 20.5257 27.3795 20.5258 25.8689C20.5258 24.364 19.3082 23.1389 17.8082 23.1297H17.7739C16.2739 23.139 15.0563 24.3641 15.0563 25.8689ZM42.9167 25.0324H22.1153C21.9789 24.3233 21.6724 23.6745 21.2403 23.1296H37.4242C37.8854 23.1296 38.2592 22.755 38.2592 22.2931C38.2592 21.8311 37.8854 21.4566 37.4242 21.4566H1.72737C1.69564 21.4566 1.66993 21.4309 1.66993 21.3991V1.73048C1.66993 1.6987 1.69564 1.67294 1.72737 1.67294H42.7788C42.8105 1.67294 42.8363 1.6987 42.8363 1.73048V21.4567H40.9943C40.5332 21.4567 40.1594 21.8313 40.1594 22.2932C40.1594 22.7552 40.5332 23.1297 40.9943 23.1297H43.7916C43.3595 23.6746 43.0531 24.3233 42.9167 25.0324ZM48.1334 14.304H53.5193L52.2911 10.6128H48.0759V14.2465C48.0759 14.2783 48.1016 14.304 48.1334 14.304ZM47.241 28.6085C45.733 28.6085 44.5063 27.3795 44.5063 25.8689C44.5063 24.3641 45.7239 23.139 47.2239 23.1297H47.2411C47.243 23.1297 47.2449 23.1294 47.2469 23.1293C48.7521 23.1325 49.9758 24.3602 49.9758 25.8688C49.9756 27.3795 48.7489 28.6085 47.241 28.6085ZM55.2727 24.1389C55.3045 24.1389 55.3302 24.1131 55.3302 24.0814V20.4476H54.3803C53.9192 20.4476 53.5454 20.0731 53.5454 19.6112C53.5454 19.1492 53.9192 18.7747 54.3803 18.7747H55.3302V16.7752C55.3302 16.521 55.2313 16.2821 55.052 16.1023L54.9268 15.977H48.1334C47.1808 15.977 46.406 15.2007 46.406 14.2465V9.7763C46.406 9.31435 46.7798 8.93983 47.241 8.93983H51.7345L51.1013 7.0367H44.5637C44.532 7.0367 44.5063 7.06246 44.5063 7.09425V7.0947V21.4568H47.2238C47.2269 21.4568 47.2299 21.4567 47.2329 21.4566C47.2356 21.4565 47.2383 21.4564 47.241 21.4564C49.0571 21.4564 50.6195 22.5633 51.2925 24.1389H55.2727Z" fill="black"/>
<path fill-rule="evenodd" clip-rule="evenodd" d="M40.1329 17.8125H4.39834C3.93674 17.8125 3.5625 18.2113 3.5625 18.7031C3.5625 19.195 3.93674 19.5938 4.39834 19.5938H40.1329C40.5945 19.5938 40.9688 19.195 40.9688 18.7031C40.9688 18.2113 40.5945 17.8125 40.1329 17.8125Z" fill="black"/>
</svg>
