<svg width="123" height="35" viewBox="0 0 123 35" fill="none" xmlns="http://www.w3.org/2000/svg">
<path fill-rule="evenodd" clip-rule="evenodd" d="M48.6083 17.2503H43.8784V29.9109H48.6083C50.4114 29.9109 51.6561 29.4551 52.3458 28.5492C53.0312 27.6429 53.3736 25.9838 53.3736 23.5809C53.3736 21.1819 53.0312 19.5319 52.3458 18.6166C51.6561 17.7061 50.4114 17.2503 48.6083 17.2503ZM39.7937 13.8691H48.6849C51.8095 13.8691 54.1177 14.6849 55.6054 16.3219C57.0933 17.9538 57.8371 20.4877 57.8371 23.9233C57.8371 25.6952 57.5893 27.2146 57.0933 28.4908C56.593 29.7618 55.8489 30.7942 54.8528 31.5879C54.0863 32.2056 53.2702 32.6429 52.3954 32.9043C51.5255 33.1614 50.3258 33.2921 48.8067 33.2921H39.7937V13.8691ZM66.25 33.2921L57.7832 13.8691H62.4179L68.2567 28.3371L74.2395 13.8691H78.5861L70.4702 33.2921H66.25ZM83.9195 33.2921H79.6454V13.8691H83.9195V33.2921ZM97.049 17.3316H92.0399V22.2279H97.049C98.406 22.2279 99.3482 22.0434 99.8757 21.6737C100.403 21.3035 100.669 20.668 100.669 19.766C100.669 18.8734 100.413 18.2469 99.8984 17.8818C99.3799 17.5164 98.4332 17.3316 97.049 17.3316ZM87.9549 13.8691H98.0136C100.358 13.8691 102.076 14.3425 103.167 15.2847C104.263 16.2269 104.808 17.7061 104.808 19.7121C104.808 21.2046 104.47 22.4218 103.798 23.364C103.122 24.3063 102.153 24.9151 100.881 25.1901L105.728 33.2921H101.134L96.8506 25.6635H92.0399V33.2921H87.9549V13.8691ZM116.251 17.2503C114.768 17.2503 113.654 17.6205 112.901 18.3643C112.148 19.1035 111.729 20.2397 111.652 21.7681L122.96 21.7817V25.1496H111.625C111.634 26.8404 111.995 28.0576 112.703 28.8014C113.411 29.5413 114.592 29.9109 116.251 29.9109H122.96V33.2921H116.053C114.529 33.2921 113.334 33.1614 112.464 32.9043C111.594 32.6429 110.773 32.2056 110.007 31.5879C109.015 30.7942 108.271 29.7618 107.771 28.4908C107.274 27.2146 107.026 25.6952 107.026 23.9233C107.026 20.4877 107.771 17.9538 109.258 16.3219C110.742 14.6849 113.045 13.8691 116.17 13.8691H122.96V17.2503H116.251Z" fill="black"/>
<path fill-rule="evenodd" clip-rule="evenodd" d="M29.0999 6.6858L37.1106 6.6841C36.9091 8.2242 30.4466 18.6205 29.154 20.9137L20.8318 34.9563C20.1988 34.3315 16.8797 28.7331 16.8265 28.1333C16.7054 26.7673 27.4408 9.9162 28.6773 6.6782L4.1366 6.6858L0 0.0318L32.7277 0C31.7327 2.4151 30.1513 4.138 29.0999 6.6858Z" fill="#101923"/>
<path fill-rule="evenodd" clip-rule="evenodd" d="M8.35604 27.834L4.21114 21.2173C3.04024 19.1398 1.11094 16.3023 0.325439 14.2396L16.0007 14.2271L8.35604 27.834Z" fill="#9CCB3B"/>
</svg>
