<svg width="40" height="52" viewBox="0 0 40 52" fill="none" xmlns="http://www.w3.org/2000/svg">
<path fill-rule="evenodd" clip-rule="evenodd" d="M15.4849 51.4427C15.2358 51.5732 14.9746 51.68 14.7051 51.7614C14.4418 51.8398 14.1723 51.8965 13.8996 51.9308C13.621 51.965 13.3404 51.9819 13.0597 51.9813C12.571 51.9886 12.0845 51.9143 11.6207 51.7614C11.2104 51.623 10.8336 51.4014 10.5143 51.1107C10.2083 50.833 9.96894 50.4907 9.81382 50.109C9.65492 49.7072 9.57579 49.2788 9.58079 48.8472C9.58079 48.3224 9.67253 47.8625 9.85602 47.4675C10.031 47.0841 10.2945 46.747 10.6253 46.4835C10.96 46.2197 11.3428 46.0224 11.7528 45.9025C12.1857 45.7764 12.6347 45.7134 13.0858 45.7154C13.7837 45.7154 14.5747 45.8696 15.4588 46.178V47.7977C15.1703 47.6185 14.8684 47.4617 14.5556 47.3287C14.2592 47.2045 13.9098 47.1421 13.5074 47.1415C13.1618 47.139 12.8198 47.2111 12.5051 47.3528C12.2051 47.4845 11.9456 47.6926 11.7528 47.9561C11.5619 48.2233 11.4626 48.5443 11.4693 48.8718C11.4674 49.1723 11.5536 49.4669 11.7175 49.7197C11.8878 49.9808 12.1253 50.1919 12.4056 50.3312C12.7138 50.4862 13.0555 50.5643 13.401 50.5588C13.6869 50.5604 13.9718 50.5243 14.2482 50.4514C14.4791 50.392 14.7039 50.3115 14.9198 50.211C15.1125 50.1172 15.2999 50.013 15.4812 49.8991L15.4849 51.4427Z" fill="#00529C"/>
<path fill-rule="evenodd" clip-rule="evenodd" d="M23.2241 51.9006H21.5727L18.3837 48.502V51.9006H16.5488V45.7991H18.1938L21.3736 49.18V45.7991H23.2231L23.2241 51.9006Z" fill="#00529C"/>
<path fill-rule="evenodd" clip-rule="evenodd" d="M30.3819 51.4691C30.2489 51.5192 30.1342 51.5601 30.0397 51.5925C29.9452 51.6248 29.8539 51.6539 29.7672 51.6808C29.6805 51.7077 29.5535 51.7409 29.3883 51.7819C29.1107 51.8457 28.8299 51.895 28.547 51.9294C28.2537 51.964 27.9585 51.9808 27.6631 51.98C27.069 51.9859 26.4801 51.8706 25.9328 51.6412C25.4137 51.4231 24.9716 51.0569 24.6626 50.5889C24.3452 50.1135 24.1863 49.5295 24.186 48.8367C24.1865 48.3875 24.2698 47.9421 24.4319 47.5226C24.58 47.1152 24.8406 46.7574 25.1837 46.4899C25.4409 46.2883 25.7252 46.1233 26.0282 45.9995C26.2969 45.8908 26.5776 45.8144 26.8645 45.7718C27.1629 45.7319 27.4638 45.7127 27.7649 45.7145C28.3062 45.7145 28.7527 45.755 29.1044 45.836C29.4561 45.9171 29.8418 46.0233 30.2617 46.1548V47.5987C29.9809 47.4365 29.6854 47.3009 29.3792 47.1934C29.0688 47.0853 28.6816 47.0312 28.2177 47.0309C27.6822 47.0309 27.2541 47.1315 26.9333 47.3328C26.6125 47.534 26.3892 47.7738 26.2636 48.0522C26.1434 48.3058 26.0791 48.582 26.075 48.8622C26.0722 49.16 26.1473 49.4534 26.2929 49.7137C26.4453 49.9813 26.6733 50.1987 26.9489 50.3389C27.2415 50.4965 27.5948 50.5749 28.0085 50.5743C28.2626 50.5726 28.5156 50.5421 28.7626 50.4833V49.7652H27.9287V48.5358H30.3819V51.4691Z" fill="#00529C"/>
<path fill-rule="evenodd" clip-rule="evenodd" d="M0 19.8347C0 8.87916 8.94633 0 19.9817 0C31.0188 0 39.9638 8.88007 39.9638 19.8347C39.9638 30.7893 31.0183 39.6694 19.9817 39.6694C8.94495 39.6694 0 30.7902 0 19.8347ZM37.239 19.8347C37.239 10.3895 29.4972 2.70473 19.9817 2.70473C10.4683 2.70473 2.72477 10.3891 2.72477 19.8347C2.72477 29.2803 10.4661 36.9646 19.9817 36.9646C29.4972 36.9646 37.239 29.2798 37.239 19.8347Z" fill="#00529C"/>
<path fill-rule="evenodd" clip-rule="evenodd" d="M21.1927 6.43481C20.512 7.61005 19.9964 8.75341 19.7501 9.86946C19.4955 10.9805 19.5138 12.0027 19.7579 12.9143C19.9648 13.8318 20.5088 14.6683 21.0817 15.4952C21.4331 15.8923 21.6854 16.3285 22.1129 16.7014C22.3056 16.8958 22.4863 17.1003 22.6721 17.2997L23.3822 18.0738L24.1102 18.9175C24.3395 19.214 24.54 19.5505 24.7496 19.8683C24.94 20.2048 25.1716 20.5012 25.3193 20.8701C25.4753 21.2316 25.6368 21.5899 25.7744 21.956C25.9368 22.3094 25.9964 22.7156 26.0955 23.098C26.1785 23.4869 26.2849 23.8662 26.2845 24.2687C26.3047 24.6662 26.3253 25.061 26.3304 25.4526L26.1854 26.6165C25.9122 28.0809 25.2948 29.4608 24.3836 30.644C23.9571 31.2033 23.4684 31.713 22.9267 32.1634C22.4044 32.6161 21.8207 32.994 21.1927 33.2858C22.2418 30.8056 22.8258 28.4274 22.6244 26.382C22.5579 25.3574 22.1982 24.4449 21.7868 23.5689C21.6547 23.3571 21.5455 23.1377 21.4313 22.9209C21.3326 22.6996 21.1326 22.5075 20.9932 22.2989C20.8386 22.0926 20.718 21.8732 20.5482 21.6715L20.0033 21.0795L18.7152 19.5933C18.2304 19.0605 17.8285 18.3889 17.4359 17.7478C17.2267 17.4418 17.0927 17.0511 16.9313 16.7005C16.7845 16.333 16.6102 15.9974 16.5317 15.5895C16.44 15.196 16.3446 14.8058 16.2689 14.416C16.24 14.0062 16.223 13.5964 16.2134 13.1966C16.2519 11.5638 16.8556 10.012 17.7776 8.86042C18.001 8.56581 18.2675 8.31082 18.5143 8.05219C18.7895 7.81495 19.0492 7.5759 19.34 7.37692C19.9025 6.96595 20.5281 6.64782 21.1927 6.43481V6.43481Z" fill="#00529C"/>
<path fill-rule="evenodd" clip-rule="evenodd" d="M13.5181 21.0077C13.8665 20.9764 14.2168 20.9698 14.5662 20.9881C14.9162 21.0064 15.2777 21.0136 15.6171 21.0979C15.9566 21.1821 16.2965 21.2873 16.6364 21.4034C16.8084 21.4558 16.9769 21.5188 17.141 21.5919C17.2988 21.6784 17.4621 21.7618 17.6171 21.8569C18.9217 22.5254 19.9956 23.7589 20.5988 25.155C21.2107 26.5611 21.3158 28.1147 21.0286 29.5076C20.7263 30.8968 20.1112 32.1968 19.0479 33.1567C18.9249 31.7597 18.8227 30.5417 18.6502 29.4038C18.4777 28.2659 18.2089 27.2541 17.8126 26.3298C17.4075 25.4145 16.9139 24.5275 16.147 23.7043C16.0552 23.5991 15.9717 23.4816 15.8827 23.3678C15.7938 23.2539 15.6731 23.1706 15.5727 23.0622C15.3621 22.8573 15.1534 22.6365 14.9401 22.4052C14.4938 21.9685 13.997 21.5623 13.5181 21.0077Z" fill="#00529C"/>
</svg>

