<svg width="280" height="525" viewBox="0 0 280 525" fill="none" xmlns="http://www.w3.org/2000/svg">
<path fill-rule="evenodd" clip-rule="evenodd" d="M35.6688 81.114L44.4945 613.259H214.04L230.064 51.6992L177.847 59.5823L125.452 67.5164L35.6688 81.114Z" fill="url(#paint0_linear_0_813)"/>
<g style="mix-blend-mode:screen">
<path fill-rule="evenodd" clip-rule="evenodd" d="M53.5032 74.336L86.5243 607.911H174.777L160.124 57.0474L53.5032 74.336Z" fill="url(#paint1_linear_0_813)"/>
</g>
<path fill-rule="evenodd" clip-rule="evenodd" d="M35.6688 78.4399L44.2789 611.476H49.9363L44.6015 78.4399H35.6688Z" fill="url(#paint2_linear_0_813)"/>
<path fill-rule="evenodd" clip-rule="evenodd" d="M112.357 65.9609L96.152 68.5216C96.152 68.5216 66.9326 117.84 54.3007 128.287C41.6687 138.735 33.8854 146.622 33.8854 146.622V155.097C39.3189 155.019 44.6652 153.715 49.5286 151.282C58.6389 147.083 68.8721 131.77 72.9807 124.856C77.0892 117.942 112.357 65.9609 112.357 65.9609Z" fill="url(#paint3_linear_0_813)"/>
<path fill-rule="evenodd" clip-rule="evenodd" d="M78.4714 147.818C90.4596 148.313 102.467 147.573 114.306 145.611C127.263 143.348 139.271 137.281 148.829 128.168C165.525 111.868 171.982 84.198 176.561 57.0474L123.567 65.1199C120.995 67.456 118.422 69.8959 116.133 72.4915C98.1252 91.9331 84.7225 118.746 78.4714 147.818Z" fill="url(#paint4_linear_0_813)"/>
<path fill-rule="evenodd" clip-rule="evenodd" d="M228.481 131.965L170.257 139.053L167.643 126.393L230.064 119.443L228.481 131.965Z" fill="url(#paint5_linear_0_813)"/>
<path fill-rule="evenodd" clip-rule="evenodd" d="M219.363 49.9165C219.363 49.9165 208.505 84.0304 200.394 96.9473C192.283 109.864 185.39 114.297 185.39 114.297L169.427 117.66L197.932 53.1011L219.363 49.9165Z" fill="url(#paint6_linear_0_813)"/>
<g style="mix-blend-mode:multiply">
<path fill-rule="evenodd" clip-rule="evenodd" d="M35.6688 193.417L35.8213 194.721L91.6754 188.456V305.546L37.7535 310.379V311.683L91.7771 306.85V423.939L39.8127 427.417V428.721L91.9296 425.294V542.358L41.5923 544.404V545.708L91.8788 543.662V611.476H93.1754V543.611L153.58 541.054L150.428 609.993H151.724L154.826 541.182L214.188 538.778V537.474L154.953 539.878L160.292 420.871L217.646 417.061V415.756L160.266 419.362L165.631 300.176L221.129 295.215V293.911L165.783 298.872L171.147 179.507L224.713 173.523L224.561 172.219L171.173 178.202L176.613 57.0474H175.317L169.952 178.381L92.8957 186.999V69.8073H91.5991V187.152L35.6688 193.417ZM153.656 539.699L93.1754 542.256L93.0737 425.218L158.995 420.871L153.656 539.699ZM93.1754 423.837L159.148 419.515L164.487 300.355L93.0737 306.748L93.1754 423.837ZM164.665 299.025L93.1754 305.443L93.0737 188.329L170.003 179.711L164.665 299.025Z" fill="#E0A7A6"/>
</g>
<g style="mix-blend-mode:screen">
<path fill-rule="evenodd" clip-rule="evenodd" d="M37.4522 195.188L37.6048 196.466L93.8402 190.177V307.234L39.7912 312.066V313.369L93.7385 308.538V425.595L41.5453 429.02V430.324L93.6622 426.899V543.93L43.2995 546.205V547.509L93.6114 545.464V613.259H94.908V545.413L155.313 542.856L152.237 611.521H153.533L156.609 542.728L215.972 540.325V539.022L156.736 541.373L161.999 422.527L219.429 418.744V417.465L162.126 421.223L167.465 301.968L222.988 296.983L222.861 295.705L167.414 300.639L172.753 181.332L226.497 175.248L226.344 173.97L172.956 179.926L178.397 58.8301H177.1L171.634 180.156L94.6792 188.771V71.612H93.3826V188.925L37.4522 195.188ZM155.414 541.373L94.9588 543.93L94.8571 426.745L160.753 422.425L155.414 541.373ZM94.9588 425.544L160.83 421.223L166.168 302.096L94.7554 308.512L94.9588 425.544ZM166.423 300.766L94.9588 307.157L94.6537 190.075L171.583 181.485L166.423 300.766Z" fill="url(#paint7_linear_0_813)"/>
</g>
<path fill-rule="evenodd" clip-rule="evenodd" d="M212.229 613.259H252.939L271.172 145.5L271.734 131.705L274.65 56.6022C268.973 48.019 252.147 37.9797 228.339 41.8626V50.9311L226.345 119.903L226.064 130.53L212.229 613.259Z" fill="url(#paint8_linear_0_813)"/>
<g style="mix-blend-mode:screen">
<path fill-rule="evenodd" clip-rule="evenodd" d="M244.331 49.6133L221.174 609.694H214.013L229.609 48.1338L244.331 49.6133Z" fill="url(#paint9_linear_0_813)"/>
</g>
<path fill-rule="evenodd" clip-rule="evenodd" d="M228.28 128.73C244.119 128.948 259.505 134.423 272.317 144.401L272.866 129.96C270.537 127.96 267.947 126.338 265.177 125.146C253.633 119.797 241.125 117.258 228.555 117.712L228.28 128.73Z" fill="#ED9B74"/>
<path fill-rule="evenodd" clip-rule="evenodd" d="M42.4513 613.259H37.9505L28.5351 71.3091L61.5668 72.7933L62.4204 75.1476L33.4756 79.4724L42.4513 613.259Z" fill="url(#paint10_linear_0_813)"/>
<path fill-rule="evenodd" clip-rule="evenodd" d="M29.4267 71.3091L39.2356 613.259H29.0773L19.6178 78.603C19.9134 76.2485 24.0519 72.7423 29.4267 71.3091Z" fill="url(#paint11_linear_0_813)"/>
<path fill-rule="evenodd" clip-rule="evenodd" d="M35.6687 157.166L31.0703 156.221L21.9232 160.446L21.4012 152.97L35.5444 147.967L35.6687 157.166Z" fill="#F29E77"/>
<path fill-rule="evenodd" clip-rule="evenodd" d="M174.777 33.8721C169.689 65.516 164.602 101.764 144.48 121.351C135.032 130.281 123.154 136.22 110.341 138.419C98.6386 140.397 86.7638 141.164 74.9045 140.709C81.137 112.142 94.3397 85.8658 112.147 66.9405C129.954 48.0152 152.366 36.0597 174.777 33.8721Z" fill="url(#paint12_linear_0_813)"/>
<path fill-rule="evenodd" clip-rule="evenodd" d="M7.13376 146.339L9.37454 155.097C15.5622 152.997 23.1503 151.768 32.0879 149.617C46.9841 144.495 59.2574 129.922 69.1627 114.197C79.068 98.4726 87.3691 80.9037 98.1401 66.2289C121.108 34.7023 155.738 26.635 186.804 19.2079C186.651 20.7445 186.524 22.2556 186.345 23.7666C184.524 41.4989 181.253 59.0502 176.567 76.2426C171.857 93.8883 164.167 110.689 157.419 127.233C197.167 120.882 242.39 110.791 278.574 135.249L280 124.211C269.538 116.523 257.238 111.76 244.351 110.407C222.376 107.462 201.063 111.303 179.47 114.684L171.093 115.99C188.917 79.8793 199.103 40.2854 203.762 0C185.429 2.40739 167.019 5.42944 149.194 12.4467C130.215 19.7236 113.44 31.831 100.508 47.5844C87.7765 63.2068 78.8643 82.9526 68.5516 101.162C63.4821 110.413 57.3176 119.012 50.1924 126.772C41.592 135.77 30.3111 141.703 18.0576 143.675C14.3304 144.159 10.6672 145.052 7.13376 146.339Z" fill="#FFC14D"/>
<path fill-rule="evenodd" clip-rule="evenodd" d="M33.3536 148.988C48.1514 143.905 60.3394 129.445 70.2215 113.867C80.1036 98.2889 88.3134 80.8301 99.0063 66.2683C121.887 34.9848 156.373 26.9797 187.261 19.6099C187.261 21.1346 186.983 22.6086 186.805 24.1334C185.335 24.4384 137.901 33.46 113.196 57.4754C80.8638 88.9114 76.4802 122.101 55.0436 140.322C50.3464 144.87 44.7658 148.4 38.6494 150.691C34.9844 151.816 31.2408 152.666 27.4496 153.232C24.2703 153.47 21.14 154.154 18.1503 155.265C17.5929 155.57 16.9847 156.078 17.0861 156.688C17.1785 157.068 17.4149 157.396 17.7449 157.603C19.2309 158.49 20.9086 159.005 22.6353 159.102C22.6353 160.043 22.4072 161.288 22.4579 162.228C19.9115 161.992 17.4208 161.339 15.0843 160.297C12.7336 159.111 11.1004 156.857 10.7007 154.249L33.3536 148.988Z" fill="#CF5F1F"/>
<path fill-rule="evenodd" clip-rule="evenodd" d="M224.713 4.78543C222.819 20.8936 218.502 36.6208 211.909 51.4308L199.681 53.2946C194.506 73.861 187.132 93.8067 177.687 112.785L169.427 114.095C187.002 78.5566 197.045 39.6183 201.64 0L224.713 4.78543Z" fill="#CF5F1F"/>
<path fill-rule="evenodd" clip-rule="evenodd" d="M176.561 35.631C176.561 35.631 170.359 91.867 156.541 112.847C142.723 133.827 107.006 139.053 107.006 139.053L107.264 138.645C120.225 136.441 132.239 130.49 141.796 121.54C162.382 101.911 167.374 65.5844 172.443 33.8721L176.561 35.631Z" fill="#ED9B74"/>
<path fill-rule="evenodd" clip-rule="evenodd" d="M158.726 127.109L166.373 131.523C166.373 131.523 211.538 121.345 245.234 126.771C258.87 128.978 273.093 139.053 273.093 139.053L280 135.236C243.781 110.439 198.437 120.67 158.803 127.083L158.726 127.109Z" fill="#CF5F1F"/>
<path fill-rule="evenodd" clip-rule="evenodd" d="M203.312 0C192.613 1.18233 181.979 2.91087 171.45 5.17909C160.883 7.49611 150.592 10.969 140.757 15.5373C130.902 20.0573 121.709 25.9486 113.442 33.0426C105.205 40.241 98.0106 48.5934 92.074 57.8504C86.0776 67.0174 80.9959 76.7282 75.9142 86.3354C71.0638 96.0724 65.6771 105.522 59.7799 114.639C53.6819 123.521 46.6691 132.067 37.3951 137.557C32.8215 140.368 27.8877 142.521 22.7344 143.953C17.4402 144.878 12.2243 146.22 7.13367 147.967C12.238 146.382 17.4534 145.196 22.7344 144.419C28.0659 143.162 33.1977 141.149 37.9795 138.437C42.6591 135.675 46.9355 132.258 50.6837 128.286C54.4235 124.311 57.8714 120.062 60.9995 115.571C67.0718 106.489 72.5793 97.027 77.4896 87.2418C82.5712 77.6087 87.6529 68.0014 93.6747 58.938C99.4894 49.8025 106.528 41.5397 114.586 34.3892C122.722 27.3342 131.724 21.3887 141.366 16.7026C151.066 12.0639 161.217 8.47922 171.653 6.00774C182.071 3.36641 192.691 1.57962 203.312 0Z" fill="#FEF4DA"/>
<path fill-rule="evenodd" clip-rule="evenodd" d="M280 121.226C272.537 115.817 263.821 111.949 254.479 109.901C245.167 107.848 235.599 106.863 226.008 106.972C216.469 107.153 206.955 107.923 197.536 109.278C188.114 110.593 178.771 112.161 169.427 113.891C178.9 112.992 188.322 111.746 197.743 110.708C207.14 109.574 216.604 108.942 226.085 108.817C235.503 108.617 244.914 109.422 254.117 111.216C263.392 113.022 272.184 116.422 280 121.226Z" fill="#FEF4DA"/>
<path fill-rule="evenodd" clip-rule="evenodd" d="M185.478 23.1753C184.143 32.0731 182.569 40.9197 180.647 49.7152C178.726 58.5107 176.644 67.2295 174.108 75.8461C171.612 84.511 168.645 93.0453 165.221 101.414C161.885 109.801 158.335 118.111 155.159 126.574C159.109 118.417 163.166 110.261 166.662 101.951C170.347 93.6246 173.485 85.0851 176.057 76.383C178.459 67.6642 180.594 58.8942 182.195 50.022C183.834 41.142 184.93 32.1778 185.478 23.1753L185.478 23.1753Z" fill="#FEF4DA"/>
<g style="mix-blend-mode:multiply">
<path fill-rule="evenodd" clip-rule="evenodd" d="M200.035 217.493L205.095 220.851L202.578 283.537L56.9331 295.933L51.7197 292.677L149.732 222.29L200.035 217.493Z" fill="#FACDCC"/>
</g>
<path fill-rule="evenodd" clip-rule="evenodd" d="M196.858 213.928L193.5 277.228L151.592 280.606L156.566 283.454L198.247 280.606L201.529 216.348L196.858 213.928Z" fill="#F29E77"/>
<path fill-rule="evenodd" clip-rule="evenodd" d="M146.062 219.276V283.334L48.1528 291.492L52.9151 294.151L150.184 287.387L151.592 220.776L146.062 219.276Z" fill="#F29E77"/>
<path fill-rule="evenodd" clip-rule="evenodd" d="M152.486 282.133L155.023 218.952L197.962 213.928L194.586 278.603L152.486 282.133ZM146.979 282.597V219.88L49.9362 231.089V290.585L146.979 282.597Z" fill="url(#paint13_linear_0_813)"/>
<path fill-rule="evenodd" clip-rule="evenodd" d="M140.892 226.407L51.7196 235.315V283.454H53.731L54.0663 236.928L138.442 228.516L140.892 226.407Z" fill="#F29E77"/>
<path fill-rule="evenodd" clip-rule="evenodd" d="M192.612 219.276L157.178 222.677L155.159 276.323L157.178 274.84L159.87 225.975L190.903 221.015L192.612 219.276Z" fill="#F29E77"/>
<path fill-rule="evenodd" clip-rule="evenodd" d="M140.892 226.407V276.06L51.7196 283.454L53.7568 280.65L137.771 273.454L138.442 228.516L140.892 226.407Z" fill="#FEF4DA"/>
<path fill-rule="evenodd" clip-rule="evenodd" d="M192.612 219.276L190.23 274.84L155.159 276.323L157.178 274.84L187.539 272.206L190.903 221.015L192.612 219.276Z" fill="#FEF4DA"/>
<g style="mix-blend-mode:multiply">
<path fill-rule="evenodd" clip-rule="evenodd" d="M200.044 301.281L205.095 304.636L202.557 364.443L56.9245 372.59L51.7197 369.362L149.714 304.611L200.044 301.281Z" fill="#FACDCC"/>
</g>
<path fill-rule="evenodd" clip-rule="evenodd" d="M196.822 297.716L193.49 360.24L151.592 362.511L156.553 365.46L198.247 363.737L201.529 300.221L196.822 297.716Z" fill="#F29E77"/>
<path fill-rule="evenodd" clip-rule="evenodd" d="M146.068 303.064V363.049L48.1528 368.178L52.9285 370.808L150.198 366.967L151.592 304.636L146.068 303.064Z" fill="#F29E77"/>
<path fill-rule="evenodd" clip-rule="evenodd" d="M151.231 361.803L153.759 301.454L196.178 297.716L192.867 359.586L151.231 361.803ZM145.821 362.086V302.098L49.9362 310.322V367.242L145.821 362.086Z" fill="url(#paint14_linear_0_813)"/>
<path fill-rule="evenodd" clip-rule="evenodd" d="M139.108 304.847L53.5033 311.519V360.059L55.45 360.111L55.7495 313.194L136.762 306.914L139.108 304.847Z" fill="#F29E77"/>
<path fill-rule="evenodd" clip-rule="evenodd" d="M190.828 303.064L155.386 305.49L153.376 358.329L155.386 356.905L158.1 308.812L189.132 304.725L190.828 303.064Z" fill="#F29E77"/>
<path fill-rule="evenodd" clip-rule="evenodd" d="M139.108 304.847V354.952L53.5033 360.111L55.45 357.309L136.113 352.228L136.762 306.916L139.108 304.847Z" fill="#FEF4DA"/>
<path fill-rule="evenodd" clip-rule="evenodd" d="M190.828 303.064L188.453 357.775L153.376 358.329L155.386 356.905L185.765 355.112L189.132 304.725L190.828 303.064Z" fill="#FEF4DA"/>
<g style="mix-blend-mode:multiply">
<path fill-rule="evenodd" clip-rule="evenodd" d="M200.044 381.504L205.095 385.006L202.557 445.112L56.9245 449.248L51.7197 445.848L149.714 383.433L200.044 381.504Z" fill="#FACDCC"/>
</g>
<path fill-rule="evenodd" clip-rule="evenodd" d="M196.822 379.722L193.49 443.243L151.592 444.305L156.553 447.465L198.247 446.934L201.529 382.404L196.822 379.722Z" fill="#F29E77"/>
<path fill-rule="evenodd" clip-rule="evenodd" d="M146.068 379.722V438.844L48.1528 441.181L52.9285 443.9L150.198 442.807L151.592 381.399L146.068 379.722Z" fill="#F29E77"/>
<path fill-rule="evenodd" clip-rule="evenodd" d="M151.231 441.414L153.759 382.106L196.178 379.722L192.867 440.399L151.231 441.414ZM145.821 441.566V382.537L49.9362 387.915V443.9L145.821 441.566Z" fill="url(#paint15_linear_0_813)"/>
<path fill-rule="evenodd" clip-rule="evenodd" d="M139.108 386.853L53.5033 390.785V436.67L55.45 436.769L55.7495 392.443L136.762 388.757L139.108 386.853Z" fill="#F29E77"/>
<path fill-rule="evenodd" clip-rule="evenodd" d="M190.828 385.07L155.386 386.428L153.376 436.769L155.386 435.487L158.1 389.671L189.132 386.604L190.828 385.07Z" fill="#F29E77"/>
<path fill-rule="evenodd" clip-rule="evenodd" d="M139.108 386.853V434.266L53.5033 436.769L55.45 434.167L136.113 431.614L136.762 388.761L139.108 386.853Z" fill="#FEF4DA"/>
<path fill-rule="evenodd" clip-rule="evenodd" d="M190.828 385.07L188.453 436.769L153.376 436.345L155.386 435.073L185.765 434.175L189.132 386.591L190.828 385.07Z" fill="#FEF4DA"/>
<defs>
<linearGradient id="paint0_linear_0_813" x1="237.145" y1="103.602" x2="150.271" y2="697.191" gradientUnits="userSpaceOnUse">
<stop stop-color="#FF8652"/>
<stop offset="0.17" stop-color="#F97B52"/>
<stop offset="0.48" stop-color="#E95D52"/>
<stop offset="0.89" stop-color="#CF2D53"/>
<stop offset="1" stop-color="#C71E53"/>
</linearGradient>
<linearGradient id="paint1_linear_0_813" x1="135.086" y1="-45.8454" x2="309.984" y2="44.9572" gradientUnits="userSpaceOnUse">
<stop stop-color="#4E6952"/>
<stop offset="0.16" stop-color="#49624D"/>
<stop offset="0.39" stop-color="#3B503E"/>
<stop offset="0.66" stop-color="#253127"/>
<stop offset="0.95" stop-color="#060706"/>
<stop offset="1"/>
</linearGradient>
<linearGradient id="paint2_linear_0_813" x1="41.1439" y1="129.461" x2="56.3149" y2="129.016" gradientUnits="userSpaceOnUse">
<stop stop-color="#DB324F"/>
<stop offset="1" stop-color="#B3155C"/>
</linearGradient>
<linearGradient id="paint3_linear_0_813" x1="28.6283" y1="159.739" x2="20.7682" y2="52.7308" gradientUnits="userSpaceOnUse">
<stop stop-color="#DB324F"/>
<stop offset="1" stop-color="#B3155C"/>
</linearGradient>
<linearGradient id="paint4_linear_0_813" x1="71.9037" y1="158.001" x2="66.6415" y2="49.3567" gradientUnits="userSpaceOnUse">
<stop stop-color="#DB324F"/>
<stop offset="1" stop-color="#B3155C"/>
</linearGradient>
<linearGradient id="paint5_linear_0_813" x1="16.6996" y1="153.066" x2="16.1092" y2="37.6396" gradientUnits="userSpaceOnUse">
<stop stop-color="#DB324F"/>
<stop offset="1" stop-color="#B3155C"/>
</linearGradient>
<linearGradient id="paint6_linear_0_813" x1="158.877" y1="153.104" x2="147.585" y2="47.0535" gradientUnits="userSpaceOnUse">
<stop stop-color="#DB324F"/>
<stop offset="1" stop-color="#B3155C"/>
</linearGradient>
<linearGradient id="paint7_linear_0_813" x1="194.258" y1="-19.0198" x2="511.624" y2="263.938" gradientUnits="userSpaceOnUse">
<stop stop-color="#4E6952"/>
<stop offset="0.16" stop-color="#49624D"/>
<stop offset="0.39" stop-color="#3B503E"/>
<stop offset="0.66" stop-color="#253127"/>
<stop offset="0.95" stop-color="#060706"/>
<stop offset="1"/>
</linearGradient>
<linearGradient id="paint8_linear_0_813" x1="322.301" y1="819.26" x2="215.64" y2="819.218" gradientUnits="userSpaceOnUse">
<stop stop-color="#FA8C6E"/>
<stop offset="0.35" stop-color="#F2C785"/>
<stop offset="0.4" stop-color="#F3CB8C"/>
<stop offset="0.8" stop-color="#FBE8C4"/>
<stop offset="1" stop-color="#FEF4DA"/>
</linearGradient>
<linearGradient id="paint9_linear_0_813" x1="233.511" y1="-34.7406" x2="288.777" y2="-29.0753" gradientUnits="userSpaceOnUse">
<stop stop-color="#D2E3B6"/>
<stop offset="0.1" stop-color="#CCDCB1"/>
<stop offset="0.23" stop-color="#BBCAA2"/>
<stop offset="0.39" stop-color="#9EAB89"/>
<stop offset="0.57" stop-color="#778167"/>
<stop offset="0.77" stop-color="#454A3C"/>
<stop offset="0.97" stop-color="#080907"/>
<stop offset="1"/>
</linearGradient>
<linearGradient id="paint10_linear_0_813" x1="30.4943" y1="625.51" x2="-234.997" y2="313.599" gradientUnits="userSpaceOnUse">
<stop stop-color="#FA8C6E"/>
<stop offset="0.45" stop-color="#F2C785"/>
<stop offset="0.49" stop-color="#F3CB8C"/>
<stop offset="0.83" stop-color="#FBE8C4"/>
<stop offset="1" stop-color="#FEF4DA"/>
</linearGradient>
<linearGradient id="paint11_linear_0_813" x1="-8.83087" y1="-521.649" x2="53.7581" y2="-521.65" gradientUnits="userSpaceOnUse">
<stop stop-color="#FA8C6E"/>
<stop offset="0.35" stop-color="#F2C785"/>
<stop offset="0.4" stop-color="#F3CB8C"/>
<stop offset="0.8" stop-color="#FBE8C4"/>
<stop offset="1" stop-color="#FEF4DA"/>
</linearGradient>
<linearGradient id="paint12_linear_0_813" x1="135.688" y1="262.889" x2="4.48951" y2="113.45" gradientUnits="userSpaceOnUse">
<stop stop-color="#FA8C6E"/>
<stop offset="0.35" stop-color="#F2C785"/>
<stop offset="0.4" stop-color="#F3CB8C"/>
<stop offset="0.8" stop-color="#FBE8C4"/>
<stop offset="1" stop-color="#FEF4DA"/>
</linearGradient>
<linearGradient id="paint13_linear_0_813" x1="7.03672" y1="340.851" x2="4.9867" y2="214.269" gradientUnits="userSpaceOnUse">
<stop stop-color="#FA8C6E"/>
<stop offset="0.35" stop-color="#F2C785"/>
<stop offset="0.4" stop-color="#F3CB8C"/>
<stop offset="0.8" stop-color="#FBE8C4"/>
<stop offset="1" stop-color="#FEF4DA"/>
</linearGradient>
<linearGradient id="paint14_linear_0_813" x1="0.907122" y1="416.434" x2="-0.73377" y2="295.489" gradientUnits="userSpaceOnUse">
<stop stop-color="#FA8C6E"/>
<stop offset="0.35" stop-color="#F2C785"/>
<stop offset="0.4" stop-color="#F3CB8C"/>
<stop offset="0.8" stop-color="#FBE8C4"/>
<stop offset="1" stop-color="#FEF4DA"/>
</linearGradient>
<linearGradient id="paint15_linear_0_813" x1="-7.64954" y1="495.68" x2="-9.04762" y2="376.53" gradientUnits="userSpaceOnUse">
<stop stop-color="#FA8C6E"/>
<stop offset="0.35" stop-color="#F2C785"/>
<stop offset="0.4" stop-color="#F3CB8C"/>
<stop offset="0.8" stop-color="#FBE8C4"/>
<stop offset="1" stop-color="#FEF4DA"/>
</linearGradient>
</defs>
</svg>
