<svg width="513" height="399" viewBox="0 0 513 399" fill="none" xmlns="http://www.w3.org/2000/svg">
<path d="M1.9274 361.5H511.073" stroke="black" stroke-width="2" stroke-linecap="square"/>
<path d="M3 321.5H512" stroke="#EDEDED" stroke-linecap="square"/>
<path d="M3 281.5H512" stroke="#EDEDED" stroke-linecap="square"/>
<path d="M3 241.5H512" stroke="#EDEDED" stroke-linecap="square"/>
<path d="M3 201.5H512" stroke="#EDEDED" stroke-linecap="square"/>
<path d="M3 161.5H512" stroke="#EDEDED" stroke-linecap="square"/>
<path d="M3 121.5H512" stroke="#EDEDED" stroke-linecap="square"/>
<path d="M3 81.5H512" stroke="#EDEDED" stroke-linecap="square"/>
<path d="M3 41.5H512" stroke="#EDEDED" stroke-linecap="square"/>
<path d="M3 1.5H512" stroke="#EDEDED" stroke-linecap="square"/>
<path d="M53.5 320.5L453 106" stroke="#ABABAB" stroke-width="2" stroke-linecap="square"/>
<circle cx="52.5" cy="320.5" r="7.5" fill="#11B5BA"/>
<path d="M35.8943 274.228V272.356L41.3023 265.076H43.7183V272.276H45.1903V274.228H43.7183V276.5H41.4463V274.228H35.8943ZM41.6223 267.716L38.1983 272.276H41.6223V267.716ZM48.8038 274.148V276.5H46.3718V274.148H48.8038ZM50.0748 274.724C53.6908 272.217 55.4988 270.137 55.4988 268.484C55.4988 267.983 55.3761 267.588 55.1308 267.3C54.8961 267.012 54.5228 266.868 54.0108 266.868C52.9548 266.868 52.3948 267.588 52.3308 269.028H50.1388C50.2028 267.695 50.6081 266.687 51.3548 266.004C52.1015 265.311 53.0455 264.964 54.1868 264.964C55.3495 264.964 56.2401 265.268 56.8588 265.876C57.4881 266.473 57.8028 267.273 57.8028 268.276C57.8028 269.065 57.5681 269.86 57.0988 270.66C56.6401 271.449 56.0535 272.18 55.3388 272.852C54.6241 273.513 53.8721 274.084 53.0828 274.564H58.0268V276.404H50.0748V274.724ZM61.7373 265.028C62.484 265.028 63.092 265.257 63.5613 265.716C64.0413 266.164 64.2813 266.788 64.2813 267.588C64.2813 268.388 64.0413 269.017 63.5613 269.476C63.092 269.924 62.484 270.148 61.7373 270.148C60.9906 270.148 60.3773 269.924 59.8973 269.476C59.428 269.017 59.1933 268.388 59.1933 267.588C59.1933 266.788 59.428 266.164 59.8973 265.716C60.3773 265.257 60.9906 265.028 61.7373 265.028ZM68.9693 265.172L62.6813 276.5H60.5053L66.7933 265.172H68.9693ZM60.7133 267.588C60.7133 267.951 60.804 268.244 60.9853 268.468C61.1666 268.681 61.412 268.788 61.7213 268.788C62.0306 268.788 62.2813 268.681 62.4733 268.468C62.6653 268.244 62.7613 267.951 62.7613 267.588C62.7613 267.225 62.6653 266.937 62.4733 266.724C62.2813 266.5 62.0306 266.388 61.7213 266.388C61.412 266.388 61.1666 266.5 60.9853 266.724C60.804 266.937 60.7133 267.225 60.7133 267.588ZM67.7533 271.524C68.5 271.524 69.108 271.753 69.5773 272.212C70.0466 272.66 70.2813 273.284 70.2813 274.084C70.2813 274.884 70.0466 275.513 69.5773 275.972C69.108 276.42 68.5 276.644 67.7533 276.644C67.0066 276.644 66.3933 276.42 65.9133 275.972C65.444 275.513 65.2093 274.884 65.2093 274.084C65.2093 273.284 65.444 272.66 65.9133 272.212C66.3933 271.753 67.0066 271.524 67.7533 271.524ZM66.7293 274.084C66.7293 274.457 66.82 274.756 67.0013 274.98C67.1826 275.193 67.428 275.3 67.7373 275.3C68.0466 275.3 68.2973 275.193 68.4893 274.98C68.6813 274.756 68.7773 274.457 68.7773 274.084C68.7773 273.721 68.6813 273.428 68.4893 273.204C68.2973 272.98 68.0466 272.868 67.7373 272.868C67.428 272.868 67.1826 272.98 67.0013 273.204C66.82 273.417 66.7293 273.711 66.7293 274.084Z" fill="black"/>
<circle cx="132.5" cy="276.5" r="7.5" fill="#11B5BA"/>
<path d="M121.967 223.776C121.797 222.667 121.231 222.112 120.271 222.112C119.525 222.112 118.981 222.443 118.639 223.104C118.298 223.755 118.149 224.779 118.191 226.176C118.362 225.664 118.693 225.259 119.183 224.96C119.685 224.651 120.266 224.496 120.927 224.496C122.015 224.496 122.869 224.827 123.487 225.488C124.117 226.139 124.431 227.067 124.431 228.272C124.431 229.019 124.282 229.68 123.983 230.256C123.685 230.832 123.237 231.285 122.639 231.616C122.053 231.947 121.338 232.112 120.495 232.112C118.853 232.112 117.722 231.605 117.103 230.592C116.485 229.568 116.175 228.16 116.175 226.368C116.175 224.309 116.506 222.784 117.167 221.792C117.839 220.8 118.922 220.304 120.415 220.304C121.557 220.304 122.431 220.629 123.039 221.28C123.647 221.931 123.994 222.763 124.079 223.776H121.967ZM118.383 228.112C118.383 228.709 118.554 229.205 118.895 229.6C119.247 229.984 119.759 230.176 120.431 230.176C121.007 230.176 121.466 230.005 121.807 229.664C122.149 229.323 122.319 228.848 122.319 228.24C122.319 227.6 122.143 227.109 121.791 226.768C121.45 226.427 120.986 226.256 120.399 226.256C119.845 226.256 119.37 226.416 118.975 226.736C118.581 227.056 118.383 227.515 118.383 228.112ZM128.327 229.648V232H125.895V229.648H128.327ZM133.822 220.272C134.59 220.272 135.246 220.405 135.79 220.672C136.345 220.939 136.761 221.307 137.038 221.776C137.326 222.245 137.47 222.768 137.47 223.344C137.47 224.069 137.273 224.667 136.878 225.136C136.484 225.595 135.961 225.877 135.31 225.984V226.064C136.889 226.533 137.678 227.461 137.678 228.848C137.678 229.819 137.353 230.608 136.702 231.216C136.052 231.813 135.134 232.112 133.95 232.112C132.692 232.112 131.689 231.803 130.942 231.184C130.196 230.555 129.78 229.611 129.694 228.352H131.902C131.956 228.928 132.142 229.387 132.462 229.728C132.793 230.059 133.257 230.224 133.854 230.224C134.366 230.224 134.766 230.085 135.054 229.808C135.342 229.52 135.486 229.147 135.486 228.688C135.486 228.144 135.278 227.728 134.862 227.44C134.446 227.152 133.833 227.008 133.022 227.008H132.558V225.168H133.022C134.516 225.189 135.262 224.672 135.262 223.616C135.262 223.157 135.129 222.8 134.862 222.544C134.596 222.277 134.233 222.144 133.774 222.144C133.294 222.144 132.9 222.299 132.59 222.608C132.281 222.907 132.105 223.328 132.062 223.872H129.854C129.918 222.72 130.292 221.835 130.974 221.216C131.657 220.587 132.606 220.272 133.822 220.272ZM141.776 220.528C142.523 220.528 143.131 220.757 143.6 221.216C144.08 221.664 144.32 222.288 144.32 223.088C144.32 223.888 144.08 224.517 143.6 224.976C143.131 225.424 142.523 225.648 141.776 225.648C141.03 225.648 140.416 225.424 139.936 224.976C139.467 224.517 139.232 223.888 139.232 223.088C139.232 222.288 139.467 221.664 139.936 221.216C140.416 220.757 141.03 220.528 141.776 220.528ZM149.008 220.672L142.72 232H140.544L146.832 220.672H149.008ZM140.752 223.088C140.752 223.451 140.843 223.744 141.024 223.968C141.206 224.181 141.451 224.288 141.76 224.288C142.07 224.288 142.32 224.181 142.512 223.968C142.704 223.744 142.8 223.451 142.8 223.088C142.8 222.725 142.704 222.437 142.512 222.224C142.32 222 142.07 221.888 141.76 221.888C141.451 221.888 141.206 222 141.024 222.224C140.843 222.437 140.752 222.725 140.752 223.088ZM147.792 227.024C148.539 227.024 149.147 227.253 149.616 227.712C150.086 228.16 150.32 228.784 150.32 229.584C150.32 230.384 150.086 231.013 149.616 231.472C149.147 231.92 148.539 232.144 147.792 232.144C147.046 232.144 146.432 231.92 145.952 231.472C145.483 231.013 145.248 230.384 145.248 229.584C145.248 228.784 145.483 228.16 145.952 227.712C146.432 227.253 147.046 227.024 147.792 227.024ZM146.768 229.584C146.768 229.957 146.859 230.256 147.04 230.48C147.222 230.693 147.467 230.8 147.776 230.8C148.086 230.8 148.336 230.693 148.528 230.48C148.72 230.256 148.816 229.957 148.816 229.584C148.816 229.221 148.72 228.928 148.528 228.704C148.336 228.48 148.086 228.368 147.776 228.368C147.467 228.368 147.222 228.48 147.04 228.704C146.859 228.917 146.768 229.211 146.768 229.584Z" fill="black"/>
<circle cx="212.5" cy="234.5" r="7.5" fill="#11B5BA"/>
<path d="M195.796 181.28C195.796 180.736 195.945 180.229 196.244 179.76C196.553 179.291 197.006 178.912 197.604 178.624C198.212 178.336 198.942 178.192 199.796 178.192C200.649 178.192 201.374 178.336 201.972 178.624C202.58 178.912 203.033 179.291 203.332 179.76C203.641 180.229 203.796 180.736 203.796 181.28C203.796 181.899 203.646 182.427 203.348 182.864C203.049 183.291 202.601 183.611 202.004 183.824C202.676 184.08 203.188 184.453 203.54 184.944C203.902 185.424 204.084 186.011 204.084 186.704C204.084 187.451 203.897 188.096 203.524 188.64C203.15 189.173 202.638 189.579 201.988 189.856C201.348 190.133 200.617 190.272 199.796 190.272C198.974 190.272 198.238 190.133 197.588 189.856C196.948 189.579 196.441 189.173 196.068 188.64C195.705 188.096 195.524 187.451 195.524 186.704C195.524 186.011 195.7 185.424 196.052 184.944C196.414 184.453 196.932 184.08 197.604 183.824C197.006 183.611 196.553 183.285 196.244 182.848C195.945 182.411 195.796 181.888 195.796 181.28ZM198.02 181.648C198.02 182.16 198.18 182.555 198.5 182.832C198.82 183.109 199.252 183.248 199.796 183.248C200.35 183.248 200.788 183.109 201.108 182.832C201.428 182.555 201.588 182.16 201.588 181.648C201.588 181.136 201.422 180.741 201.092 180.464C200.772 180.176 200.34 180.032 199.796 180.032C199.262 180.032 198.83 180.176 198.5 180.464C198.18 180.741 198.02 181.136 198.02 181.648ZM197.716 186.576C197.716 187.141 197.902 187.589 198.276 187.92C198.649 188.251 199.156 188.416 199.796 188.416C200.436 188.416 200.942 188.251 201.316 187.92C201.7 187.589 201.892 187.141 201.892 186.576C201.892 186 201.694 185.563 201.3 185.264C200.916 184.955 200.414 184.8 199.796 184.8C199.188 184.8 198.686 184.955 198.292 185.264C197.908 185.563 197.716 186 197.716 186.576ZM207.991 187.648V190H205.559V187.648H207.991ZM209.294 187.728V185.856L214.702 178.576H217.118V185.776H218.59V187.728H217.118V190H214.846V187.728H209.294ZM215.022 181.216L211.598 185.776H215.022V181.216ZM222.3 178.528C223.046 178.528 223.654 178.757 224.124 179.216C224.604 179.664 224.844 180.288 224.844 181.088C224.844 181.888 224.604 182.517 224.124 182.976C223.654 183.424 223.046 183.648 222.3 183.648C221.553 183.648 220.94 183.424 220.46 182.976C219.99 182.517 219.756 181.888 219.756 181.088C219.756 180.288 219.99 179.664 220.46 179.216C220.94 178.757 221.553 178.528 222.3 178.528ZM229.532 178.672L223.244 190H221.068L227.356 178.672H229.532ZM221.276 181.088C221.276 181.451 221.366 181.744 221.548 181.968C221.729 182.181 221.974 182.288 222.284 182.288C222.593 182.288 222.844 182.181 223.036 181.968C223.228 181.744 223.324 181.451 223.324 181.088C223.324 180.725 223.228 180.437 223.036 180.224C222.844 180 222.593 179.888 222.284 179.888C221.974 179.888 221.729 180 221.548 180.224C221.366 180.437 221.276 180.725 221.276 181.088ZM228.316 185.024C229.062 185.024 229.67 185.253 230.14 185.712C230.609 186.16 230.844 186.784 230.844 187.584C230.844 188.384 230.609 189.013 230.14 189.472C229.67 189.92 229.062 190.144 228.316 190.144C227.569 190.144 226.956 189.92 226.476 189.472C226.006 189.013 225.772 188.384 225.772 187.584C225.772 186.784 226.006 186.16 226.476 185.712C226.956 185.253 227.569 185.024 228.316 185.024ZM227.292 187.584C227.292 187.957 227.382 188.256 227.564 188.48C227.745 188.693 227.99 188.8 228.3 188.8C228.609 188.8 228.86 188.693 229.052 188.48C229.244 188.256 229.34 187.957 229.34 187.584C229.34 187.221 229.244 186.928 229.052 186.704C228.86 186.48 228.609 186.368 228.3 186.368C227.99 186.368 227.745 186.48 227.564 186.704C227.382 186.917 227.292 187.211 227.292 187.584Z" fill="black"/>
<circle cx="297.5" cy="188.5" r="7.5" fill="#11B5BA"/>
<path d="M276.823 134.816V132.704H280.887V144H278.519V134.816H276.823ZM282.865 138.256C282.865 142.085 284.305 144 287.185 144C288.71 144 289.809 143.488 290.481 142.464C291.153 141.44 291.489 140.037 291.489 138.256C291.489 136.485 291.153 135.088 290.481 134.064C289.809 133.04 288.71 132.528 287.185 132.528C284.305 132.528 282.865 134.437 282.865 138.256ZM289.265 138.256C289.265 139.419 289.121 140.315 288.833 140.944C288.555 141.563 288.006 141.872 287.185 141.872C286.353 141.872 285.793 141.563 285.505 140.944C285.227 140.315 285.089 139.419 285.089 138.256C285.089 137.104 285.227 136.219 285.505 135.6C285.793 134.971 286.353 134.656 287.185 134.656C288.006 134.656 288.555 134.971 288.833 135.6C289.121 136.219 289.265 137.104 289.265 138.256ZM295.318 141.648V144H292.886V141.648H295.318ZM297.085 135.28C297.085 134.736 297.234 134.229 297.533 133.76C297.842 133.291 298.296 132.912 298.893 132.624C299.501 132.336 300.232 132.192 301.085 132.192C301.938 132.192 302.664 132.336 303.261 132.624C303.869 132.912 304.322 133.291 304.621 133.76C304.93 134.229 305.085 134.736 305.085 135.28C305.085 135.899 304.936 136.427 304.637 136.864C304.338 137.291 303.89 137.611 303.293 137.824C303.965 138.08 304.477 138.453 304.829 138.944C305.192 139.424 305.373 140.011 305.373 140.704C305.373 141.451 305.186 142.096 304.813 142.64C304.44 143.173 303.928 143.579 303.277 143.856C302.637 144.133 301.906 144.272 301.085 144.272C300.264 144.272 299.528 144.133 298.877 143.856C298.237 143.579 297.73 143.173 297.357 142.64C296.994 142.096 296.813 141.451 296.813 140.704C296.813 140.011 296.989 139.424 297.341 138.944C297.704 138.453 298.221 138.08 298.893 137.824C298.296 137.611 297.842 137.285 297.533 136.848C297.234 136.411 297.085 135.888 297.085 135.28ZM299.309 135.648C299.309 136.16 299.469 136.555 299.789 136.832C300.109 137.109 300.541 137.248 301.085 137.248C301.64 137.248 302.077 137.109 302.397 136.832C302.717 136.555 302.877 136.16 302.877 135.648C302.877 135.136 302.712 134.741 302.381 134.464C302.061 134.176 301.629 134.032 301.085 134.032C300.552 134.032 300.12 134.176 299.789 134.464C299.469 134.741 299.309 135.136 299.309 135.648ZM299.005 140.576C299.005 141.141 299.192 141.589 299.565 141.92C299.938 142.251 300.445 142.416 301.085 142.416C301.725 142.416 302.232 142.251 302.605 141.92C302.989 141.589 303.181 141.141 303.181 140.576C303.181 140 302.984 139.563 302.589 139.264C302.205 138.955 301.704 138.8 301.085 138.8C300.477 138.8 299.976 138.955 299.581 139.264C299.197 139.563 299.005 140 299.005 140.576ZM309.376 132.528C310.123 132.528 310.731 132.757 311.2 133.216C311.68 133.664 311.92 134.288 311.92 135.088C311.92 135.888 311.68 136.517 311.2 136.976C310.731 137.424 310.123 137.648 309.376 137.648C308.63 137.648 308.016 137.424 307.536 136.976C307.067 136.517 306.832 135.888 306.832 135.088C306.832 134.288 307.067 133.664 307.536 133.216C308.016 132.757 308.63 132.528 309.376 132.528ZM316.608 132.672L310.32 144H308.144L314.432 132.672H316.608ZM308.352 135.088C308.352 135.451 308.443 135.744 308.624 135.968C308.806 136.181 309.051 136.288 309.36 136.288C309.67 136.288 309.92 136.181 310.112 135.968C310.304 135.744 310.4 135.451 310.4 135.088C310.4 134.725 310.304 134.437 310.112 134.224C309.92 134 309.67 133.888 309.36 133.888C309.051 133.888 308.806 134 308.624 134.224C308.443 134.437 308.352 134.725 308.352 135.088ZM315.392 139.024C316.139 139.024 316.747 139.253 317.216 139.712C317.686 140.16 317.92 140.784 317.92 141.584C317.92 142.384 317.686 143.013 317.216 143.472C316.747 143.92 316.139 144.144 315.392 144.144C314.646 144.144 314.032 143.92 313.552 143.472C313.083 143.013 312.848 142.384 312.848 141.584C312.848 140.784 313.083 140.16 313.552 139.712C314.032 139.253 314.646 139.024 315.392 139.024ZM314.368 141.584C314.368 141.957 314.459 142.256 314.64 142.48C314.822 142.693 315.067 142.8 315.376 142.8C315.686 142.8 315.936 142.693 316.128 142.48C316.32 142.256 316.416 141.957 316.416 141.584C316.416 141.221 316.32 140.928 316.128 140.704C315.936 140.48 315.686 140.368 315.376 140.368C315.067 140.368 314.822 140.48 314.64 140.704C314.459 140.917 314.368 141.211 314.368 141.584Z" fill="black"/>
<circle cx="385.5" cy="141.5" r="7.5" fill="#11B5BA"/>
<path d="M364.683 87.816V85.704H368.747V97H366.379V87.816H364.683ZM374.788 85.272C375.556 85.272 376.212 85.4053 376.756 85.672C377.311 85.9387 377.727 86.3067 378.004 86.776C378.292 87.2453 378.436 87.768 378.436 88.344C378.436 89.0693 378.239 89.6667 377.844 90.136C377.449 90.5947 376.927 90.8773 376.276 90.984V91.064C377.855 91.5333 378.644 92.4613 378.644 93.848C378.644 94.8187 378.319 95.608 377.668 96.216C377.017 96.8133 376.1 97.112 374.916 97.112C373.657 97.112 372.655 96.8027 371.908 96.184C371.161 95.5547 370.745 94.6107 370.66 93.352H372.868C372.921 93.928 373.108 94.3867 373.428 94.728C373.759 95.0587 374.223 95.224 374.82 95.224C375.332 95.224 375.732 95.0853 376.02 94.808C376.308 94.52 376.452 94.1467 376.452 93.688C376.452 93.144 376.244 92.728 375.828 92.44C375.412 92.152 374.799 92.008 373.988 92.008H373.524V90.168H373.988C375.481 90.1893 376.228 89.672 376.228 88.616C376.228 88.1573 376.095 87.8 375.828 87.544C375.561 87.2773 375.199 87.144 374.74 87.144C374.26 87.144 373.865 87.2987 373.556 87.608C373.247 87.9067 373.071 88.328 373.028 88.872H370.82C370.884 87.72 371.257 86.8347 371.94 86.216C372.623 85.5867 373.572 85.272 374.788 85.272ZM382.646 94.648V97H380.214V94.648H382.646ZM390.061 88.776C389.89 87.6667 389.325 87.112 388.365 87.112C387.618 87.112 387.074 87.4427 386.733 88.104C386.392 88.7547 386.242 89.7787 386.285 91.176C386.456 90.664 386.786 90.2587 387.277 89.96C387.778 89.6507 388.36 89.496 389.021 89.496C390.109 89.496 390.962 89.8267 391.581 90.488C392.21 91.1387 392.525 92.0667 392.525 93.272C392.525 94.0187 392.376 94.68 392.077 95.256C391.778 95.832 391.33 96.2853 390.733 96.616C390.146 96.9467 389.432 97.112 388.589 97.112C386.946 97.112 385.816 96.6053 385.197 95.592C384.578 94.568 384.269 93.16 384.269 91.368C384.269 89.3093 384.6 87.784 385.261 86.792C385.933 85.8 387.016 85.304 388.509 85.304C389.65 85.304 390.525 85.6293 391.133 86.28C391.741 86.9307 392.088 87.7627 392.173 88.776H390.061ZM386.477 93.112C386.477 93.7093 386.648 94.2053 386.989 94.6C387.341 94.984 387.853 95.176 388.525 95.176C389.101 95.176 389.56 95.0053 389.901 94.664C390.242 94.3227 390.413 93.848 390.413 93.24C390.413 92.6 390.237 92.1093 389.885 91.768C389.544 91.4267 389.08 91.256 388.493 91.256C387.938 91.256 387.464 91.416 387.069 91.736C386.674 92.056 386.477 92.5147 386.477 93.112ZM396.517 85.528C397.264 85.528 397.872 85.7573 398.341 86.216C398.821 86.664 399.061 87.288 399.061 88.088C399.061 88.888 398.821 89.5173 398.341 89.976C397.872 90.424 397.264 90.648 396.517 90.648C395.77 90.648 395.157 90.424 394.677 89.976C394.208 89.5173 393.973 88.888 393.973 88.088C393.973 87.288 394.208 86.664 394.677 86.216C395.157 85.7573 395.77 85.528 396.517 85.528ZM403.749 85.672L397.461 97H395.285L401.573 85.672H403.749ZM395.493 88.088C395.493 88.4507 395.584 88.744 395.765 88.968C395.946 89.1813 396.192 89.288 396.501 89.288C396.81 89.288 397.061 89.1813 397.253 88.968C397.445 88.744 397.541 88.4507 397.541 88.088C397.541 87.7253 397.445 87.4373 397.253 87.224C397.061 87 396.81 86.888 396.501 86.888C396.192 86.888 395.946 87 395.765 87.224C395.584 87.4373 395.493 87.7253 395.493 88.088ZM402.533 92.024C403.28 92.024 403.888 92.2533 404.357 92.712C404.826 93.16 405.061 93.784 405.061 94.584C405.061 95.384 404.826 96.0133 404.357 96.472C403.888 96.92 403.28 97.144 402.533 97.144C401.786 97.144 401.173 96.92 400.693 96.472C400.224 96.0133 399.989 95.384 399.989 94.584C399.989 93.784 400.224 93.16 400.693 92.712C401.173 92.2533 401.786 92.024 402.533 92.024ZM401.509 94.584C401.509 94.9573 401.6 95.256 401.781 95.48C401.962 95.6933 402.208 95.8 402.517 95.8C402.826 95.8 403.077 95.6933 403.269 95.48C403.461 95.256 403.557 94.9573 403.557 94.584C403.557 94.2213 403.461 93.928 403.269 93.704C403.077 93.48 402.826 93.368 402.517 93.368C402.208 93.368 401.962 93.48 401.781 93.704C401.6 93.9173 401.509 94.2107 401.509 94.584Z" fill="black"/>
<circle cx="459.5" cy="102.5" r="7.5" fill="#11B5BA"/>
<path d="M437.378 48.816V46.704H441.442V58H439.074V48.816H437.378ZM449.403 49.776C449.233 48.6667 448.667 48.112 447.707 48.112C446.961 48.112 446.417 48.4427 446.075 49.104C445.734 49.7547 445.585 50.7787 445.627 52.176C445.798 51.664 446.129 51.2587 446.619 50.96C447.121 50.6507 447.702 50.496 448.363 50.496C449.451 50.496 450.305 50.8267 450.923 51.488C451.553 52.1387 451.867 53.0667 451.867 54.272C451.867 55.0187 451.718 55.68 451.419 56.256C451.121 56.832 450.673 57.2853 450.075 57.616C449.489 57.9467 448.774 58.112 447.931 58.112C446.289 58.112 445.158 57.6053 444.539 56.592C443.921 55.568 443.611 54.16 443.611 52.368C443.611 50.3093 443.942 48.784 444.603 47.792C445.275 46.8 446.358 46.304 447.851 46.304C448.993 46.304 449.867 46.6293 450.475 47.28C451.083 47.9307 451.43 48.7627 451.515 49.776H449.403ZM445.819 54.112C445.819 54.7093 445.99 55.2053 446.331 55.6C446.683 55.984 447.195 56.176 447.867 56.176C448.443 56.176 448.902 56.0053 449.243 55.664C449.585 55.3227 449.755 54.848 449.755 54.24C449.755 53.6 449.579 53.1093 449.227 52.768C448.886 52.4267 448.422 52.256 447.835 52.256C447.281 52.256 446.806 52.416 446.411 52.736C446.017 53.056 445.819 53.5147 445.819 54.112ZM455.763 55.648V58H453.331V55.648H455.763ZM457.53 49.28C457.53 48.736 457.68 48.2293 457.978 47.76C458.288 47.2907 458.741 46.912 459.338 46.624C459.946 46.336 460.677 46.192 461.53 46.192C462.384 46.192 463.109 46.336 463.706 46.624C464.314 46.912 464.768 47.2907 465.066 47.76C465.376 48.2293 465.53 48.736 465.53 49.28C465.53 49.8987 465.381 50.4267 465.082 50.864C464.784 51.2907 464.336 51.6107 463.738 51.824C464.41 52.08 464.922 52.4533 465.274 52.944C465.637 53.424 465.818 54.0107 465.818 54.704C465.818 55.4507 465.632 56.096 465.258 56.64C464.885 57.1733 464.373 57.5787 463.722 57.856C463.082 58.1333 462.352 58.272 461.53 58.272C460.709 58.272 459.973 58.1333 459.322 57.856C458.682 57.5787 458.176 57.1733 457.802 56.64C457.44 56.096 457.258 55.4507 457.258 54.704C457.258 54.0107 457.434 53.424 457.786 52.944C458.149 52.4533 458.666 52.08 459.338 51.824C458.741 51.6107 458.288 51.2853 457.978 50.848C457.68 50.4107 457.53 49.888 457.53 49.28ZM459.754 49.648C459.754 50.16 459.914 50.5547 460.234 50.832C460.554 51.1093 460.986 51.248 461.53 51.248C462.085 51.248 462.522 51.1093 462.842 50.832C463.162 50.5547 463.322 50.16 463.322 49.648C463.322 49.136 463.157 48.7413 462.826 48.464C462.506 48.176 462.074 48.032 461.53 48.032C460.997 48.032 460.565 48.176 460.234 48.464C459.914 48.7413 459.754 49.136 459.754 49.648ZM459.45 54.576C459.45 55.1413 459.637 55.5893 460.01 55.92C460.384 56.2507 460.89 56.416 461.53 56.416C462.17 56.416 462.677 56.2507 463.05 55.92C463.434 55.5893 463.626 55.1413 463.626 54.576C463.626 54 463.429 53.5627 463.034 53.264C462.65 52.9547 462.149 52.8 461.53 52.8C460.922 52.8 460.421 52.9547 460.026 53.264C459.642 53.5627 459.45 54 459.45 54.576ZM469.822 46.528C470.568 46.528 471.176 46.7573 471.646 47.216C472.126 47.664 472.366 48.288 472.366 49.088C472.366 49.888 472.126 50.5173 471.646 50.976C471.176 51.424 470.568 51.648 469.822 51.648C469.075 51.648 468.462 51.424 467.982 50.976C467.512 50.5173 467.278 49.888 467.278 49.088C467.278 48.288 467.512 47.664 467.982 47.216C468.462 46.7573 469.075 46.528 469.822 46.528ZM477.054 46.672L470.766 58H468.59L474.878 46.672H477.054ZM468.798 49.088C468.798 49.4507 468.888 49.744 469.07 49.968C469.251 50.1813 469.496 50.288 469.806 50.288C470.115 50.288 470.366 50.1813 470.558 49.968C470.75 49.744 470.846 49.4507 470.846 49.088C470.846 48.7253 470.75 48.4373 470.558 48.224C470.366 48 470.115 47.888 469.806 47.888C469.496 47.888 469.251 48 469.07 48.224C468.888 48.4373 468.798 48.7253 468.798 49.088ZM475.838 53.024C476.584 53.024 477.192 53.2533 477.662 53.712C478.131 54.16 478.366 54.784 478.366 55.584C478.366 56.384 478.131 57.0133 477.662 57.472C477.192 57.92 476.584 58.144 475.838 58.144C475.091 58.144 474.478 57.92 473.998 57.472C473.528 57.0133 473.294 56.384 473.294 55.584C473.294 54.784 473.528 54.16 473.998 53.712C474.478 53.2533 475.091 53.024 475.838 53.024ZM474.814 55.584C474.814 55.9573 474.904 56.256 475.086 56.48C475.267 56.6933 475.512 56.8 475.822 56.8C476.131 56.8 476.382 56.6933 476.574 56.48C476.766 56.256 476.862 55.9573 476.862 55.584C476.862 55.2213 476.766 54.928 476.574 54.704C476.382 54.48 476.131 54.368 475.822 54.368C475.512 54.368 475.267 54.48 475.086 54.704C474.904 54.9173 474.814 55.2107 474.814 55.584Z" fill="black"/>
<path d="M34.1123 386.224C37.7283 383.717 39.5363 381.637 39.5363 379.984C39.5363 379.483 39.4136 379.088 39.1683 378.8C38.9336 378.512 38.5603 378.368 38.0483 378.368C36.9923 378.368 36.4323 379.088 36.3683 380.528H34.1763C34.2403 379.195 34.6456 378.187 35.3923 377.504C36.139 376.811 37.083 376.464 38.2243 376.464C39.387 376.464 40.2776 376.768 40.8963 377.376C41.5256 377.973 41.8403 378.773 41.8403 379.776C41.8403 380.565 41.6056 381.36 41.1363 382.16C40.6776 382.949 40.091 383.68 39.3763 384.352C38.6616 385.013 37.9096 385.584 37.1203 386.064H42.0643V387.904H34.1123V386.224ZM43.5348 382.256C43.5348 386.085 44.9748 388 47.8548 388C49.3801 388 50.4788 387.488 51.1508 386.464C51.8228 385.44 52.1588 384.037 52.1588 382.256C52.1588 380.485 51.8228 379.088 51.1508 378.064C50.4788 377.04 49.3801 376.528 47.8548 376.528C44.9748 376.528 43.5348 378.437 43.5348 382.256ZM49.9348 382.256C49.9348 383.419 49.7908 384.315 49.5028 384.944C49.2255 385.563 48.6761 385.872 47.8548 385.872C47.0228 385.872 46.4628 385.563 46.1748 384.944C45.8975 384.315 45.7588 383.419 45.7588 382.256C45.7588 381.104 45.8975 380.219 46.1748 379.6C46.4628 378.971 47.0228 378.656 47.8548 378.656C48.6761 378.656 49.2255 378.971 49.5028 379.6C49.7908 380.219 49.9348 381.104 49.9348 382.256ZM53.6842 386.224C57.3002 383.717 59.1082 381.637 59.1082 379.984C59.1082 379.483 58.9855 379.088 58.7402 378.8C58.5055 378.512 58.1322 378.368 57.6202 378.368C56.5642 378.368 56.0042 379.088 55.9402 380.528H53.7482C53.8122 379.195 54.2175 378.187 54.9642 377.504C55.7109 376.811 56.6549 376.464 57.7962 376.464C58.9589 376.464 59.8495 376.768 60.4682 377.376C61.0975 377.973 61.4122 378.773 61.4122 379.776C61.4122 380.565 61.1775 381.36 60.7082 382.16C60.2495 382.949 59.6629 383.68 58.9482 384.352C58.2335 385.013 57.4815 385.584 56.6922 386.064H61.6362V387.904H53.6842V386.224ZM71.1867 378.464H65.8267V381.312C66.072 381.024 66.408 380.795 66.8347 380.624C67.272 380.443 67.752 380.352 68.2747 380.352C69.0534 380.352 69.6987 380.523 70.2107 380.864C70.7334 381.195 71.1174 381.643 71.3627 382.208C71.6187 382.763 71.7467 383.381 71.7467 384.064C71.7467 385.269 71.4054 386.235 70.7227 386.96C70.0507 387.685 69.0854 388.048 67.8267 388.048C67.0054 388.048 66.2907 387.904 65.6827 387.616C65.0747 387.317 64.6 386.907 64.2587 386.384C63.9174 385.851 63.7307 385.232 63.6987 384.528H65.8907C65.976 385.008 66.1734 385.392 66.4827 385.68C66.792 385.957 67.2027 386.096 67.7147 386.096C68.3334 386.096 68.792 385.909 69.0907 385.536C69.4 385.152 69.5547 384.645 69.5547 384.016C69.5547 383.419 69.3947 382.955 69.0747 382.624C68.7547 382.293 68.3014 382.128 67.7147 382.128C67.288 382.128 66.9254 382.224 66.6267 382.416C66.328 382.597 66.1094 382.843 65.9707 383.152H63.7787V376.48H71.1867V378.464Z" fill="black"/>
<path d="M116.175 385.724C119.791 383.217 121.599 381.137 121.599 379.484C121.599 378.983 121.476 378.588 121.231 378.3C120.996 378.012 120.623 377.868 120.111 377.868C119.055 377.868 118.495 378.588 118.431 380.028H116.239C116.303 378.695 116.708 377.687 117.455 377.004C118.201 376.311 119.145 375.964 120.287 375.964C121.449 375.964 122.34 376.268 122.959 376.876C123.588 377.473 123.903 378.273 123.903 379.276C123.903 380.065 123.668 380.86 123.199 381.66C122.74 382.449 122.153 383.18 121.439 383.852C120.724 384.513 119.972 385.084 119.183 385.564H124.127V387.404H116.175V385.724ZM125.597 381.756C125.597 385.585 127.037 387.5 129.917 387.5C131.443 387.5 132.541 386.988 133.213 385.964C133.885 384.94 134.221 383.537 134.221 381.756C134.221 379.985 133.885 378.588 133.213 377.564C132.541 376.54 131.443 376.028 129.917 376.028C127.037 376.028 125.597 377.937 125.597 381.756ZM131.997 381.756C131.997 382.919 131.853 383.815 131.565 384.444C131.288 385.063 130.739 385.372 129.917 385.372C129.085 385.372 128.525 385.063 128.237 384.444C127.96 383.815 127.821 382.919 127.821 381.756C127.821 380.604 127.96 379.719 128.237 379.1C128.525 378.471 129.085 378.156 129.917 378.156C130.739 378.156 131.288 378.471 131.565 379.1C131.853 379.719 131.997 380.604 131.997 381.756ZM135.747 385.724C139.363 383.217 141.171 381.137 141.171 379.484C141.171 378.983 141.048 378.588 140.803 378.3C140.568 378.012 140.195 377.868 139.683 377.868C138.627 377.868 138.067 378.588 138.003 380.028H135.811C135.875 378.695 136.28 377.687 137.027 377.004C137.773 376.311 138.717 375.964 139.859 375.964C141.021 375.964 141.912 376.268 142.531 376.876C143.16 377.473 143.475 378.273 143.475 379.276C143.475 380.065 143.24 380.86 142.771 381.66C142.312 382.449 141.725 383.18 141.011 383.852C140.296 384.513 139.544 385.084 138.755 385.564H143.699V387.404H135.747V385.724ZM151.153 379.276C150.983 378.167 150.417 377.612 149.457 377.612C148.711 377.612 148.167 377.943 147.825 378.604C147.484 379.255 147.335 380.279 147.377 381.676C147.548 381.164 147.879 380.759 148.369 380.46C148.871 380.151 149.452 379.996 150.113 379.996C151.201 379.996 152.055 380.327 152.673 380.988C153.303 381.639 153.617 382.567 153.617 383.772C153.617 384.519 153.468 385.18 153.169 385.756C152.871 386.332 152.423 386.785 151.825 387.116C151.239 387.447 150.524 387.612 149.681 387.612C148.039 387.612 146.908 387.105 146.289 386.092C145.671 385.068 145.361 383.66 145.361 381.868C145.361 379.809 145.692 378.284 146.353 377.292C147.025 376.3 148.108 375.804 149.601 375.804C150.743 375.804 151.617 376.129 152.225 376.78C152.833 377.431 153.18 378.263 153.265 379.276H151.153ZM147.569 383.612C147.569 384.209 147.74 384.705 148.081 385.1C148.433 385.484 148.945 385.676 149.617 385.676C150.193 385.676 150.652 385.505 150.993 385.164C151.335 384.823 151.505 384.348 151.505 383.74C151.505 383.1 151.329 382.609 150.977 382.268C150.636 381.927 150.172 381.756 149.585 381.756C149.031 381.756 148.556 381.916 148.161 382.236C147.767 382.556 147.569 383.015 147.569 383.612Z" fill="black"/>
<path d="M198.112 385.724C201.728 383.217 203.536 381.137 203.536 379.484C203.536 378.983 203.414 378.588 203.168 378.3C202.934 378.012 202.56 377.868 202.048 377.868C200.992 377.868 200.432 378.588 200.368 380.028H198.176C198.24 378.695 198.646 377.687 199.392 377.004C200.139 376.311 201.083 375.964 202.224 375.964C203.387 375.964 204.278 376.268 204.896 376.876C205.526 377.473 205.84 378.273 205.84 379.276C205.84 380.065 205.606 380.86 205.136 381.66C204.678 382.449 204.091 383.18 203.376 383.852C202.662 384.513 201.91 385.084 201.12 385.564H206.064V387.404H198.112V385.724ZM207.535 381.756C207.535 385.585 208.975 387.5 211.855 387.5C213.38 387.5 214.479 386.988 215.151 385.964C215.823 384.94 216.159 383.537 216.159 381.756C216.159 379.985 215.823 378.588 215.151 377.564C214.479 376.54 213.38 376.028 211.855 376.028C208.975 376.028 207.535 377.937 207.535 381.756ZM213.935 381.756C213.935 382.919 213.791 383.815 213.503 384.444C213.225 385.063 212.676 385.372 211.855 385.372C211.023 385.372 210.463 385.063 210.175 384.444C209.897 383.815 209.759 382.919 209.759 381.756C209.759 380.604 209.897 379.719 210.175 379.1C210.463 378.471 211.023 378.156 211.855 378.156C212.676 378.156 213.225 378.471 213.503 379.1C213.791 379.719 213.935 380.604 213.935 381.756ZM217.684 385.724C221.3 383.217 223.108 381.137 223.108 379.484C223.108 378.983 222.986 378.588 222.74 378.3C222.506 378.012 222.132 377.868 221.62 377.868C220.564 377.868 220.004 378.588 219.94 380.028H217.748C217.812 378.695 218.218 377.687 218.964 377.004C219.711 376.311 220.655 375.964 221.796 375.964C222.959 375.964 223.85 376.268 224.468 376.876C225.098 377.473 225.412 378.273 225.412 379.276C225.412 380.065 225.178 380.86 224.708 381.66C224.25 382.449 223.663 383.18 222.948 383.852C222.234 384.513 221.482 385.084 220.692 385.564H225.636V387.404H217.684V385.724ZM234.131 377.788L230.003 387.5H227.667L231.843 378.044H226.611V376.108H234.131V377.788Z" fill="black"/>
<path d="M279.081 386.224C282.697 383.717 284.505 381.637 284.505 379.984C284.505 379.483 284.382 379.088 284.137 378.8C283.902 378.512 283.529 378.368 283.017 378.368C281.961 378.368 281.401 379.088 281.337 380.528H279.145C279.209 379.195 279.614 378.187 280.361 377.504C281.108 376.811 282.052 376.464 283.193 376.464C284.356 376.464 285.246 376.768 285.865 377.376C286.494 377.973 286.809 378.773 286.809 379.776C286.809 380.565 286.574 381.36 286.105 382.16C285.646 382.949 285.06 383.68 284.345 384.352C283.63 385.013 282.878 385.584 282.089 386.064H287.033V387.904H279.081V386.224ZM288.504 382.256C288.504 386.085 289.944 388 292.824 388C294.349 388 295.448 387.488 296.12 386.464C296.792 385.44 297.128 384.037 297.128 382.256C297.128 380.485 296.792 379.088 296.12 378.064C295.448 377.04 294.349 376.528 292.824 376.528C289.944 376.528 288.504 378.437 288.504 382.256ZM294.904 382.256C294.904 383.419 294.76 384.315 294.472 384.944C294.194 385.563 293.645 385.872 292.824 385.872C291.992 385.872 291.432 385.563 291.144 384.944C290.866 384.315 290.728 383.419 290.728 382.256C290.728 381.104 290.866 380.219 291.144 379.6C291.432 378.971 291.992 378.656 292.824 378.656C293.645 378.656 294.194 378.971 294.472 379.6C294.76 380.219 294.904 381.104 294.904 382.256ZM298.653 386.224C302.269 383.717 304.077 381.637 304.077 379.984C304.077 379.483 303.954 379.088 303.709 378.8C303.474 378.512 303.101 378.368 302.589 378.368C301.533 378.368 300.973 379.088 300.909 380.528H298.717C298.781 379.195 299.186 378.187 299.933 377.504C300.68 376.811 301.624 376.464 302.765 376.464C303.928 376.464 304.818 376.768 305.437 377.376C306.066 377.973 306.381 378.773 306.381 379.776C306.381 380.565 306.146 381.36 305.677 382.16C305.218 382.949 304.632 383.68 303.917 384.352C303.202 385.013 302.45 385.584 301.661 386.064H306.605V387.904H298.653V386.224ZM308.411 379.28C308.411 378.736 308.561 378.229 308.859 377.76C309.169 377.291 309.622 376.912 310.219 376.624C310.827 376.336 311.558 376.192 312.411 376.192C313.265 376.192 313.99 376.336 314.587 376.624C315.195 376.912 315.649 377.291 315.947 377.76C316.257 378.229 316.411 378.736 316.411 379.28C316.411 379.899 316.262 380.427 315.963 380.864C315.665 381.291 315.217 381.611 314.619 381.824C315.291 382.08 315.803 382.453 316.155 382.944C316.518 383.424 316.699 384.011 316.699 384.704C316.699 385.451 316.513 386.096 316.139 386.64C315.766 387.173 315.254 387.579 314.603 387.856C313.963 388.133 313.233 388.272 312.411 388.272C311.59 388.272 310.854 388.133 310.203 387.856C309.563 387.579 309.057 387.173 308.683 386.64C308.321 386.096 308.139 385.451 308.139 384.704C308.139 384.011 308.315 383.424 308.667 382.944C309.03 382.453 309.547 382.08 310.219 381.824C309.622 381.611 309.169 381.285 308.859 380.848C308.561 380.411 308.411 379.888 308.411 379.28ZM310.635 379.648C310.635 380.16 310.795 380.555 311.115 380.832C311.435 381.109 311.867 381.248 312.411 381.248C312.966 381.248 313.403 381.109 313.723 380.832C314.043 380.555 314.203 380.16 314.203 379.648C314.203 379.136 314.038 378.741 313.707 378.464C313.387 378.176 312.955 378.032 312.411 378.032C311.878 378.032 311.446 378.176 311.115 378.464C310.795 378.741 310.635 379.136 310.635 379.648ZM310.331 384.576C310.331 385.141 310.518 385.589 310.891 385.92C311.265 386.251 311.771 386.416 312.411 386.416C313.051 386.416 313.558 386.251 313.931 385.92C314.315 385.589 314.507 385.141 314.507 384.576C314.507 384 314.31 383.563 313.915 383.264C313.531 382.955 313.03 382.8 312.411 382.8C311.803 382.8 311.302 382.955 310.907 383.264C310.523 383.563 310.331 384 310.331 384.576Z" fill="black"/>
<path d="M360.347 386.224C363.963 383.717 365.771 381.637 365.771 379.984C365.771 379.483 365.648 379.088 365.403 378.8C365.168 378.512 364.795 378.368 364.283 378.368C363.227 378.368 362.667 379.088 362.603 380.528H360.411C360.475 379.195 360.88 378.187 361.627 377.504C362.373 376.811 363.317 376.464 364.459 376.464C365.621 376.464 366.512 376.768 367.131 377.376C367.76 377.973 368.075 378.773 368.075 379.776C368.075 380.565 367.84 381.36 367.371 382.16C366.912 382.949 366.325 383.68 365.611 384.352C364.896 385.013 364.144 385.584 363.355 386.064H368.299V387.904H360.347V386.224ZM369.769 382.256C369.769 386.085 371.209 388 374.089 388C375.615 388 376.713 387.488 377.385 386.464C378.057 385.44 378.393 384.037 378.393 382.256C378.393 380.485 378.057 379.088 377.385 378.064C376.713 377.04 375.615 376.528 374.089 376.528C371.209 376.528 369.769 378.437 369.769 382.256ZM376.169 382.256C376.169 383.419 376.025 384.315 375.737 384.944C375.46 385.563 374.911 385.872 374.089 385.872C373.257 385.872 372.697 385.563 372.409 384.944C372.132 384.315 371.993 383.419 371.993 382.256C371.993 381.104 372.132 380.219 372.409 379.6C372.697 378.971 373.257 378.656 374.089 378.656C374.911 378.656 375.46 378.971 375.737 379.6C376.025 380.219 376.169 381.104 376.169 382.256ZM379.919 386.224C383.535 383.717 385.343 381.637 385.343 379.984C385.343 379.483 385.22 379.088 384.975 378.8C384.74 378.512 384.367 378.368 383.855 378.368C382.799 378.368 382.239 379.088 382.175 380.528H379.983C380.047 379.195 380.452 378.187 381.199 377.504C381.945 376.811 382.889 376.464 384.031 376.464C385.193 376.464 386.084 376.768 386.703 377.376C387.332 377.973 387.647 378.773 387.647 379.776C387.647 380.565 387.412 381.36 386.943 382.16C386.484 382.949 385.897 383.68 385.183 384.352C384.468 385.013 383.716 385.584 382.927 386.064H387.871V387.904H379.919V386.224ZM391.725 384.64C391.896 385.749 392.472 386.304 393.453 386.304C394.2 386.304 394.738 385.979 395.069 385.328C395.4 384.667 395.544 383.637 395.501 382.24C395.33 382.752 394.994 383.163 394.493 383.472C394.002 383.771 393.426 383.92 392.765 383.92C391.677 383.92 390.818 383.595 390.189 382.944C389.57 382.283 389.261 381.349 389.261 380.144C389.261 379.408 389.41 378.752 389.709 378.176C390.008 377.589 390.45 377.131 391.037 376.8C391.634 376.469 392.354 376.304 393.197 376.304C394.84 376.304 395.97 376.805 396.589 377.808C397.208 378.8 397.517 380.181 397.517 381.952C397.517 383.968 397.202 385.499 396.573 386.544C395.954 387.589 394.914 388.112 393.453 388.112C392.674 388.112 392.002 387.957 391.437 387.648C390.882 387.339 390.45 386.923 390.141 386.4C389.842 385.867 389.666 385.28 389.613 384.64H391.725ZM395.309 380.304C395.309 379.707 395.133 379.216 394.781 378.832C394.44 378.437 393.933 378.24 393.261 378.24C392.685 378.24 392.226 378.411 391.885 378.752C391.544 379.093 391.373 379.568 391.373 380.176C391.373 380.816 391.544 381.312 391.885 381.664C392.237 382.005 392.706 382.176 393.293 382.176C393.837 382.176 394.306 382.016 394.701 381.696C395.106 381.365 395.309 380.901 395.309 380.304Z" fill="black"/>
<path d="M441.862 386.224C445.478 383.717 447.286 381.637 447.286 379.984C447.286 379.483 447.164 379.088 446.918 378.8C446.684 378.512 446.31 378.368 445.798 378.368C444.742 378.368 444.182 379.088 444.118 380.528H441.926C441.99 379.195 442.396 378.187 443.142 377.504C443.889 376.811 444.833 376.464 445.974 376.464C447.137 376.464 448.028 376.768 448.646 377.376C449.276 377.973 449.59 378.773 449.59 379.776C449.59 380.565 449.356 381.36 448.886 382.16C448.428 382.949 447.841 383.68 447.126 384.352C446.412 385.013 445.66 385.584 444.87 386.064H449.814V387.904H441.862V386.224ZM451.285 382.256C451.285 386.085 452.725 388 455.605 388C457.13 388 458.229 387.488 458.901 386.464C459.573 385.44 459.909 384.037 459.909 382.256C459.909 380.485 459.573 379.088 458.901 378.064C458.229 377.04 457.13 376.528 455.605 376.528C452.725 376.528 451.285 378.437 451.285 382.256ZM457.685 382.256C457.685 383.419 457.541 384.315 457.253 384.944C456.975 385.563 456.426 385.872 455.605 385.872C454.773 385.872 454.213 385.563 453.925 384.944C453.647 384.315 453.509 383.419 453.509 382.256C453.509 381.104 453.647 380.219 453.925 379.6C454.213 378.971 454.773 378.656 455.605 378.656C456.426 378.656 456.975 378.971 457.253 379.6C457.541 380.219 457.685 381.104 457.685 382.256ZM465.658 376.272C466.426 376.272 467.082 376.405 467.626 376.672C468.181 376.939 468.597 377.307 468.874 377.776C469.162 378.245 469.306 378.768 469.306 379.344C469.306 380.069 469.109 380.667 468.714 381.136C468.32 381.595 467.797 381.877 467.146 381.984V382.064C468.725 382.533 469.514 383.461 469.514 384.848C469.514 385.819 469.189 386.608 468.538 387.216C467.888 387.813 466.97 388.112 465.786 388.112C464.528 388.112 463.525 387.803 462.778 387.184C462.032 386.555 461.616 385.611 461.53 384.352H463.738C463.792 384.928 463.978 385.387 464.298 385.728C464.629 386.059 465.093 386.224 465.69 386.224C466.202 386.224 466.602 386.085 466.89 385.808C467.178 385.52 467.322 385.147 467.322 384.688C467.322 384.144 467.114 383.728 466.698 383.44C466.282 383.152 465.669 383.008 464.858 383.008H464.394V381.168H464.858C466.352 381.189 467.098 380.672 467.098 379.616C467.098 379.157 466.965 378.8 466.698 378.544C466.432 378.277 466.069 378.144 465.61 378.144C465.13 378.144 464.736 378.299 464.426 378.608C464.117 378.907 463.941 379.328 463.898 379.872H461.69C461.754 378.72 462.128 377.835 462.81 377.216C463.493 376.587 464.442 376.272 465.658 376.272ZM471.372 382.256C471.372 386.085 472.812 388 475.692 388C477.218 388 478.316 387.488 478.988 386.464C479.66 385.44 479.996 384.037 479.996 382.256C479.996 380.485 479.66 379.088 478.988 378.064C478.316 377.04 477.218 376.528 475.692 376.528C472.812 376.528 471.372 378.437 471.372 382.256ZM477.772 382.256C477.772 383.419 477.628 384.315 477.34 384.944C477.063 385.563 476.514 385.872 475.692 385.872C474.86 385.872 474.3 385.563 474.012 384.944C473.735 384.315 473.596 383.419 473.596 382.256C473.596 381.104 473.735 380.219 474.012 379.6C474.3 378.971 474.86 378.656 475.692 378.656C476.514 378.656 477.063 378.971 477.34 379.6C477.628 380.219 477.772 381.104 477.772 382.256Z" fill="black"/>
</svg>
