<svg width="513" height="399" viewBox="0 0 513 399" fill="none" xmlns="http://www.w3.org/2000/svg">
<path d="M1.9274 361.5H511.073" stroke="black" stroke-width="2" stroke-linecap="square"/>
<path d="M3 321.5H512" stroke="#EDEDED" stroke-linecap="square"/>
<path d="M3 281.5H512" stroke="#EDEDED" stroke-linecap="square"/>
<path d="M3 241.5H512" stroke="#EDEDED" stroke-linecap="square"/>
<path d="M3 201.5H512" stroke="#EDEDED" stroke-linecap="square"/>
<path d="M3 161.5H512" stroke="#EDEDED" stroke-linecap="square"/>
<path d="M3 121.5H512" stroke="#EDEDED" stroke-linecap="square"/>
<path d="M3 81.5H512" stroke="#EDEDED" stroke-linecap="square"/>
<path d="M3 41.5H512" stroke="#EDEDED" stroke-linecap="square"/>
<path d="M3 1.5H512" stroke="#EDEDED" stroke-linecap="square"/>
<path d="M53.5 320.5L453 106" stroke="#ABABAB" stroke-width="2" stroke-linecap="square"/>
<circle cx="52.5" cy="320.5" r="7.5" fill="#11B5BA"/>
<path d="M41.6626 268.276C41.4919 267.167 40.9266 266.612 39.9666 266.612C39.2199 266.612 38.6759 266.943 38.3346 267.604C37.9932 268.255 37.8439 269.279 37.8866 270.676C38.0572 270.164 38.3879 269.759 38.8786 269.46C39.3799 269.151 39.9612 268.996 40.6226 268.996C41.7106 268.996 42.5639 269.327 43.1826 269.988C43.8119 270.639 44.1266 271.567 44.1266 272.772C44.1266 273.519 43.9772 274.18 43.6786 274.756C43.3799 275.332 42.9319 275.785 42.3346 276.116C41.7479 276.447 41.0332 276.612 40.1906 276.612C38.5479 276.612 37.4172 276.105 36.7986 275.092C36.1799 274.068 35.8706 272.66 35.8706 270.868C35.8706 268.809 36.2012 267.284 36.8626 266.292C37.5346 265.3 38.6172 264.804 40.1106 264.804C41.2519 264.804 42.1266 265.129 42.7346 265.78C43.3426 266.431 43.6892 267.263 43.7746 268.276H41.6626ZM38.0786 272.612C38.0786 273.209 38.2492 273.705 38.5906 274.1C38.9426 274.484 39.4546 274.676 40.1266 274.676C40.7026 274.676 41.1612 274.505 41.5026 274.164C41.8439 273.823 42.0146 273.348 42.0146 272.74C42.0146 272.1 41.8386 271.609 41.4866 271.268C41.1452 270.927 40.6812 270.756 40.0946 270.756C39.5399 270.756 39.0652 270.916 38.6706 271.236C38.2759 271.556 38.0786 272.015 38.0786 272.612ZM48.0226 274.148V276.5H45.5906V274.148H48.0226ZM49.7896 267.78C49.7896 267.236 49.9389 266.729 50.2376 266.26C50.5469 265.791 51.0002 265.412 51.5976 265.124C52.2056 264.836 52.9362 264.692 53.7896 264.692C54.6429 264.692 55.3682 264.836 55.9656 265.124C56.5736 265.412 57.0269 265.791 57.3256 266.26C57.6349 266.729 57.7896 267.236 57.7896 267.78C57.7896 268.399 57.6402 268.927 57.3416 269.364C57.0429 269.791 56.5949 270.111 55.9976 270.324C56.6696 270.58 57.1816 270.953 57.5336 271.444C57.8962 271.924 58.0776 272.511 58.0776 273.204C58.0776 273.951 57.8909 274.596 57.5176 275.14C57.1442 275.673 56.6322 276.079 55.9816 276.356C55.3416 276.633 54.6109 276.772 53.7896 276.772C52.9682 276.772 52.2322 276.633 51.5816 276.356C50.9416 276.079 50.4349 275.673 50.0616 275.14C49.6989 274.596 49.5176 273.951 49.5176 273.204C49.5176 272.511 49.6936 271.924 50.0456 271.444C50.4082 270.953 50.9256 270.58 51.5976 270.324C51.0002 270.111 50.5469 269.785 50.2376 269.348C49.9389 268.911 49.7896 268.388 49.7896 267.78ZM52.0136 268.148C52.0136 268.66 52.1736 269.055 52.4936 269.332C52.8136 269.609 53.2456 269.748 53.7896 269.748C54.3442 269.748 54.7816 269.609 55.1016 269.332C55.4216 269.055 55.5816 268.66 55.5816 268.148C55.5816 267.636 55.4162 267.241 55.0856 266.964C54.7656 266.676 54.3336 266.532 53.7896 266.532C53.2562 266.532 52.8242 266.676 52.4936 266.964C52.1736 267.241 52.0136 267.636 52.0136 268.148ZM51.7096 273.076C51.7096 273.641 51.8962 274.089 52.2696 274.42C52.6429 274.751 53.1496 274.916 53.7896 274.916C54.4296 274.916 54.9362 274.751 55.3096 274.42C55.6936 274.089 55.8856 273.641 55.8856 273.076C55.8856 272.5 55.6882 272.063 55.2936 271.764C54.9096 271.455 54.4082 271.3 53.7896 271.3C53.1816 271.3 52.6802 271.455 52.2856 271.764C51.9016 272.063 51.7096 272.5 51.7096 273.076ZM62.0811 265.028C62.8277 265.028 63.4357 265.257 63.9051 265.716C64.3851 266.164 64.6251 266.788 64.6251 267.588C64.6251 268.388 64.3851 269.017 63.9051 269.476C63.4357 269.924 62.8277 270.148 62.0811 270.148C61.3344 270.148 60.7211 269.924 60.2411 269.476C59.7717 269.017 59.5371 268.388 59.5371 267.588C59.5371 266.788 59.7717 266.164 60.2411 265.716C60.7211 265.257 61.3344 265.028 62.0811 265.028ZM69.3131 265.172L63.0251 276.5H60.8491L67.1371 265.172H69.3131ZM61.0571 267.588C61.0571 267.951 61.1477 268.244 61.3291 268.468C61.5104 268.681 61.7557 268.788 62.0651 268.788C62.3744 268.788 62.6251 268.681 62.8171 268.468C63.0091 268.244 63.1051 267.951 63.1051 267.588C63.1051 267.225 63.0091 266.937 62.8171 266.724C62.6251 266.5 62.3744 266.388 62.0651 266.388C61.7557 266.388 61.5104 266.5 61.3291 266.724C61.1477 266.937 61.0571 267.225 61.0571 267.588ZM68.0971 271.524C68.8437 271.524 69.4517 271.753 69.9211 272.212C70.3904 272.66 70.6251 273.284 70.6251 274.084C70.6251 274.884 70.3904 275.513 69.9211 275.972C69.4517 276.42 68.8437 276.644 68.0971 276.644C67.3504 276.644 66.7371 276.42 66.2571 275.972C65.7877 275.513 65.5531 274.884 65.5531 274.084C65.5531 273.284 65.7877 272.66 66.2571 272.212C66.7371 271.753 67.3504 271.524 68.0971 271.524ZM67.0731 274.084C67.0731 274.457 67.1637 274.756 67.3451 274.98C67.5264 275.193 67.7717 275.3 68.0811 275.3C68.3904 275.3 68.6411 275.193 68.8331 274.98C69.0251 274.756 69.1211 274.457 69.1211 274.084C69.1211 273.721 69.0251 273.428 68.8331 273.204C68.6411 272.98 68.3904 272.868 68.0811 272.868C67.7717 272.868 67.5264 272.98 67.3451 273.204C67.1637 273.417 67.0731 273.711 67.0731 274.084Z" fill="black"/>
<circle cx="102.5" cy="293.5" r="7.5" fill="#11B5BA"/>
<path d="M94.2026 239.288L90.0746 249H87.7386L91.9146 239.544H86.6826V237.608H94.2026V239.288ZM97.6476 246.648V249H95.2156V246.648H97.6476ZM98.9186 247.224C102.535 244.717 104.343 242.637 104.343 240.984C104.343 240.483 104.22 240.088 103.975 239.8C103.74 239.512 103.367 239.368 102.855 239.368C101.799 239.368 101.239 240.088 101.175 241.528H98.9826C99.0466 240.195 99.4519 239.187 100.199 238.504C100.945 237.811 101.889 237.464 103.031 237.464C104.193 237.464 105.084 237.768 105.703 238.376C106.332 238.973 106.647 239.773 106.647 240.776C106.647 241.565 106.412 242.36 105.943 243.16C105.484 243.949 104.897 244.68 104.183 245.352C103.468 246.013 102.716 246.584 101.927 247.064H106.871V248.904H98.9186V247.224ZM110.581 237.528C111.328 237.528 111.936 237.757 112.405 238.216C112.885 238.664 113.125 239.288 113.125 240.088C113.125 240.888 112.885 241.517 112.405 241.976C111.936 242.424 111.328 242.648 110.581 242.648C109.834 242.648 109.221 242.424 108.741 241.976C108.272 241.517 108.037 240.888 108.037 240.088C108.037 239.288 108.272 238.664 108.741 238.216C109.221 237.757 109.834 237.528 110.581 237.528ZM117.813 237.672L111.525 249H109.349L115.637 237.672H117.813ZM109.557 240.088C109.557 240.451 109.648 240.744 109.829 240.968C110.01 241.181 110.256 241.288 110.565 241.288C110.874 241.288 111.125 241.181 111.317 240.968C111.509 240.744 111.605 240.451 111.605 240.088C111.605 239.725 111.509 239.437 111.317 239.224C111.125 239 110.874 238.888 110.565 238.888C110.256 238.888 110.01 239 109.829 239.224C109.648 239.437 109.557 239.725 109.557 240.088ZM116.597 244.024C117.344 244.024 117.952 244.253 118.421 244.712C118.89 245.16 119.125 245.784 119.125 246.584C119.125 247.384 118.89 248.013 118.421 248.472C117.952 248.92 117.344 249.144 116.597 249.144C115.85 249.144 115.237 248.92 114.757 248.472C114.288 248.013 114.053 247.384 114.053 246.584C114.053 245.784 114.288 245.16 114.757 244.712C115.237 244.253 115.85 244.024 116.597 244.024ZM115.573 246.584C115.573 246.957 115.664 247.256 115.845 247.48C116.026 247.693 116.272 247.8 116.581 247.8C116.89 247.8 117.141 247.693 117.333 247.48C117.525 247.256 117.621 246.957 117.621 246.584C117.621 246.221 117.525 245.928 117.333 245.704C117.141 245.48 116.89 245.368 116.581 245.368C116.272 245.368 116.026 245.48 115.845 245.704C115.664 245.917 115.573 246.211 115.573 246.584Z" fill="black"/>
<circle cx="152.5" cy="266.5" r="7.5" fill="#11B5BA"/>
<path d="M143.64 212.288L139.512 222H137.176L141.352 212.544H136.12V210.608H143.64V212.288ZM147.085 219.648V222H144.653V219.648H147.085ZM148.852 213.28C148.852 212.736 149.001 212.229 149.3 211.76C149.609 211.291 150.063 210.912 150.66 210.624C151.268 210.336 151.999 210.192 152.852 210.192C153.705 210.192 154.431 210.336 155.028 210.624C155.636 210.912 156.089 211.291 156.388 211.76C156.697 212.229 156.852 212.736 156.852 213.28C156.852 213.899 156.703 214.427 156.404 214.864C156.105 215.291 155.657 215.611 155.06 215.824C155.732 216.08 156.244 216.453 156.596 216.944C156.959 217.424 157.14 218.011 157.14 218.704C157.14 219.451 156.953 220.096 156.58 220.64C156.207 221.173 155.695 221.579 155.044 221.856C154.404 222.133 153.673 222.272 152.852 222.272C152.031 222.272 151.295 222.133 150.644 221.856C150.004 221.579 149.497 221.173 149.124 220.64C148.761 220.096 148.58 219.451 148.58 218.704C148.58 218.011 148.756 217.424 149.108 216.944C149.471 216.453 149.988 216.08 150.66 215.824C150.063 215.611 149.609 215.285 149.3 214.848C149.001 214.411 148.852 213.888 148.852 213.28ZM151.076 213.648C151.076 214.16 151.236 214.555 151.556 214.832C151.876 215.109 152.308 215.248 152.852 215.248C153.407 215.248 153.844 215.109 154.164 214.832C154.484 214.555 154.644 214.16 154.644 213.648C154.644 213.136 154.479 212.741 154.148 212.464C153.828 212.176 153.396 212.032 152.852 212.032C152.319 212.032 151.887 212.176 151.556 212.464C151.236 212.741 151.076 213.136 151.076 213.648ZM150.772 218.576C150.772 219.141 150.959 219.589 151.332 219.92C151.705 220.251 152.212 220.416 152.852 220.416C153.492 220.416 153.999 220.251 154.372 219.92C154.756 219.589 154.948 219.141 154.948 218.576C154.948 218 154.751 217.563 154.356 217.264C153.972 216.955 153.471 216.8 152.852 216.8C152.244 216.8 151.743 216.955 151.348 217.264C150.964 217.563 150.772 218 150.772 218.576ZM161.144 210.528C161.89 210.528 162.498 210.757 162.968 211.216C163.448 211.664 163.688 212.288 163.688 213.088C163.688 213.888 163.448 214.517 162.968 214.976C162.498 215.424 161.89 215.648 161.144 215.648C160.397 215.648 159.784 215.424 159.304 214.976C158.834 214.517 158.6 213.888 158.6 213.088C158.6 212.288 158.834 211.664 159.304 211.216C159.784 210.757 160.397 210.528 161.144 210.528ZM168.376 210.672L162.088 222H159.912L166.2 210.672H168.376ZM160.12 213.088C160.12 213.451 160.21 213.744 160.392 213.968C160.573 214.181 160.818 214.288 161.128 214.288C161.437 214.288 161.688 214.181 161.88 213.968C162.072 213.744 162.168 213.451 162.168 213.088C162.168 212.725 162.072 212.437 161.88 212.224C161.688 212 161.437 211.888 161.128 211.888C160.818 211.888 160.573 212 160.392 212.224C160.21 212.437 160.12 212.725 160.12 213.088ZM167.16 217.024C167.906 217.024 168.514 217.253 168.984 217.712C169.453 218.16 169.688 218.784 169.688 219.584C169.688 220.384 169.453 221.013 168.984 221.472C168.514 221.92 167.906 222.144 167.16 222.144C166.413 222.144 165.8 221.92 165.32 221.472C164.85 221.013 164.616 220.384 164.616 219.584C164.616 218.784 164.85 218.16 165.32 217.712C165.8 217.253 166.413 217.024 167.16 217.024ZM166.136 219.584C166.136 219.957 166.226 220.256 166.408 220.48C166.589 220.693 166.834 220.8 167.144 220.8C167.453 220.8 167.704 220.693 167.896 220.48C168.088 220.256 168.184 219.957 168.184 219.584C168.184 219.221 168.088 218.928 167.896 218.704C167.704 218.48 167.453 218.368 167.144 218.368C166.834 218.368 166.589 218.48 166.408 218.704C166.226 218.917 166.136 219.211 166.136 219.584Z" fill="black"/>
<circle cx="202.5" cy="240.5" r="7.5" fill="#11B5BA"/>
<path d="M186.015 187.28C186.015 186.736 186.164 186.229 186.463 185.76C186.772 185.291 187.225 184.912 187.823 184.624C188.431 184.336 189.161 184.192 190.015 184.192C190.868 184.192 191.593 184.336 192.191 184.624C192.799 184.912 193.252 185.291 193.551 185.76C193.86 186.229 194.015 186.736 194.015 187.28C194.015 187.899 193.865 188.427 193.567 188.864C193.268 189.291 192.82 189.611 192.223 189.824C192.895 190.08 193.407 190.453 193.759 190.944C194.121 191.424 194.303 192.011 194.303 192.704C194.303 193.451 194.116 194.096 193.743 194.64C193.369 195.173 192.857 195.579 192.207 195.856C191.567 196.133 190.836 196.272 190.015 196.272C189.193 196.272 188.457 196.133 187.807 195.856C187.167 195.579 186.66 195.173 186.287 194.64C185.924 194.096 185.743 193.451 185.743 192.704C185.743 192.011 185.919 191.424 186.271 190.944C186.633 190.453 187.151 190.08 187.823 189.824C187.225 189.611 186.772 189.285 186.463 188.848C186.164 188.411 186.015 187.888 186.015 187.28ZM188.239 187.648C188.239 188.16 188.399 188.555 188.719 188.832C189.039 189.109 189.471 189.248 190.015 189.248C190.569 189.248 191.007 189.109 191.327 188.832C191.647 188.555 191.807 188.16 191.807 187.648C191.807 187.136 191.641 186.741 191.311 186.464C190.991 186.176 190.559 186.032 190.015 186.032C189.481 186.032 189.049 186.176 188.719 186.464C188.399 186.741 188.239 187.136 188.239 187.648ZM187.935 192.576C187.935 193.141 188.121 193.589 188.495 193.92C188.868 194.251 189.375 194.416 190.015 194.416C190.655 194.416 191.161 194.251 191.535 193.92C191.919 193.589 192.111 193.141 192.111 192.576C192.111 192 191.913 191.563 191.519 191.264C191.135 190.955 190.633 190.8 190.015 190.8C189.407 190.8 188.905 190.955 188.511 191.264C188.127 191.563 187.935 192 187.935 192.576ZM198.21 193.648V196H195.778V193.648H198.21ZM205.625 187.776C205.454 186.667 204.889 186.112 203.929 186.112C203.182 186.112 202.638 186.443 202.297 187.104C201.956 187.755 201.806 188.779 201.849 190.176C202.02 189.664 202.35 189.259 202.841 188.96C203.342 188.651 203.924 188.496 204.585 188.496C205.673 188.496 206.526 188.827 207.145 189.488C207.774 190.139 208.089 191.067 208.089 192.272C208.089 193.019 207.94 193.68 207.641 194.256C207.342 194.832 206.894 195.285 206.297 195.616C205.71 195.947 204.996 196.112 204.153 196.112C202.51 196.112 201.38 195.605 200.761 194.592C200.142 193.568 199.833 192.16 199.833 190.368C199.833 188.309 200.164 186.784 200.825 185.792C201.497 184.8 202.58 184.304 204.073 184.304C205.214 184.304 206.089 184.629 206.697 185.28C207.305 185.931 207.652 186.763 207.737 187.776H205.625ZM202.041 192.112C202.041 192.709 202.212 193.205 202.553 193.6C202.905 193.984 203.417 194.176 204.089 194.176C204.665 194.176 205.124 194.005 205.465 193.664C205.806 193.323 205.977 192.848 205.977 192.24C205.977 191.6 205.801 191.109 205.449 190.768C205.108 190.427 204.644 190.256 204.057 190.256C203.502 190.256 203.028 190.416 202.633 190.736C202.238 191.056 202.041 191.515 202.041 192.112ZM212.081 184.528C212.828 184.528 213.436 184.757 213.905 185.216C214.385 185.664 214.625 186.288 214.625 187.088C214.625 187.888 214.385 188.517 213.905 188.976C213.436 189.424 212.828 189.648 212.081 189.648C211.334 189.648 210.721 189.424 210.241 188.976C209.772 188.517 209.537 187.888 209.537 187.088C209.537 186.288 209.772 185.664 210.241 185.216C210.721 184.757 211.334 184.528 212.081 184.528ZM219.313 184.672L213.025 196H210.849L217.137 184.672H219.313ZM211.057 187.088C211.057 187.451 211.148 187.744 211.329 187.968C211.51 188.181 211.756 188.288 212.065 188.288C212.374 188.288 212.625 188.181 212.817 187.968C213.009 187.744 213.105 187.451 213.105 187.088C213.105 186.725 213.009 186.437 212.817 186.224C212.625 186 212.374 185.888 212.065 185.888C211.756 185.888 211.51 186 211.329 186.224C211.148 186.437 211.057 186.725 211.057 187.088ZM218.097 191.024C218.844 191.024 219.452 191.253 219.921 191.712C220.39 192.16 220.625 192.784 220.625 193.584C220.625 194.384 220.39 195.013 219.921 195.472C219.452 195.92 218.844 196.144 218.097 196.144C217.35 196.144 216.737 195.92 216.257 195.472C215.788 195.013 215.553 194.384 215.553 193.584C215.553 192.784 215.788 192.16 216.257 191.712C216.737 191.253 217.35 191.024 218.097 191.024ZM217.073 193.584C217.073 193.957 217.164 194.256 217.345 194.48C217.526 194.693 217.772 194.8 218.081 194.8C218.39 194.8 218.641 194.693 218.833 194.48C219.025 194.256 219.121 193.957 219.121 193.584C219.121 193.221 219.025 192.928 218.833 192.704C218.641 192.48 218.39 192.368 218.081 192.368C217.772 192.368 217.526 192.48 217.345 192.704C217.164 192.917 217.073 193.211 217.073 193.584Z" fill="black"/>
<circle cx="302.5" cy="186.5" r="7.5" fill="#11B5BA"/>
<path d="M285.042 132.816V130.704H289.106V142H286.738V132.816H285.042ZM290.523 132.816V130.704H294.587V142H292.219V132.816H290.523ZM298.709 139.648V142H296.277V139.648H298.709ZM304.204 130.272C304.972 130.272 305.628 130.405 306.172 130.672C306.726 130.939 307.142 131.307 307.42 131.776C307.708 132.245 307.852 132.768 307.852 133.344C307.852 134.069 307.654 134.667 307.26 135.136C306.865 135.595 306.342 135.877 305.692 135.984V136.064C307.27 136.533 308.06 137.461 308.06 138.848C308.06 139.819 307.734 140.608 307.084 141.216C306.433 141.813 305.516 142.112 304.332 142.112C303.073 142.112 302.07 141.803 301.324 141.184C300.577 140.555 300.161 139.611 300.076 138.352H302.284C302.337 138.928 302.524 139.387 302.844 139.728C303.174 140.059 303.638 140.224 304.236 140.224C304.748 140.224 305.148 140.085 305.436 139.808C305.724 139.52 305.868 139.147 305.868 138.688C305.868 138.144 305.66 137.728 305.244 137.44C304.828 137.152 304.214 137.008 303.404 137.008H302.94V135.168H303.404C304.897 135.189 305.644 134.672 305.644 133.616C305.644 133.157 305.51 132.8 305.244 132.544C304.977 132.277 304.614 132.144 304.156 132.144C303.676 132.144 303.281 132.299 302.972 132.608C302.662 132.907 302.486 133.328 302.444 133.872H300.236C300.3 132.72 300.673 131.835 301.356 131.216C302.038 130.587 302.988 130.272 304.204 130.272ZM312.158 130.528C312.904 130.528 313.512 130.757 313.982 131.216C314.462 131.664 314.702 132.288 314.702 133.088C314.702 133.888 314.462 134.517 313.982 134.976C313.512 135.424 312.904 135.648 312.158 135.648C311.411 135.648 310.798 135.424 310.318 134.976C309.848 134.517 309.614 133.888 309.614 133.088C309.614 132.288 309.848 131.664 310.318 131.216C310.798 130.757 311.411 130.528 312.158 130.528ZM319.39 130.672L313.102 142H310.926L317.214 130.672H319.39ZM311.134 133.088C311.134 133.451 311.224 133.744 311.406 133.968C311.587 134.181 311.832 134.288 312.142 134.288C312.451 134.288 312.702 134.181 312.894 133.968C313.086 133.744 313.182 133.451 313.182 133.088C313.182 132.725 313.086 132.437 312.894 132.224C312.702 132 312.451 131.888 312.142 131.888C311.832 131.888 311.587 132 311.406 132.224C311.224 132.437 311.134 132.725 311.134 133.088ZM318.174 137.024C318.92 137.024 319.528 137.253 319.998 137.712C320.467 138.16 320.702 138.784 320.702 139.584C320.702 140.384 320.467 141.013 319.998 141.472C319.528 141.92 318.92 142.144 318.174 142.144C317.427 142.144 316.814 141.92 316.334 141.472C315.864 141.013 315.63 140.384 315.63 139.584C315.63 138.784 315.864 138.16 316.334 137.712C316.814 137.253 317.427 137.024 318.174 137.024ZM317.15 139.584C317.15 139.957 317.24 140.256 317.422 140.48C317.603 140.693 317.848 140.8 318.158 140.8C318.467 140.8 318.718 140.693 318.91 140.48C319.102 140.256 319.198 139.957 319.198 139.584C319.198 139.221 319.102 138.928 318.91 138.704C318.718 138.48 318.467 138.368 318.158 138.368C317.848 138.368 317.603 138.48 317.422 138.704C317.24 138.917 317.15 139.211 317.15 139.584Z" fill="black"/>
<circle cx="352.5" cy="159.5" r="7.5" fill="#11B5BA"/>
<path d="M332.112 105.816V103.704H336.176V115H333.808V105.816H332.112ZM337.994 113.224C341.61 110.717 343.418 108.637 343.418 106.984C343.418 106.483 343.295 106.088 343.05 105.8C342.815 105.512 342.442 105.368 341.93 105.368C340.874 105.368 340.314 106.088 340.25 107.528H338.058C338.122 106.195 338.527 105.187 339.274 104.504C340.02 103.811 340.964 103.464 342.106 103.464C343.268 103.464 344.159 103.768 344.778 104.376C345.407 104.973 345.722 105.773 345.722 106.776C345.722 107.565 345.487 108.36 345.018 109.16C344.559 109.949 343.972 110.68 343.258 111.352C342.543 112.013 341.791 112.584 341.002 113.064H345.946V114.904H337.994V113.224ZM349.56 112.648V115H347.128V112.648H349.56ZM353.375 111.64C353.546 112.749 354.122 113.304 355.103 113.304C355.85 113.304 356.388 112.979 356.719 112.328C357.05 111.667 357.194 110.637 357.151 109.24C356.98 109.752 356.644 110.163 356.143 110.472C355.652 110.771 355.076 110.92 354.415 110.92C353.327 110.92 352.468 110.595 351.839 109.944C351.22 109.283 350.911 108.349 350.911 107.144C350.911 106.408 351.06 105.752 351.359 105.176C351.658 104.589 352.1 104.131 352.687 103.8C353.284 103.469 354.004 103.304 354.847 103.304C356.49 103.304 357.62 103.805 358.239 104.808C358.858 105.8 359.167 107.181 359.167 108.952C359.167 110.968 358.852 112.499 358.223 113.544C357.604 114.589 356.564 115.112 355.103 115.112C354.324 115.112 353.652 114.957 353.087 114.648C352.532 114.339 352.1 113.923 351.791 113.4C351.492 112.867 351.316 112.28 351.263 111.64H353.375ZM356.959 107.304C356.959 106.707 356.783 106.216 356.431 105.832C356.09 105.437 355.583 105.24 354.911 105.24C354.335 105.24 353.876 105.411 353.535 105.752C353.194 106.093 353.023 106.568 353.023 107.176C353.023 107.816 353.194 108.312 353.535 108.664C353.887 109.005 354.356 109.176 354.943 109.176C355.487 109.176 355.956 109.016 356.351 108.696C356.756 108.365 356.959 107.901 356.959 107.304ZM363.087 103.528C363.834 103.528 364.442 103.757 364.911 104.216C365.391 104.664 365.631 105.288 365.631 106.088C365.631 106.888 365.391 107.517 364.911 107.976C364.442 108.424 363.834 108.648 363.087 108.648C362.341 108.648 361.727 108.424 361.247 107.976C360.778 107.517 360.543 106.888 360.543 106.088C360.543 105.288 360.778 104.664 361.247 104.216C361.727 103.757 362.341 103.528 363.087 103.528ZM370.319 103.672L364.031 115H361.855L368.143 103.672H370.319ZM362.063 106.088C362.063 106.451 362.154 106.744 362.335 106.968C362.517 107.181 362.762 107.288 363.071 107.288C363.381 107.288 363.631 107.181 363.823 106.968C364.015 106.744 364.111 106.451 364.111 106.088C364.111 105.725 364.015 105.437 363.823 105.224C363.631 105 363.381 104.888 363.071 104.888C362.762 104.888 362.517 105 362.335 105.224C362.154 105.437 362.063 105.725 362.063 106.088ZM369.103 110.024C369.85 110.024 370.458 110.253 370.927 110.712C371.397 111.16 371.631 111.784 371.631 112.584C371.631 113.384 371.397 114.013 370.927 114.472C370.458 114.92 369.85 115.144 369.103 115.144C368.357 115.144 367.743 114.92 367.263 114.472C366.794 114.013 366.559 113.384 366.559 112.584C366.559 111.784 366.794 111.16 367.263 110.712C367.743 110.253 368.357 110.024 369.103 110.024ZM368.079 112.584C368.079 112.957 368.17 113.256 368.351 113.48C368.533 113.693 368.778 113.8 369.087 113.8C369.397 113.8 369.647 113.693 369.839 113.48C370.031 113.256 370.127 112.957 370.127 112.584C370.127 112.221 370.031 111.928 369.839 111.704C369.647 111.48 369.397 111.368 369.087 111.368C368.778 111.368 368.533 111.48 368.351 111.704C368.17 111.917 368.079 112.211 368.079 112.584Z" fill="black"/>
<circle cx="402.5" cy="133.5" r="7.5" fill="#11B5BA"/>
<path d="M382.19 79.816V77.704H386.254V89H383.886V79.816H382.19ZM388.104 86.728V84.856L393.512 77.576H395.928V84.776H397.4V86.728H395.928V89H393.656V86.728H388.104ZM393.832 80.216L390.408 84.776H393.832V80.216ZM401.013 86.648V89H398.581V86.648H401.013ZM409.468 79.288L405.34 89H403.004L407.18 79.544H401.948V77.608H409.468V79.288ZM413.009 77.528C413.756 77.528 414.364 77.7573 414.833 78.216C415.313 78.664 415.553 79.288 415.553 80.088C415.553 80.888 415.313 81.5173 414.833 81.976C414.364 82.424 413.756 82.648 413.009 82.648C412.263 82.648 411.649 82.424 411.169 81.976C410.7 81.5173 410.465 80.888 410.465 80.088C410.465 79.288 410.7 78.664 411.169 78.216C411.649 77.7573 412.263 77.528 413.009 77.528ZM420.241 77.672L413.953 89H411.777L418.065 77.672H420.241ZM411.985 80.088C411.985 80.4507 412.076 80.744 412.257 80.968C412.439 81.1813 412.684 81.288 412.993 81.288C413.303 81.288 413.553 81.1813 413.745 80.968C413.937 80.744 414.033 80.4507 414.033 80.088C414.033 79.7253 413.937 79.4373 413.745 79.224C413.553 79 413.303 78.888 412.993 78.888C412.684 78.888 412.439 79 412.257 79.224C412.076 79.4373 411.985 79.7253 411.985 80.088ZM419.025 84.024C419.772 84.024 420.38 84.2533 420.849 84.712C421.319 85.16 421.553 85.784 421.553 86.584C421.553 87.384 421.319 88.0133 420.849 88.472C420.38 88.92 419.772 89.144 419.025 89.144C418.279 89.144 417.665 88.92 417.185 88.472C416.716 88.0133 416.481 87.384 416.481 86.584C416.481 85.784 416.716 85.16 417.185 84.712C417.665 84.2533 418.279 84.024 419.025 84.024ZM418.001 86.584C418.001 86.9573 418.092 87.256 418.273 87.48C418.455 87.6933 418.7 87.8 419.009 87.8C419.319 87.8 419.569 87.6933 419.761 87.48C419.953 87.256 420.049 86.9573 420.049 86.584C420.049 86.2213 419.953 85.928 419.761 85.704C419.569 85.48 419.319 85.368 419.009 85.368C418.7 85.368 418.455 85.48 418.273 85.704C418.092 85.9173 418.001 86.2107 418.001 86.584Z" fill="black"/>
<circle cx="452.5" cy="106.5" r="7.5" fill="#11B5BA"/>
<path d="M430.378 52.816V50.704H434.442V62H432.074V52.816H430.378ZM442.403 53.776C442.233 52.6667 441.667 52.112 440.707 52.112C439.961 52.112 439.417 52.4427 439.075 53.104C438.734 53.7547 438.585 54.7787 438.627 56.176C438.798 55.664 439.129 55.2587 439.619 54.96C440.121 54.6507 440.702 54.496 441.363 54.496C442.451 54.496 443.305 54.8267 443.923 55.488C444.553 56.1387 444.867 57.0667 444.867 58.272C444.867 59.0187 444.718 59.68 444.419 60.256C444.121 60.832 443.673 61.2853 443.075 61.616C442.489 61.9467 441.774 62.112 440.931 62.112C439.289 62.112 438.158 61.6053 437.539 60.592C436.921 59.568 436.611 58.16 436.611 56.368C436.611 54.3093 436.942 52.784 437.603 51.792C438.275 50.8 439.358 50.304 440.851 50.304C441.993 50.304 442.867 50.6293 443.475 51.28C444.083 51.9307 444.43 52.7627 444.515 53.776H442.403ZM438.819 58.112C438.819 58.7093 438.99 59.2053 439.331 59.6C439.683 59.984 440.195 60.176 440.867 60.176C441.443 60.176 441.902 60.0053 442.243 59.664C442.585 59.3227 442.755 58.848 442.755 58.24C442.755 57.6 442.579 57.1093 442.227 56.768C441.886 56.4267 441.422 56.256 440.835 56.256C440.281 56.256 439.806 56.416 439.411 56.736C439.017 57.056 438.819 57.5147 438.819 58.112ZM448.763 59.648V62H446.331V59.648H448.763ZM450.53 53.28C450.53 52.736 450.68 52.2293 450.978 51.76C451.288 51.2907 451.741 50.912 452.338 50.624C452.946 50.336 453.677 50.192 454.53 50.192C455.384 50.192 456.109 50.336 456.706 50.624C457.314 50.912 457.768 51.2907 458.066 51.76C458.376 52.2293 458.53 52.736 458.53 53.28C458.53 53.8987 458.381 54.4267 458.082 54.864C457.784 55.2907 457.336 55.6107 456.738 55.824C457.41 56.08 457.922 56.4533 458.274 56.944C458.637 57.424 458.818 58.0107 458.818 58.704C458.818 59.4507 458.632 60.096 458.258 60.64C457.885 61.1733 457.373 61.5787 456.722 61.856C456.082 62.1333 455.352 62.272 454.53 62.272C453.709 62.272 452.973 62.1333 452.322 61.856C451.682 61.5787 451.176 61.1733 450.802 60.64C450.44 60.096 450.258 59.4507 450.258 58.704C450.258 58.0107 450.434 57.424 450.786 56.944C451.149 56.4533 451.666 56.08 452.338 55.824C451.741 55.6107 451.288 55.2853 450.978 54.848C450.68 54.4107 450.53 53.888 450.53 53.28ZM452.754 53.648C452.754 54.16 452.914 54.5547 453.234 54.832C453.554 55.1093 453.986 55.248 454.53 55.248C455.085 55.248 455.522 55.1093 455.842 54.832C456.162 54.5547 456.322 54.16 456.322 53.648C456.322 53.136 456.157 52.7413 455.826 52.464C455.506 52.176 455.074 52.032 454.53 52.032C453.997 52.032 453.565 52.176 453.234 52.464C452.914 52.7413 452.754 53.136 452.754 53.648ZM452.45 58.576C452.45 59.1413 452.637 59.5893 453.01 59.92C453.384 60.2507 453.89 60.416 454.53 60.416C455.17 60.416 455.677 60.2507 456.05 59.92C456.434 59.5893 456.626 59.1413 456.626 58.576C456.626 58 456.429 57.5627 456.034 57.264C455.65 56.9547 455.149 56.8 454.53 56.8C453.922 56.8 453.421 56.9547 453.026 57.264C452.642 57.5627 452.45 58 452.45 58.576ZM462.822 50.528C463.568 50.528 464.176 50.7573 464.646 51.216C465.126 51.664 465.366 52.288 465.366 53.088C465.366 53.888 465.126 54.5173 464.646 54.976C464.176 55.424 463.568 55.648 462.822 55.648C462.075 55.648 461.462 55.424 460.982 54.976C460.512 54.5173 460.278 53.888 460.278 53.088C460.278 52.288 460.512 51.664 460.982 51.216C461.462 50.7573 462.075 50.528 462.822 50.528ZM470.054 50.672L463.766 62H461.59L467.878 50.672H470.054ZM461.798 53.088C461.798 53.4507 461.888 53.744 462.07 53.968C462.251 54.1813 462.496 54.288 462.806 54.288C463.115 54.288 463.366 54.1813 463.558 53.968C463.75 53.744 463.846 53.4507 463.846 53.088C463.846 52.7253 463.75 52.4373 463.558 52.224C463.366 52 463.115 51.888 462.806 51.888C462.496 51.888 462.251 52 462.07 52.224C461.888 52.4373 461.798 52.7253 461.798 53.088ZM468.838 57.024C469.584 57.024 470.192 57.2533 470.662 57.712C471.131 58.16 471.366 58.784 471.366 59.584C471.366 60.384 471.131 61.0133 470.662 61.472C470.192 61.92 469.584 62.144 468.838 62.144C468.091 62.144 467.478 61.92 466.998 61.472C466.528 61.0133 466.294 60.384 466.294 59.584C466.294 58.784 466.528 58.16 466.998 57.712C467.478 57.2533 468.091 57.024 468.838 57.024ZM467.814 59.584C467.814 59.9573 467.904 60.256 468.086 60.48C468.267 60.6933 468.512 60.8 468.822 60.8C469.131 60.8 469.382 60.6933 469.574 60.48C469.766 60.256 469.862 59.9573 469.862 59.584C469.862 59.2213 469.766 58.928 469.574 58.704C469.382 58.48 469.131 58.368 468.822 58.368C468.512 58.368 468.267 58.48 468.086 58.704C467.904 58.9173 467.814 59.2107 467.814 59.584Z" fill="black"/>
<circle cx="252.5" cy="213.5" r="7.5" fill="#11B5BA"/>
<path d="M238.234 165.64C238.405 166.749 238.981 167.304 239.962 167.304C240.709 167.304 241.248 166.979 241.578 166.328C241.909 165.667 242.053 164.637 242.01 163.24C241.84 163.752 241.504 164.163 241.002 164.472C240.512 164.771 239.936 164.92 239.274 164.92C238.186 164.92 237.328 164.595 236.698 163.944C236.08 163.283 235.77 162.349 235.77 161.144C235.77 160.408 235.92 159.752 236.218 159.176C236.517 158.589 236.96 158.131 237.546 157.8C238.144 157.469 238.864 157.304 239.706 157.304C241.349 157.304 242.48 157.805 243.098 158.808C243.717 159.8 244.026 161.181 244.026 162.952C244.026 164.968 243.712 166.499 243.082 167.544C242.464 168.589 241.424 169.112 239.962 169.112C239.184 169.112 238.512 168.957 237.946 168.648C237.392 168.339 236.96 167.923 236.65 167.4C236.352 166.867 236.176 166.28 236.122 165.64H238.234ZM241.818 161.304C241.818 160.707 241.642 160.216 241.29 159.832C240.949 159.437 240.442 159.24 239.77 159.24C239.194 159.24 238.736 159.411 238.394 159.752C238.053 160.093 237.882 160.568 237.882 161.176C237.882 161.816 238.053 162.312 238.394 162.664C238.746 163.005 239.216 163.176 239.802 163.176C240.346 163.176 240.816 163.016 241.21 162.696C241.616 162.365 241.818 161.901 241.818 161.304ZM247.851 166.648V169H245.419V166.648H247.851ZM249.618 160.28C249.618 159.736 249.767 159.229 250.066 158.76C250.375 158.291 250.828 157.912 251.426 157.624C252.034 157.336 252.764 157.192 253.618 157.192C254.471 157.192 255.196 157.336 255.794 157.624C256.402 157.912 256.855 158.291 257.154 158.76C257.463 159.229 257.618 159.736 257.618 160.28C257.618 160.899 257.468 161.427 257.17 161.864C256.871 162.291 256.423 162.611 255.826 162.824C256.498 163.08 257.01 163.453 257.362 163.944C257.724 164.424 257.906 165.011 257.906 165.704C257.906 166.451 257.719 167.096 257.346 167.64C256.972 168.173 256.46 168.579 255.81 168.856C255.17 169.133 254.439 169.272 253.618 169.272C252.796 169.272 252.06 169.133 251.41 168.856C250.77 168.579 250.263 168.173 249.89 167.64C249.527 167.096 249.346 166.451 249.346 165.704C249.346 165.011 249.522 164.424 249.874 163.944C250.236 163.453 250.754 163.08 251.426 162.824C250.828 162.611 250.375 162.285 250.066 161.848C249.767 161.411 249.618 160.888 249.618 160.28ZM251.842 160.648C251.842 161.16 252.002 161.555 252.322 161.832C252.642 162.109 253.074 162.248 253.618 162.248C254.172 162.248 254.61 162.109 254.93 161.832C255.25 161.555 255.41 161.16 255.41 160.648C255.41 160.136 255.244 159.741 254.914 159.464C254.594 159.176 254.162 159.032 253.618 159.032C253.084 159.032 252.652 159.176 252.322 159.464C252.002 159.741 251.842 160.136 251.842 160.648ZM251.538 165.576C251.538 166.141 251.724 166.589 252.098 166.92C252.471 167.251 252.978 167.416 253.618 167.416C254.258 167.416 254.764 167.251 255.138 166.92C255.522 166.589 255.714 166.141 255.714 165.576C255.714 165 255.516 164.563 255.122 164.264C254.738 163.955 254.236 163.8 253.618 163.8C253.01 163.8 252.508 163.955 252.114 164.264C251.73 164.563 251.538 165 251.538 165.576ZM261.909 157.528C262.656 157.528 263.264 157.757 263.733 158.216C264.213 158.664 264.453 159.288 264.453 160.088C264.453 160.888 264.213 161.517 263.733 161.976C263.264 162.424 262.656 162.648 261.909 162.648C261.163 162.648 260.549 162.424 260.069 161.976C259.6 161.517 259.365 160.888 259.365 160.088C259.365 159.288 259.6 158.664 260.069 158.216C260.549 157.757 261.163 157.528 261.909 157.528ZM269.141 157.672L262.853 169H260.677L266.965 157.672H269.141ZM260.885 160.088C260.885 160.451 260.976 160.744 261.157 160.968C261.339 161.181 261.584 161.288 261.893 161.288C262.203 161.288 262.453 161.181 262.645 160.968C262.837 160.744 262.933 160.451 262.933 160.088C262.933 159.725 262.837 159.437 262.645 159.224C262.453 159 262.203 158.888 261.893 158.888C261.584 158.888 261.339 159 261.157 159.224C260.976 159.437 260.885 159.725 260.885 160.088ZM267.925 164.024C268.672 164.024 269.28 164.253 269.749 164.712C270.219 165.16 270.453 165.784 270.453 166.584C270.453 167.384 270.219 168.013 269.749 168.472C269.28 168.92 268.672 169.144 267.925 169.144C267.179 169.144 266.565 168.92 266.085 168.472C265.616 168.013 265.381 167.384 265.381 166.584C265.381 165.784 265.616 165.16 266.085 164.712C266.565 164.253 267.179 164.024 267.925 164.024ZM266.901 166.584C266.901 166.957 266.992 167.256 267.173 167.48C267.355 167.693 267.6 167.8 267.909 167.8C268.219 167.8 268.469 167.693 268.661 167.48C268.853 167.256 268.949 166.957 268.949 166.584C268.949 166.221 268.853 165.928 268.661 165.704C268.469 165.48 268.219 165.368 267.909 165.368C267.6 165.368 267.355 165.48 267.173 165.704C266.992 165.917 266.901 166.211 266.901 166.584Z" fill="black"/>
<path d="M34.6436 386.224C38.2596 383.717 40.0676 381.637 40.0676 379.984C40.0676 379.483 39.9449 379.088 39.6996 378.8C39.4649 378.512 39.0916 378.368 38.5796 378.368C37.5236 378.368 36.9636 379.088 36.8996 380.528H34.7076C34.7716 379.195 35.1769 378.187 35.9236 377.504C36.6702 376.811 37.6142 376.464 38.7556 376.464C39.9182 376.464 40.8089 376.768 41.4276 377.376C42.0569 377.973 42.3716 378.773 42.3716 379.776C42.3716 380.565 42.1369 381.36 41.6676 382.16C41.2089 382.949 40.6222 383.68 39.9076 384.352C39.1929 385.013 38.4409 385.584 37.6516 386.064H42.5956V387.904H34.6436V386.224ZM44.0661 382.256C44.0661 386.085 45.5061 388 48.3861 388C49.9114 388 51.0101 387.488 51.6821 386.464C52.3541 385.44 52.6901 384.037 52.6901 382.256C52.6901 380.485 52.3541 379.088 51.6821 378.064C51.0101 377.04 49.9114 376.528 48.3861 376.528C45.5061 376.528 44.0661 378.437 44.0661 382.256ZM50.4661 382.256C50.4661 383.419 50.3221 384.315 50.0341 384.944C49.7567 385.563 49.2074 385.872 48.3861 385.872C47.5541 385.872 46.9941 385.563 46.7061 384.944C46.4287 384.315 46.2901 383.419 46.2901 382.256C46.2901 381.104 46.4287 380.219 46.7061 379.6C46.9941 378.971 47.5541 378.656 48.3861 378.656C49.2074 378.656 49.7567 378.971 50.0341 379.6C50.3221 380.219 50.4661 381.104 50.4661 382.256ZM54.2154 386.224C57.8314 383.717 59.6394 381.637 59.6394 379.984C59.6394 379.483 59.5168 379.088 59.2714 378.8C59.0368 378.512 58.6634 378.368 58.1514 378.368C57.0954 378.368 56.5354 379.088 56.4714 380.528H54.2794C54.3434 379.195 54.7488 378.187 55.4954 377.504C56.2421 376.811 57.1861 376.464 58.3274 376.464C59.4901 376.464 60.3808 376.768 60.9994 377.376C61.6288 377.973 61.9434 378.773 61.9434 379.776C61.9434 380.565 61.7088 381.36 61.2394 382.16C60.7808 382.949 60.1941 383.68 59.4794 384.352C58.7648 385.013 58.0128 385.584 57.2234 386.064H62.1674V387.904H54.2154V386.224ZM63.4779 386.224C67.0939 383.717 68.9019 381.637 68.9019 379.984C68.9019 379.483 68.7793 379.088 68.5339 378.8C68.2993 378.512 67.9259 378.368 67.4139 378.368C66.3579 378.368 65.7979 379.088 65.7339 380.528H63.5419C63.6059 379.195 64.0113 378.187 64.7579 377.504C65.5046 376.811 66.4486 376.464 67.5899 376.464C68.7526 376.464 69.6433 376.768 70.2619 377.376C70.8913 377.973 71.2059 378.773 71.2059 379.776C71.2059 380.565 70.9713 381.36 70.5019 382.16C70.0433 382.949 69.4566 383.68 68.7419 384.352C68.0273 385.013 67.2753 385.584 66.4859 386.064H71.4299V387.904H63.4779V386.224Z" fill="black"/>
<path d="M135.956 385.724C139.572 383.217 141.38 381.137 141.38 379.484C141.38 378.983 141.257 378.588 141.012 378.3C140.777 378.012 140.404 377.868 139.892 377.868C138.836 377.868 138.276 378.588 138.212 380.028H136.02C136.084 378.695 136.489 377.687 137.236 377.004C137.983 376.311 138.927 375.964 140.068 375.964C141.231 375.964 142.121 376.268 142.74 376.876C143.369 377.473 143.684 378.273 143.684 379.276C143.684 380.065 143.449 380.86 142.98 381.66C142.521 382.449 141.935 383.18 141.22 383.852C140.505 384.513 139.753 385.084 138.964 385.564H143.908V387.404H135.956V385.724ZM145.379 381.756C145.379 385.585 146.819 387.5 149.699 387.5C151.224 387.5 152.323 386.988 152.995 385.964C153.667 384.94 154.003 383.537 154.003 381.756C154.003 379.985 153.667 378.588 152.995 377.564C152.323 376.54 151.224 376.028 149.699 376.028C146.819 376.028 145.379 377.937 145.379 381.756ZM151.779 381.756C151.779 382.919 151.635 383.815 151.347 384.444C151.069 385.063 150.52 385.372 149.699 385.372C148.867 385.372 148.307 385.063 148.019 384.444C147.741 383.815 147.603 382.919 147.603 381.756C147.603 380.604 147.741 379.719 148.019 379.1C148.307 378.471 148.867 378.156 149.699 378.156C150.52 378.156 151.069 378.471 151.347 379.1C151.635 379.719 151.779 380.604 151.779 381.756ZM155.528 385.724C159.144 383.217 160.952 381.137 160.952 379.484C160.952 378.983 160.829 378.588 160.584 378.3C160.349 378.012 159.976 377.868 159.464 377.868C158.408 377.868 157.848 378.588 157.784 380.028H155.592C155.656 378.695 156.061 377.687 156.808 377.004C157.555 376.311 158.499 375.964 159.64 375.964C160.803 375.964 161.693 376.268 162.312 376.876C162.941 377.473 163.256 378.273 163.256 379.276C163.256 380.065 163.021 380.86 162.552 381.66C162.093 382.449 161.507 383.18 160.792 383.852C160.077 384.513 159.325 385.084 158.536 385.564H163.48V387.404H155.528V385.724ZM164.822 385.228V383.356L170.23 376.076H172.646V383.276H174.118V385.228H172.646V387.5H170.374V385.228H164.822ZM170.55 378.716L167.126 383.276H170.55V378.716Z" fill="black"/>
<path d="M238.175 385.724C241.791 383.217 243.599 381.137 243.599 379.484C243.599 378.983 243.476 378.588 243.231 378.3C242.996 378.012 242.623 377.868 242.111 377.868C241.055 377.868 240.495 378.588 240.431 380.028H238.239C238.303 378.695 238.708 377.687 239.455 377.004C240.201 376.311 241.145 375.964 242.287 375.964C243.449 375.964 244.34 376.268 244.959 376.876C245.588 377.473 245.903 378.273 245.903 379.276C245.903 380.065 245.668 380.86 245.199 381.66C244.74 382.449 244.153 383.18 243.439 383.852C242.724 384.513 241.972 385.084 241.183 385.564H246.127V387.404H238.175V385.724ZM247.597 381.756C247.597 385.585 249.037 387.5 251.917 387.5C253.443 387.5 254.541 386.988 255.213 385.964C255.885 384.94 256.221 383.537 256.221 381.756C256.221 379.985 255.885 378.588 255.213 377.564C254.541 376.54 253.443 376.028 251.917 376.028C249.037 376.028 247.597 377.937 247.597 381.756ZM253.997 381.756C253.997 382.919 253.853 383.815 253.565 384.444C253.288 385.063 252.739 385.372 251.917 385.372C251.085 385.372 250.525 385.063 250.237 384.444C249.96 383.815 249.821 382.919 249.821 381.756C249.821 380.604 249.96 379.719 250.237 379.1C250.525 378.471 251.085 378.156 251.917 378.156C252.739 378.156 253.288 378.471 253.565 379.1C253.853 379.719 253.997 380.604 253.997 381.756ZM257.747 385.724C261.363 383.217 263.171 381.137 263.171 379.484C263.171 378.983 263.048 378.588 262.803 378.3C262.568 378.012 262.195 377.868 261.683 377.868C260.627 377.868 260.067 378.588 260.003 380.028H257.811C257.875 378.695 258.28 377.687 259.027 377.004C259.773 376.311 260.717 375.964 261.859 375.964C263.021 375.964 263.912 376.268 264.531 376.876C265.16 377.473 265.475 378.273 265.475 379.276C265.475 380.065 265.24 380.86 264.771 381.66C264.312 382.449 263.725 383.18 263.011 383.852C262.296 384.513 261.544 385.084 260.755 385.564H265.699V387.404H257.747V385.724ZM273.153 379.276C272.983 378.167 272.417 377.612 271.457 377.612C270.711 377.612 270.167 377.943 269.825 378.604C269.484 379.255 269.335 380.279 269.377 381.676C269.548 381.164 269.879 380.759 270.369 380.46C270.871 380.151 271.452 379.996 272.113 379.996C273.201 379.996 274.055 380.327 274.673 380.988C275.303 381.639 275.617 382.567 275.617 383.772C275.617 384.519 275.468 385.18 275.169 385.756C274.871 386.332 274.423 386.785 273.825 387.116C273.239 387.447 272.524 387.612 271.681 387.612C270.039 387.612 268.908 387.105 268.289 386.092C267.671 385.068 267.361 383.66 267.361 381.868C267.361 379.809 267.692 378.284 268.353 377.292C269.025 376.3 270.108 375.804 271.601 375.804C272.743 375.804 273.617 376.129 274.225 376.78C274.833 377.431 275.18 378.263 275.265 379.276H273.153ZM269.569 383.612C269.569 384.209 269.74 384.705 270.081 385.1C270.433 385.484 270.945 385.676 271.617 385.676C272.193 385.676 272.652 385.505 272.993 385.164C273.335 384.823 273.505 384.348 273.505 383.74C273.505 383.1 273.329 382.609 272.977 382.268C272.636 381.927 272.172 381.756 271.585 381.756C271.031 381.756 270.556 381.916 270.161 382.236C269.767 382.556 269.569 383.015 269.569 383.612Z" fill="black"/>
<path d="M340.081 386.224C343.697 383.717 345.505 381.637 345.505 379.984C345.505 379.483 345.382 379.088 345.137 378.8C344.902 378.512 344.529 378.368 344.017 378.368C342.961 378.368 342.401 379.088 342.337 380.528H340.145C340.209 379.195 340.614 378.187 341.361 377.504C342.108 376.811 343.052 376.464 344.193 376.464C345.356 376.464 346.246 376.768 346.865 377.376C347.494 377.973 347.809 378.773 347.809 379.776C347.809 380.565 347.574 381.36 347.105 382.16C346.646 382.949 346.06 383.68 345.345 384.352C344.63 385.013 343.878 385.584 343.089 386.064H348.033V387.904H340.081V386.224ZM349.504 382.256C349.504 386.085 350.944 388 353.824 388C355.349 388 356.448 387.488 357.12 386.464C357.792 385.44 358.128 384.037 358.128 382.256C358.128 380.485 357.792 379.088 357.12 378.064C356.448 377.04 355.349 376.528 353.824 376.528C350.944 376.528 349.504 378.437 349.504 382.256ZM355.904 382.256C355.904 383.419 355.76 384.315 355.472 384.944C355.194 385.563 354.645 385.872 353.824 385.872C352.992 385.872 352.432 385.563 352.144 384.944C351.866 384.315 351.728 383.419 351.728 382.256C351.728 381.104 351.866 380.219 352.144 379.6C352.432 378.971 352.992 378.656 353.824 378.656C354.645 378.656 355.194 378.971 355.472 379.6C355.76 380.219 355.904 381.104 355.904 382.256ZM359.653 386.224C363.269 383.717 365.077 381.637 365.077 379.984C365.077 379.483 364.954 379.088 364.709 378.8C364.474 378.512 364.101 378.368 363.589 378.368C362.533 378.368 361.973 379.088 361.909 380.528H359.717C359.781 379.195 360.186 378.187 360.933 377.504C361.68 376.811 362.624 376.464 363.765 376.464C364.928 376.464 365.818 376.768 366.437 377.376C367.066 377.973 367.381 378.773 367.381 379.776C367.381 380.565 367.146 381.36 366.677 382.16C366.218 382.949 365.632 383.68 364.917 384.352C364.202 385.013 363.45 385.584 362.661 386.064H367.605V387.904H359.653V386.224ZM369.411 379.28C369.411 378.736 369.561 378.229 369.859 377.76C370.169 377.291 370.622 376.912 371.219 376.624C371.827 376.336 372.558 376.192 373.411 376.192C374.265 376.192 374.99 376.336 375.587 376.624C376.195 376.912 376.649 377.291 376.947 377.76C377.257 378.229 377.411 378.736 377.411 379.28C377.411 379.899 377.262 380.427 376.963 380.864C376.665 381.291 376.217 381.611 375.619 381.824C376.291 382.08 376.803 382.453 377.155 382.944C377.518 383.424 377.699 384.011 377.699 384.704C377.699 385.451 377.513 386.096 377.139 386.64C376.766 387.173 376.254 387.579 375.603 387.856C374.963 388.133 374.233 388.272 373.411 388.272C372.59 388.272 371.854 388.133 371.203 387.856C370.563 387.579 370.057 387.173 369.683 386.64C369.321 386.096 369.139 385.451 369.139 384.704C369.139 384.011 369.315 383.424 369.667 382.944C370.03 382.453 370.547 382.08 371.219 381.824C370.622 381.611 370.169 381.285 369.859 380.848C369.561 380.411 369.411 379.888 369.411 379.28ZM371.635 379.648C371.635 380.16 371.795 380.555 372.115 380.832C372.435 381.109 372.867 381.248 373.411 381.248C373.966 381.248 374.403 381.109 374.723 380.832C375.043 380.555 375.203 380.16 375.203 379.648C375.203 379.136 375.038 378.741 374.707 378.464C374.387 378.176 373.955 378.032 373.411 378.032C372.878 378.032 372.446 378.176 372.115 378.464C371.795 378.741 371.635 379.136 371.635 379.648ZM371.331 384.576C371.331 385.141 371.518 385.589 371.891 385.92C372.265 386.251 372.771 386.416 373.411 386.416C374.051 386.416 374.558 386.251 374.931 385.92C375.315 385.589 375.507 385.141 375.507 384.576C375.507 384 375.31 383.563 374.915 383.264C374.531 382.955 374.03 382.8 373.411 382.8C372.803 382.8 372.302 382.955 371.907 383.264C371.523 383.563 371.331 384 371.331 384.576Z" fill="black"/>
<path d="M441.862 386.224C445.478 383.717 447.286 381.637 447.286 379.984C447.286 379.483 447.164 379.088 446.918 378.8C446.684 378.512 446.31 378.368 445.798 378.368C444.742 378.368 444.182 379.088 444.118 380.528H441.926C441.99 379.195 442.396 378.187 443.142 377.504C443.889 376.811 444.833 376.464 445.974 376.464C447.137 376.464 448.028 376.768 448.646 377.376C449.276 377.973 449.59 378.773 449.59 379.776C449.59 380.565 449.356 381.36 448.886 382.16C448.428 382.949 447.841 383.68 447.126 384.352C446.412 385.013 445.66 385.584 444.87 386.064H449.814V387.904H441.862V386.224ZM451.285 382.256C451.285 386.085 452.725 388 455.605 388C457.13 388 458.229 387.488 458.901 386.464C459.573 385.44 459.909 384.037 459.909 382.256C459.909 380.485 459.573 379.088 458.901 378.064C458.229 377.04 457.13 376.528 455.605 376.528C452.725 376.528 451.285 378.437 451.285 382.256ZM457.685 382.256C457.685 383.419 457.541 384.315 457.253 384.944C456.975 385.563 456.426 385.872 455.605 385.872C454.773 385.872 454.213 385.563 453.925 384.944C453.647 384.315 453.509 383.419 453.509 382.256C453.509 381.104 453.647 380.219 453.925 379.6C454.213 378.971 454.773 378.656 455.605 378.656C456.426 378.656 456.975 378.971 457.253 379.6C457.541 380.219 457.685 381.104 457.685 382.256ZM465.658 376.272C466.426 376.272 467.082 376.405 467.626 376.672C468.181 376.939 468.597 377.307 468.874 377.776C469.162 378.245 469.306 378.768 469.306 379.344C469.306 380.069 469.109 380.667 468.714 381.136C468.32 381.595 467.797 381.877 467.146 381.984V382.064C468.725 382.533 469.514 383.461 469.514 384.848C469.514 385.819 469.189 386.608 468.538 387.216C467.888 387.813 466.97 388.112 465.786 388.112C464.528 388.112 463.525 387.803 462.778 387.184C462.032 386.555 461.616 385.611 461.53 384.352H463.738C463.792 384.928 463.978 385.387 464.298 385.728C464.629 386.059 465.093 386.224 465.69 386.224C466.202 386.224 466.602 386.085 466.89 385.808C467.178 385.52 467.322 385.147 467.322 384.688C467.322 384.144 467.114 383.728 466.698 383.44C466.282 383.152 465.669 383.008 464.858 383.008H464.394V381.168H464.858C466.352 381.189 467.098 380.672 467.098 379.616C467.098 379.157 466.965 378.8 466.698 378.544C466.432 378.277 466.069 378.144 465.61 378.144C465.13 378.144 464.736 378.299 464.426 378.608C464.117 378.907 463.941 379.328 463.898 379.872H461.69C461.754 378.72 462.128 377.835 462.81 377.216C463.493 376.587 464.442 376.272 465.658 376.272ZM471.372 382.256C471.372 386.085 472.812 388 475.692 388C477.218 388 478.316 387.488 478.988 386.464C479.66 385.44 479.996 384.037 479.996 382.256C479.996 380.485 479.66 379.088 478.988 378.064C478.316 377.04 477.218 376.528 475.692 376.528C472.812 376.528 471.372 378.437 471.372 382.256ZM477.772 382.256C477.772 383.419 477.628 384.315 477.34 384.944C477.063 385.563 476.514 385.872 475.692 385.872C474.86 385.872 474.3 385.563 474.012 384.944C473.735 384.315 473.596 383.419 473.596 382.256C473.596 381.104 473.735 380.219 474.012 379.6C474.3 378.971 474.86 378.656 475.692 378.656C476.514 378.656 477.063 378.971 477.34 379.6C477.628 380.219 477.772 381.104 477.772 382.256Z" fill="black"/>
</svg>
