<svg width="160" height="44" viewBox="0 0 160 44" fill="none" xmlns="http://www.w3.org/2000/svg">
<path fill-rule="evenodd" clip-rule="evenodd" d="M37.8309 0.582831C37.7733 0.371092 37.6299 0.19294 37.4353 0.0915268C37.0511 -0.111734 36.5749 0.0348963 36.3716 0.419027L36.3701 0.421962C36.3701 0.443701 32.3831 8.17848 20.144 9.52631C18.5474 9.69664 16.9869 10.1132 15.5179 10.7611C12.8884 11.9042 10.7168 13.8938 9.34832 16.4133C8.07071 18.7799 7.54158 21.4786 7.83092 24.1524C8.04408 26.1015 8.69505 27.9773 9.73527 29.6394C7.56136 31.2002 0.665706 36.5959 0.043967 42.3872C-0.00168516 42.8194 0.311793 43.2067 0.743967 43.2524C1.17625 43.298 1.56353 42.9846 1.60918 42.5524C2.17875 37.3828 8.64831 32.3698 10.6657 30.9176C13.0874 33.8915 16.7135 35.5698 20.6048 35.8437C23.2239 36.0127 25.846 35.5661 28.2614 34.5394C30.8833 33.4392 33.199 31.7189 35.0092 29.5263C39.6744 23.8741 41.8961 14.3741 37.8309 0.582831ZM11.1179 28.8611C10.8179 28.3886 10.5534 27.8945 10.3266 27.3828C9.84918 26.3032 9.54125 25.1564 9.41353 23.9828C9.14723 21.6279 9.60201 19.2476 10.7179 17.1567C11.924 14.94 13.8371 13.1907 16.1527 12.1872C17.4765 11.6108 18.8815 11.2427 20.3179 11.0959C28.3961 10.2263 33.1483 6.63066 35.6005 4.02196C34.1597 8.76533 31.6792 13.1277 28.3396 16.7915L27.8614 11.9741C27.837 11.5402 27.4655 11.2082 27.0316 11.2325C26.5977 11.2569 26.2656 11.6284 26.2899 12.0623C26.2911 12.0837 26.2932 12.1051 26.2961 12.1263L26.9092 18.3176C23.2527 22.0263 18.1701 25.7524 11.1179 28.8611ZM33.7918 28.522V28.5176C37.7961 23.6741 39.8527 15.7002 37.1657 4.23935C36.1918 7.71761 33.857 13.3698 28.3701 19.0828C28.3388 19.1223 28.3039 19.1587 28.2657 19.1915C26.1856 21.3164 23.9039 23.2341 21.4527 24.9176L26.7614 25.922C27.1717 26.0076 27.4429 26.4 27.378 26.8141C27.3107 27.2435 26.9081 27.5371 26.4787 27.4698L19.5701 26.1654C17.1672 27.6723 14.6594 29.0047 12.0657 30.1524C14.279 32.6199 17.3856 34.1021 20.6961 34.2698C23.0742 34.4315 25.4571 34.0324 27.6527 33.1046C30.0402 32.0972 32.147 30.5245 33.7918 28.522Z" fill="black"/>
<path d="M66.672 19.16C67.3653 19.3093 67.9253 19.64 68.352 20.152C68.7893 20.664 69.008 21.2667 69.008 21.96C69.008 22.8773 68.6933 23.6133 68.064 24.168C67.4453 24.7227 66.544 25 65.36 25H61.168V13.72H65.296C66.4267 13.72 67.2853 13.9707 67.872 14.472C68.4587 14.9733 68.752 15.6613 68.752 16.536C68.752 17.2613 68.5547 17.848 68.16 18.296C67.776 18.744 67.28 19.032 66.672 19.16ZM62.624 18.664H65.056C65.7707 18.664 66.3147 18.4987 66.688 18.168C67.072 17.8373 67.264 17.3733 67.264 16.776C67.264 16.2 67.0773 15.7467 66.704 15.416C66.3307 15.0853 65.76 14.92 64.992 14.92H62.624V18.664ZM65.088 23.784C65.856 23.784 66.448 23.608 66.864 23.256C67.2907 22.904 67.504 22.408 67.504 21.768C67.504 21.1387 67.2853 20.648 66.848 20.296C66.4213 19.9333 65.824 19.752 65.056 19.752H62.624V23.784H65.088ZM70.7682 13.64C70.7682 13.3733 70.8589 13.16 71.0402 13C71.2216 12.8293 71.4616 12.744 71.7602 12.744C72.0589 12.744 72.2989 12.8293 72.4802 13C72.6616 13.16 72.7522 13.3733 72.7522 13.64C72.7522 13.9067 72.6616 14.1253 72.4802 14.296C72.2989 14.456 72.0589 14.536 71.7602 14.536C71.4616 14.536 71.2216 14.456 71.0402 14.296C70.8589 14.1253 70.7682 13.9067 70.7682 13.64ZM72.4802 16.216V25H71.0242V16.216H72.4802ZM79.0051 16.104C79.8478 16.104 80.5998 16.2853 81.2611 16.648C81.9331 17.0107 82.4558 17.5333 82.8291 18.216C83.2131 18.8987 83.4051 19.6987 83.4051 20.616C83.4051 21.5333 83.2131 22.3333 82.8291 23.016C82.4558 23.688 81.9331 24.2053 81.2611 24.568C80.5998 24.9307 79.8478 25.112 79.0051 25.112C78.1625 25.112 77.4051 24.9307 76.7331 24.568C76.0718 24.2053 75.5491 23.688 75.1651 23.016C74.7811 22.3333 74.5891 21.5333 74.5891 20.616C74.5891 19.6987 74.7811 18.8987 75.1651 18.216C75.5491 17.5333 76.0718 17.0107 76.7331 16.648C77.4051 16.2853 78.1625 16.104 79.0051 16.104ZM79.0051 17.384C78.4825 17.384 77.9971 17.5013 77.5491 17.736C77.1118 17.9707 76.7545 18.3333 76.4771 18.824C76.2105 19.304 76.0771 19.9013 76.0771 20.616C76.0771 21.32 76.2105 21.9173 76.4771 22.408C76.7545 22.888 77.1118 23.2453 77.5491 23.48C77.9971 23.7147 78.4825 23.832 79.0051 23.832C79.5278 23.832 80.0078 23.7147 80.4451 23.48C80.8931 23.2453 81.2505 22.888 81.5171 22.408C81.7945 21.9173 81.9331 21.32 81.9331 20.616C81.9331 19.9013 81.7945 19.304 81.5171 18.824C81.2505 18.3333 80.8931 17.9707 80.4451 17.736C80.0078 17.5013 79.5278 17.384 79.0051 17.384ZM96.3024 16.072C97.3264 16.072 98.1477 16.4027 98.7664 17.064C99.3957 17.7147 99.7104 18.6587 99.7104 19.896V25H98.2544V20.024C98.2544 19.16 98.041 18.4987 97.6144 18.04C97.1984 17.5813 96.6224 17.352 95.8864 17.352C95.1184 17.352 94.4997 17.608 94.0304 18.12C93.5717 18.6213 93.3424 19.3627 93.3424 20.344V25H91.8864V20.024C91.8864 19.16 91.673 18.4987 91.2464 18.04C90.8197 17.5813 90.2437 17.352 89.5184 17.352C88.7397 17.352 88.1157 17.608 87.6464 18.12C87.1877 18.6213 86.9584 19.3627 86.9584 20.344V25H85.5024V16.216H86.9584V18.216C87.1717 17.5227 87.5504 16.9947 88.0944 16.632C88.649 16.2587 89.2837 16.072 89.9984 16.072C90.745 16.072 91.3904 16.264 91.9344 16.648C92.489 17.0213 92.8837 17.576 93.1184 18.312C93.3637 17.5973 93.7744 17.048 94.3504 16.664C94.9264 16.2693 95.577 16.072 96.3024 16.072ZM110.251 20.12C110.251 20.4293 110.23 20.696 110.187 20.92H103.163C103.195 21.9227 103.478 22.6747 104.011 23.176C104.555 23.6773 105.216 23.928 105.995 23.928C106.699 23.928 107.286 23.752 107.755 23.4C108.235 23.0373 108.528 22.5573 108.635 21.96H110.187C110.08 22.568 109.84 23.112 109.467 23.592C109.104 24.072 108.63 24.4453 108.043 24.712C107.456 24.9787 106.795 25.112 106.059 25.112C105.216 25.112 104.47 24.9307 103.819 24.568C103.168 24.2053 102.656 23.688 102.283 23.016C101.92 22.3333 101.739 21.5333 101.739 20.616C101.739 19.6987 101.92 18.8987 102.283 18.216C102.656 17.5333 103.168 17.0107 103.819 16.648C104.47 16.2853 105.216 16.104 106.059 16.104C106.912 16.104 107.654 16.2853 108.283 16.648C108.923 17.0107 109.408 17.496 109.739 18.104C110.08 18.712 110.251 19.384 110.251 20.12ZM108.779 20.216C108.811 19.5653 108.704 19.0213 108.459 18.584C108.214 18.1467 107.878 17.8213 107.451 17.608C107.024 17.3947 106.56 17.288 106.059 17.288C105.259 17.288 104.587 17.5387 104.043 18.04C103.499 18.5307 103.206 19.256 103.163 20.216H108.779ZM116.548 23.72V25H115.46C114.564 25 113.892 24.7867 113.444 24.36C113.006 23.9333 112.788 23.2187 112.788 22.216V17.48H111.476V16.216H112.788V14.024H114.26V16.216H116.532V17.48H114.26V22.248C114.26 22.8133 114.361 23.2027 114.564 23.416C114.777 23.6187 115.14 23.72 115.652 23.72H116.548ZM122.124 16.104C122.978 16.104 123.698 16.3173 124.284 16.744C124.882 17.1707 125.298 17.7413 125.532 18.456V16.216H126.988V25H125.532V22.76C125.298 23.4747 124.882 24.0453 124.284 24.472C123.698 24.8987 122.978 25.112 122.124 25.112C121.346 25.112 120.652 24.9307 120.044 24.568C119.436 24.2053 118.956 23.688 118.604 23.016C118.263 22.3333 118.092 21.5333 118.092 20.616C118.092 19.6987 118.263 18.8987 118.604 18.216C118.956 17.5333 119.436 17.0107 120.044 16.648C120.652 16.2853 121.346 16.104 122.124 16.104ZM122.54 17.4C121.644 17.4 120.924 17.688 120.38 18.264C119.847 18.8293 119.58 19.6133 119.58 20.616C119.58 21.6187 119.847 22.408 120.38 22.984C120.924 23.5493 121.644 23.832 122.54 23.832C123.116 23.832 123.628 23.6987 124.076 23.432C124.535 23.1653 124.892 22.792 125.148 22.312C125.404 21.8213 125.532 21.256 125.532 20.616C125.532 19.976 125.404 19.4107 125.148 18.92C124.892 18.4293 124.535 18.056 124.076 17.8C123.628 17.5333 123.116 17.4 122.54 17.4ZM134.13 16.072C135.154 16.072 135.98 16.4027 136.61 17.064C137.239 17.7147 137.554 18.6587 137.554 19.896V25H136.098V20.024C136.098 19.1493 135.874 18.4773 135.426 18.008C134.978 17.5387 134.37 17.304 133.602 17.304C132.802 17.304 132.162 17.5653 131.682 18.088C131.202 18.6 130.962 19.352 130.962 20.344V25H129.506V16.216H130.962V18.296C131.186 17.5813 131.58 17.032 132.146 16.648C132.722 16.264 133.383 16.072 134.13 16.072ZM143.587 16.104C144.44 16.104 145.16 16.3173 145.747 16.744C146.344 17.1707 146.76 17.7413 146.995 18.456V16.216H148.451V25H146.995V22.76C146.76 23.4747 146.344 24.0453 145.747 24.472C145.16 24.8987 144.44 25.112 143.587 25.112C142.808 25.112 142.115 24.9307 141.507 24.568C140.899 24.2053 140.419 23.688 140.067 23.016C139.725 22.3333 139.555 21.5333 139.555 20.616C139.555 19.6987 139.725 18.8987 140.067 18.216C140.419 17.5333 140.899 17.0107 141.507 16.648C142.115 16.2853 142.808 16.104 143.587 16.104ZM144.003 17.4C143.107 17.4 142.387 17.688 141.843 18.264C141.309 18.8293 141.043 19.6133 141.043 20.616C141.043 21.6187 141.309 22.408 141.843 22.984C142.387 23.5493 143.107 23.832 144.003 23.832C144.579 23.832 145.091 23.6987 145.539 23.432C145.997 23.1653 146.355 22.792 146.611 22.312C146.867 21.8213 146.995 21.256 146.995 20.616C146.995 19.976 146.867 19.4107 146.611 18.92C146.355 18.4293 145.997 18.056 145.539 17.8C145.091 17.5333 144.579 17.4 144.003 17.4ZM153.72 16.104C154.712 16.104 155.507 16.3653 156.104 16.888C156.712 17.4 157.08 18.0933 157.208 18.968H155.816C155.752 18.4453 155.533 18.0187 155.16 17.688C154.797 17.3467 154.307 17.176 153.688 17.176C153.165 17.176 152.755 17.304 152.456 17.56C152.168 17.8053 152.024 18.1413 152.024 18.568C152.024 18.888 152.12 19.1493 152.312 19.352C152.515 19.544 152.76 19.6933 153.048 19.8C153.347 19.896 153.752 20.0027 154.264 20.12C154.915 20.2693 155.437 20.424 155.832 20.584C156.237 20.7333 156.579 20.9787 156.856 21.32C157.144 21.6613 157.288 22.12 157.288 22.696C157.288 23.4107 157.016 23.992 156.472 24.44C155.939 24.888 155.224 25.112 154.328 25.112C153.283 25.112 152.429 24.8613 151.768 24.36C151.107 23.8587 150.717 23.16 150.6 22.264H152.008C152.061 22.7973 152.291 23.2293 152.696 23.56C153.112 23.8907 153.656 24.056 154.328 24.056C154.829 24.056 155.219 23.928 155.496 23.672C155.784 23.416 155.928 23.08 155.928 22.664C155.928 22.3227 155.827 22.0507 155.624 21.848C155.421 21.6453 155.171 21.4907 154.872 21.384C154.573 21.2773 154.163 21.1653 153.64 21.048C152.989 20.8987 152.467 20.7493 152.072 20.6C151.688 20.4507 151.357 20.216 151.08 19.896C150.813 19.5653 150.68 19.1227 150.68 18.568C150.68 17.832 150.952 17.24 151.496 16.792C152.04 16.3333 152.781 16.104 153.72 16.104Z" fill="black"/>
</svg>
