<svg width="123" height="36" viewBox="0 0 123 36" fill="none" xmlns="http://www.w3.org/2000/svg">
<path fill-rule="evenodd" clip-rule="evenodd" d="M48.6081 18.2503H43.8782V30.9109H48.6081C50.4112 30.9109 51.6559 30.4551 52.3456 29.5492C53.031 28.6429 53.3734 26.9838 53.3734 24.5809C53.3734 22.1819 53.031 20.5319 52.3456 19.6166C51.6559 18.7061 50.4112 18.2503 48.6081 18.2503ZM39.7935 14.8691H48.6847C51.8093 14.8691 54.1175 15.6849 55.6052 17.3219C57.0931 18.9538 57.8369 21.4877 57.8369 24.9233C57.8369 26.6952 57.5891 28.2146 57.0931 29.4908C56.5928 30.7618 55.8487 31.7942 54.8526 32.5879C54.0861 33.2056 53.27 33.6429 52.3952 33.9043C51.5253 34.1614 50.3256 34.2921 48.8065 34.2921H39.7935V14.8691ZM66.2498 34.2921L57.783 14.8691H62.4177L68.2565 29.3371L74.2393 14.8691H78.5859L70.47 34.2921H66.2498ZM83.9193 34.2921H79.6452V14.8691H83.9193V34.2921ZM97.0488 18.3316H92.0397V23.2279H97.0488C98.4058 23.2279 99.348 23.0434 99.8755 22.6737C100.403 22.3035 100.669 21.668 100.669 20.766C100.669 19.8734 100.412 19.2469 99.8982 18.8818C99.3797 18.5164 98.433 18.3316 97.0488 18.3316ZM87.9547 14.8691H98.0134C100.358 14.8691 102.076 15.3425 103.167 16.2847C104.262 17.2269 104.808 18.7061 104.808 20.7121C104.808 22.2046 104.47 23.4218 103.798 24.364C103.122 25.3063 102.152 25.9151 100.881 26.1901L105.728 34.2921H101.133L96.8504 26.6635H92.0397V34.2921H87.9547V14.8691ZM116.251 18.2503C114.768 18.2503 113.654 18.6205 112.901 19.3643C112.148 20.1035 111.729 21.2397 111.652 22.7681L122.96 22.7817V26.1496H111.625C111.634 27.8404 111.995 29.0576 112.703 29.8014C113.411 30.5413 114.592 30.9109 116.251 30.9109H122.96V34.2921H116.053C114.529 34.2921 113.334 34.1614 112.464 33.9043C111.594 33.6429 110.773 33.2056 110.006 32.5879C109.014 31.7942 108.271 30.7618 107.77 29.4908C107.274 28.2146 107.026 26.6952 107.026 24.9233C107.026 21.4877 107.77 18.9538 109.258 17.3219C110.742 15.6849 113.045 14.8691 116.17 14.8691H122.96V18.2503H116.251Z" fill="white"/>
<path fill-rule="evenodd" clip-rule="evenodd" d="M29.0999 7.6858L37.1106 7.6841C36.9091 9.2242 30.4466 19.6205 29.154 21.9137L20.8318 35.9563C20.1988 35.3315 16.8797 29.7331 16.8265 29.1333C16.7054 27.7673 27.4408 10.9162 28.6773 7.6782L4.1366 7.6858L0 1.0318L32.7277 1C31.7327 3.4151 30.1513 5.138 29.0999 7.6858Z" fill="white"/>
<path fill-rule="evenodd" clip-rule="evenodd" d="M8.35579 28.834L4.2109 22.2173C3.04 20.1398 1.1107 17.3023 0.325195 15.2396L16.0005 15.2271L8.35579 28.834Z" fill="white"/>
</svg>
