<svg width="52" height="33" viewBox="0 0 48 25" fill="none" xmlns="http://www.w3.org/2000/svg">
<path fill-rule="evenodd" clip-rule="evenodd" d="M46.4996 13.0467C47.392 14.3552 47.9155 15.9348 47.9155 17.6347C47.9155 19.2974 46.7428 20.6953 45.119 20.9986C44.56 23.2508 42.5262 24.9273 40.1033 24.9273C37.7039 24.9273 35.6865 23.2831 35.1041 21.0632H14.2982C13.7158 23.2831 11.6989 24.9273 9.29894 24.9273C6.89947 24.9273 4.88208 23.2831 4.30012 21.0632H4.27757C2.16554 21.0632 0.410377 19.5229 0.0658903 17.5078C0.024322 17.4127 0 17.3092 0 17.1991C0 17.1826 0.00435377 17.1675 0.0087082 17.1523C0.0120805 17.1405 0.0154533 17.1287 0.0168043 17.1164C0.00840213 17.0072 0 16.8975 0 16.7856V4.9488C0 2.75451 1.78479 0.969727 3.97863 0.969727H26.6577C28.5982 0.969727 30.4462 1.70115 31.8613 3.02913L38.7205 9.47091H39.7518C42.4223 9.47091 44.7904 10.7657 46.2807 12.7544C46.3749 12.8344 46.4527 12.9304 46.4996 13.0467ZM5.67143 19.7538C5.67143 21.7548 7.29835 23.3817 9.29894 23.3817C11.2991 23.3817 12.9269 21.7548 12.9269 19.7538C12.9269 17.7532 11.2991 16.1263 9.29894 16.1263C7.29879 16.1263 5.67143 17.7532 5.67143 19.7538ZM40.1029 23.3817C38.1023 23.3817 36.4754 21.7548 36.4754 19.7538C36.4754 17.7532 38.1027 16.1263 40.1029 16.1263C42.103 16.1263 43.7308 17.7532 43.7308 19.7538C43.7308 21.7548 42.1035 23.3817 40.1029 23.3817ZM40.1029 14.5803C42.8185 14.5803 45.0473 16.6848 45.256 19.3478C45.9203 19.052 46.37 18.3962 46.37 17.6347C46.37 16.3377 45.9892 15.1304 45.3418 14.108H44.0514C43.6247 14.108 43.2785 13.7622 43.2785 13.335C43.2785 12.9242 43.6008 12.5969 44.005 12.5713C42.8535 11.6028 41.3703 11.0165 39.7518 11.0165H38.4145C38.2177 11.0165 38.0285 10.9417 37.8852 10.8068L30.8031 4.15634C29.6759 3.09812 28.2037 2.51527 26.6577 2.51527H3.97863C2.63694 2.51527 1.54555 3.60667 1.54555 4.94879V16.4265H2.50649C2.93323 16.4265 3.27904 16.7719 3.27904 17.1991C3.27904 17.6263 2.93323 17.9721 2.50649 17.9721H1.82812C2.25177 18.8428 3.1194 19.4513 4.13827 19.5035C4.27049 16.767 6.5311 14.5803 9.29894 14.5803C12.0721 14.5803 14.3358 16.775 14.4605 19.5176H34.9418C35.0665 16.7746 37.3302 14.5803 40.1029 14.5803Z" fill="black"/>
<path fill-rule="evenodd" clip-rule="evenodd" d="M33.2315 14.1082H15.4566C15.0294 14.1082 14.6836 14.4535 14.6836 14.8807C14.6836 15.3079 15.0294 15.6537 15.4566 15.6537H33.2315C33.6582 15.6537 34.0045 15.3079 34.0045 14.8807C34.0045 14.4535 33.6582 14.1082 33.2315 14.1082Z" fill="black"/>
<path fill-rule="evenodd" clip-rule="evenodd" d="M21.6397 4.07675V11.0165C21.6397 11.4436 21.2934 11.7895 20.8667 11.7895H3.86435C3.43761 11.7895 3.0918 11.4436 3.0918 11.0165V4.07675C3.0918 3.64957 3.43761 3.3042 3.86435 3.3042H20.8667C21.2934 3.3042 21.6397 3.64957 21.6397 4.07675ZM4.63735 10.2439H20.0937V4.84975H4.63735V10.2439Z" fill="black"/>
<path fill-rule="evenodd" clip-rule="evenodd" d="M26.2018 3.3042C27.5988 3.3042 28.9299 3.83 29.9487 4.78474L36.0022 10.4526C36.2335 10.6693 36.3096 11.0054 36.1928 11.3004C36.0761 11.5953 35.7913 11.7895 35.4738 11.7895H23.9571C23.5304 11.7895 23.1846 11.4436 23.1846 11.0165V4.07675C23.1846 3.64957 23.5304 3.3042 23.9571 3.3042H26.2018ZM24.7301 4.84975V10.2439H33.5174L28.8918 5.9124C28.1604 5.22696 27.2048 4.84975 26.2018 4.84975H24.7301Z" fill="black"/>
<path fill-rule="evenodd" clip-rule="evenodd" d="M6.65918 19.7539C6.65918 18.2981 7.84344 17.1143 9.29922 17.1143C10.755 17.1143 11.9393 18.2981 11.9393 19.7539C11.9393 21.2101 10.755 22.3939 9.29922 22.3939C7.84344 22.3939 6.65918 21.2101 6.65918 19.7539ZM8.20473 19.7539C8.20473 20.3579 8.69559 20.8483 9.29922 20.8483C9.9024 20.8483 10.3937 20.3579 10.3937 19.7539C10.3937 19.1502 9.9024 18.6598 9.29922 18.6598C8.69559 18.6598 8.20473 19.1502 8.20473 19.7539Z" fill="black"/>
<path fill-rule="evenodd" clip-rule="evenodd" d="M37.4629 19.7539C37.4629 18.2981 38.6471 17.1143 40.1029 17.1143C41.5591 17.1143 42.743 18.2981 42.743 19.7539C42.743 21.2101 41.5587 22.3939 40.1029 22.3939C38.6471 22.3939 37.4629 21.2101 37.4629 19.7539ZM39.0084 19.7539C39.0084 20.3579 39.4997 20.8483 40.1029 20.8483C40.7066 20.8483 41.1974 20.3579 41.1974 19.7539C41.1974 19.1502 40.7066 18.6598 40.1029 18.6598C39.4997 18.6598 39.0084 19.1502 39.0084 19.7539Z" fill="black"/>
</svg>
